<ttFont>
<head>
    <!-- Most of this table will be recalculated by the compiler -->
    <tableVersion value="1.0"/>
    <fontRevision value="1.002"/>
    <checkSumAdjustment value="0xbda93072"/>
    <magicNumber value="0x5f0f3cf5"/>
    <flags value="00000000 00001111"/>
    <unitsPerEm value="1000"/>
    <created value="Sun Jun 13 15:20:27 2021"/>
    <modified value="Mon Jun 14 15:25:30 2021"/>
    <xMin value="-148"/>
    <yMin value="-265"/>
    <xMax value="1206"/>
    <yMax value="1223"/>
    <macStyle value="00000000 00000001"/>
    <lowestRecPPEM value="6"/>
    <fontDirectionHint value="2"/>
    <indexToLocFormat value="0"/>
    <glyphDataFormat value="0"/>
  </head>
    <TTGlyph name=".notdef" xMin="50" yMin="-265" xMax="450" yMax="1000">
      <contour>
        <pt x="50" y="-265" on="1"/>
        <pt x="50" y="1000" on="1"/>
        <pt x="450" y="1000" on="1"/>
        <pt x="450" y="-265" on="1"/>
      </contour>
      <contour>
        <pt x="100" y="-215" on="1"/>
        <pt x="400" y="-215" on="1"/>
        <pt x="400" y="950" on="1"/>
        <pt x="100" y="950" on="1"/>
      </contour>
    </TTGlyph>
    <TTGlyph name="A" xMin="30" yMin="0" xMax="739" yMax="740">
      <contour>
        <pt x="30" y="0" on="1"/>
        <pt x="282" y="740" on="1"/>
        <pt x="487" y="740" on="1"/>
        <pt x="739" y="0" on="1"/>
        <pt x="577" y="0" on="1"/>
        <pt x="530" y="145" on="1"/>
        <pt x="240" y="145" on="1"/>
        <pt x="192" y="0" on="1"/>
      </contour>
      <contour>
        <pt x="283" y="279" on="1"/>
        <pt x="487" y="279" on="1"/>
        <pt x="385" y="588" on="1"/>
      </contour>
    </TTGlyph>
    <TTGlyph name="AE" xMin="30" yMin="0" xMax="983" yMax="740">
      <contour>
        <pt x="30" y="0" on="1"/>
        <pt x="366" y="740" on="1"/>
        <pt x="978" y="740" on="1"/>
        <pt x="978" y="606" on="1"/>
        <pt x="622" y="606" on="1"/>
        <pt x="622" y="440" on="1"/>
        <pt x="932" y="440" on="1"/>
        <pt x="932" y="311" on="1"/>
        <pt x="622" y="311" on="1"/>
        <pt x="622" y="134" on="1"/>
        <pt x="983" y="134" on="1"/>
        <pt x="983" y="0" on="1"/>
        <pt x="468" y="0" on="1"/>
        <pt x="468" y="145" on="1"/>
        <pt x="258" y="145" on="1"/>
        <pt x="192" y="0" on="1"/>
      </contour>
      <contour>
        <pt x="318" y="277" on="1"/>
        <pt x="468" y="277" on="1"/>
        <pt x="468" y="605" on="1"/>
      </contour>
    </TTGlyph>
    <TTGlyph name="Aacute" xMin="30" yMin="0" xMax="739" yMax="994">
      <contour>
        <pt x="442" y="813" on="1"/>
        <pt x="329" y="814" on="1"/>
        <pt x="410" y="994" on="1"/>
        <pt x="551" y="994" on="1"/>
      </contour>
      <contour>
        <pt x="30" y="0" on="1"/>
        <pt x="282" y="740" on="1"/>
        <pt x="487" y="740" on="1"/>
        <pt x="739" y="0" on="1"/>
        <pt x="577" y="0" on="1"/>
        <pt x="529" y="145" on="1"/>
        <pt x="240" y="145" on="1"/>
        <pt x="192" y="0" on="1"/>
      </contour>
      <contour>
        <pt x="282" y="279" on="1"/>
        <pt x="487" y="279" on="1"/>
        <pt x="385" y="588" on="1"/>
      </contour>
    </TTGlyph>
    <TTGlyph name="Abreve" xMin="30" yMin="0" xMax="739" yMax="964">
      <contour>
        <pt x="385" y="807" on="1"/>
        <pt x="330" y="807" on="0"/>
        <pt x="261" y="839" on="0"/>
        <pt x="223" y="885" on="0"/>
        <pt x="207" y="932" on="0"/>
        <pt x="204" y="964" on="0"/>
        <pt x="204" y="964" on="1"/>
        <pt x="304" y="964" on="1"/>
        <pt x="304" y="964" on="0"/>
        <pt x="308" y="942" on="0"/>
        <pt x="323" y="915" on="0"/>
        <pt x="356" y="894" on="0"/>
        <pt x="385" y="894" on="1"/>
        <pt x="414" y="894" on="0"/>
        <pt x="447" y="915" on="0"/>
        <pt x="462" y="942" on="0"/>
        <pt x="465" y="964" on="0"/>
        <pt x="465" y="964" on="1"/>
        <pt x="565" y="964" on="1"/>
        <pt x="565" y="964" on="0"/>
        <pt x="562" y="932" on="0"/>
        <pt x="546" y="885" on="0"/>
        <pt x="508" y="839" on="0"/>
        <pt x="440" y="807" on="0"/>
      </contour>
      <contour>
        <pt x="30" y="0" on="1"/>
        <pt x="282" y="740" on="1"/>
        <pt x="487" y="740" on="1"/>
        <pt x="739" y="0" on="1"/>
        <pt x="577" y="0" on="1"/>
        <pt x="529" y="145" on="1"/>
        <pt x="240" y="145" on="1"/>
        <pt x="192" y="0" on="1"/>
      </contour>
      <contour>
        <pt x="282" y="279" on="1"/>
        <pt x="487" y="279" on="1"/>
        <pt x="385" y="588" on="1"/>
      </contour>
    </TTGlyph>
    <TTGlyph name="Acircumflex" xMin="30" yMin="0" xMax="739" yMax="960">
      <contour>
        <pt x="196" y="806" on="1"/>
        <pt x="325" y="960" on="1"/>
        <pt x="446" y="960" on="1"/>
        <pt x="575" y="806" on="1"/>
        <pt x="456" y="806" on="1"/>
        <pt x="385" y="891" on="1"/>
        <pt x="315" y="806" on="1"/>
      </contour>
      <contour>
        <pt x="30" y="0" on="1"/>
        <pt x="282" y="740" on="1"/>
        <pt x="487" y="740" on="1"/>
        <pt x="739" y="0" on="1"/>
        <pt x="577" y="0" on="1"/>
        <pt x="529" y="145" on="1"/>
        <pt x="240" y="145" on="1"/>
        <pt x="192" y="0" on="1"/>
      </contour>
      <contour>
        <pt x="282" y="279" on="1"/>
        <pt x="487" y="279" on="1"/>
        <pt x="385" y="588" on="1"/>
      </contour>
    </TTGlyph>
    <TTGlyph name="Adieresis" xMin="30" yMin="0" xMax="739" yMax="967">
      <contour>
        <pt x="498" y="801" on="1"/>
        <pt x="460" y="801" on="0"/>
        <pt x="412" y="850" on="0"/>
        <pt x="412" y="884" on="1"/>
        <pt x="412" y="919" on="0"/>
        <pt x="460" y="967" on="0"/>
        <pt x="498" y="967" on="1"/>
        <pt x="535" y="967" on="0"/>
        <pt x="584" y="919" on="0"/>
        <pt x="584" y="884" on="1"/>
        <pt x="584" y="850" on="0"/>
        <pt x="535" y="801" on="0"/>
      </contour>
      <contour>
        <pt x="271" y="801" on="1"/>
        <pt x="233" y="801" on="0"/>
        <pt x="185" y="850" on="0"/>
        <pt x="185" y="884" on="1"/>
        <pt x="185" y="919" on="0"/>
        <pt x="233" y="967" on="0"/>
        <pt x="271" y="967" on="1"/>
        <pt x="308" y="967" on="0"/>
        <pt x="357" y="919" on="0"/>
        <pt x="357" y="884" on="1"/>
        <pt x="357" y="850" on="0"/>
        <pt x="308" y="801" on="0"/>
      </contour>
      <contour>
        <pt x="30" y="0" on="1"/>
        <pt x="282" y="740" on="1"/>
        <pt x="487" y="740" on="1"/>
        <pt x="739" y="0" on="1"/>
        <pt x="577" y="0" on="1"/>
        <pt x="529" y="145" on="1"/>
        <pt x="240" y="145" on="1"/>
        <pt x="192" y="0" on="1"/>
      </contour>
      <contour>
        <pt x="282" y="279" on="1"/>
        <pt x="487" y="279" on="1"/>
        <pt x="385" y="588" on="1"/>
      </contour>
    </TTGlyph>
    <TTGlyph name="Agrave" xMin="30" yMin="0" xMax="739" yMax="994">
      <contour>
        <pt x="331" y="813" on="1"/>
        <pt x="222" y="994" on="1"/>
        <pt x="363" y="994" on="1"/>
        <pt x="444" y="814" on="1"/>
      </contour>
      <contour>
        <pt x="30" y="0" on="1"/>
        <pt x="282" y="740" on="1"/>
        <pt x="487" y="740" on="1"/>
        <pt x="739" y="0" on="1"/>
        <pt x="577" y="0" on="1"/>
        <pt x="529" y="145" on="1"/>
        <pt x="240" y="145" on="1"/>
        <pt x="192" y="0" on="1"/>
      </contour>
      <contour>
        <pt x="282" y="279" on="1"/>
        <pt x="487" y="279" on="1"/>
        <pt x="385" y="588" on="1"/>
      </contour>
    </TTGlyph>
    <TTGlyph name="Amacron" xMin="30" yMin="0" xMax="739" yMax="915">
      <contour>
        <pt x="222" y="825" on="1"/>
        <pt x="222" y="915" on="1"/>
        <pt x="548" y="915" on="1"/>
        <pt x="548" y="825" on="1"/>
      </contour>
      <contour>
        <pt x="30" y="0" on="1"/>
        <pt x="282" y="740" on="1"/>
        <pt x="487" y="740" on="1"/>
        <pt x="739" y="0" on="1"/>
        <pt x="577" y="0" on="1"/>
        <pt x="529" y="145" on="1"/>
        <pt x="240" y="145" on="1"/>
        <pt x="192" y="0" on="1"/>
      </contour>
      <contour>
        <pt x="282" y="279" on="1"/>
        <pt x="487" y="279" on="1"/>
        <pt x="385" y="588" on="1"/>
      </contour>
    </TTGlyph>
    <TTGlyph name="Aogonek" xMin="30" yMin="-184" xMax="776" yMax="740">
      <contour>
        <pt x="30" y="0" on="1"/>
        <pt x="282" y="740" on="1"/>
        <pt x="487" y="740" on="1"/>
        <pt x="739" y="0" on="1"/>
        <pt x="739" y="0" on="0"/>
        <pt x="713" y="-13" on="0"/>
        <pt x="688" y="-39" on="0"/>
        <pt x="688" y="-58" on="1"/>
        <pt x="688" y="-73" on="0"/>
        <pt x="714" y="-96" on="0"/>
        <pt x="742" y="-96" on="1"/>
        <pt x="755" y="-96" on="0"/>
        <pt x="776" y="-93" on="0"/>
        <pt x="776" y="-93" on="1"/>
        <pt x="776" y="-179" on="1"/>
        <pt x="776" y="-179" on="0"/>
        <pt x="743" y="-184" on="0"/>
        <pt x="718" y="-184" on="1"/>
        <pt x="645" y="-184" on="0"/>
        <pt x="578" y="-125" on="0"/>
        <pt x="578" y="-84" on="1"/>
        <pt x="578" y="-54" on="0"/>
        <pt x="608" y="-13" on="0"/>
        <pt x="627" y="0" on="1"/>
        <pt x="577" y="0" on="1"/>
        <pt x="529" y="145" on="1"/>
        <pt x="240" y="145" on="1"/>
        <pt x="192" y="0" on="1"/>
      </contour>
      <contour>
        <pt x="282" y="279" on="1"/>
        <pt x="487" y="279" on="1"/>
        <pt x="385" y="588" on="1"/>
      </contour>
    </TTGlyph>
    <TTGlyph name="Aring" xMin="30" yMin="0" xMax="739" yMax="1069">
      <contour>
        <pt x="385" y="798" on="1"/>
        <pt x="347" y="798" on="0"/>
        <pt x="285" y="834" on="0"/>
        <pt x="249" y="896" on="0"/>
        <pt x="249" y="933" on="1"/>
        <pt x="249" y="971" on="0"/>
        <pt x="285" y="1032" on="0"/>
        <pt x="347" y="1069" on="0"/>
        <pt x="385" y="1069" on="1"/>
        <pt x="422" y="1069" on="0"/>
        <pt x="484" y="1032" on="0"/>
        <pt x="521" y="971" on="0"/>
        <pt x="521" y="933" on="1"/>
        <pt x="521" y="896" on="0"/>
        <pt x="484" y="834" on="0"/>
        <pt x="422" y="798" on="0"/>
      </contour>
      <contour>
        <pt x="385" y="879" on="1"/>
        <pt x="407" y="879" on="0"/>
        <pt x="439" y="910" on="0"/>
        <pt x="439" y="933" on="1"/>
        <pt x="439" y="956" on="0"/>
        <pt x="407" y="987" on="0"/>
        <pt x="385" y="987" on="1"/>
        <pt x="362" y="987" on="0"/>
        <pt x="330" y="956" on="0"/>
        <pt x="330" y="933" on="1"/>
        <pt x="330" y="910" on="0"/>
        <pt x="362" y="879" on="0"/>
      </contour>
      <contour>
        <pt x="30" y="0" on="1"/>
        <pt x="282" y="740" on="1"/>
        <pt x="487" y="740" on="1"/>
        <pt x="739" y="0" on="1"/>
        <pt x="577" y="0" on="1"/>
        <pt x="529" y="145" on="1"/>
        <pt x="240" y="145" on="1"/>
        <pt x="192" y="0" on="1"/>
      </contour>
      <contour>
        <pt x="282" y="279" on="1"/>
        <pt x="487" y="279" on="1"/>
        <pt x="385" y="588" on="1"/>
      </contour>
    </TTGlyph>
    <TTGlyph name="Atilde" xMin="30" yMin="0" xMax="739" yMax="977">
      <contour>
        <pt x="459" y="824" on="1"/>
        <pt x="432" y="824" on="0"/>
        <pt x="393" y="843" on="0"/>
        <pt x="363" y="867" on="0"/>
        <pt x="338" y="886" on="0"/>
        <pt x="324" y="886" on="1"/>
        <pt x="308" y="886" on="0"/>
        <pt x="296" y="856" on="0"/>
        <pt x="296" y="830" on="1"/>
        <pt x="215" y="830" on="1"/>
        <pt x="215" y="863" on="0"/>
        <pt x="230" y="931" on="0"/>
        <pt x="274" y="977" on="0"/>
        <pt x="315" y="977" on="1"/>
        <pt x="343" y="977" on="0"/>
        <pt x="382" y="958" on="0"/>
        <pt x="412" y="934" on="0"/>
        <pt x="437" y="916" on="0"/>
        <pt x="450" y="916" on="1"/>
        <pt x="478" y="916" on="0"/>
        <pt x="478" y="971" on="1"/>
        <pt x="559" y="971" on="1"/>
        <pt x="559" y="938" on="0"/>
        <pt x="543" y="870" on="0"/>
        <pt x="500" y="824" on="0"/>
      </contour>
      <contour>
        <pt x="30" y="0" on="1"/>
        <pt x="282" y="740" on="1"/>
        <pt x="487" y="740" on="1"/>
        <pt x="739" y="0" on="1"/>
        <pt x="577" y="0" on="1"/>
        <pt x="529" y="145" on="1"/>
        <pt x="240" y="145" on="1"/>
        <pt x="192" y="0" on="1"/>
      </contour>
      <contour>
        <pt x="282" y="279" on="1"/>
        <pt x="487" y="279" on="1"/>
        <pt x="385" y="588" on="1"/>
      </contour>
    </TTGlyph>
    <TTGlyph name="B" xMin="68" yMin="0" xMax="663" yMax="740">
      <contour>
        <pt x="68" y="0" on="1"/>
        <pt x="68" y="740" on="1"/>
        <pt x="410" y="740" on="1"/>
        <pt x="482" y="740" on="0"/>
        <pt x="581" y="690" on="0"/>
        <pt x="633" y="607" on="0"/>
        <pt x="633" y="557" on="1"/>
        <pt x="633" y="508" on="0"/>
        <pt x="597" y="443" on="0"/>
        <pt x="546" y="404" on="0"/>
        <pt x="522" y="397" on="1"/>
        <pt x="522" y="389" on="1"/>
        <pt x="549" y="383" on="0"/>
        <pt x="615" y="343" on="0"/>
        <pt x="663" y="269" on="0"/>
        <pt x="663" y="210" on="1"/>
        <pt x="663" y="158" on="0"/>
        <pt x="614" y="62" on="0"/>
        <pt x="505" y="0" on="0"/>
        <pt x="418" y="0" on="1"/>
      </contour>
      <contour>
        <pt x="384" y="611" on="1"/>
        <pt x="222" y="611" on="1"/>
        <pt x="222" y="439" on="1"/>
        <pt x="384" y="439" on="1"/>
        <pt x="436" y="439" on="0"/>
        <pt x="484" y="489" on="0"/>
        <pt x="484" y="525" on="1"/>
        <pt x="484" y="560" on="0"/>
        <pt x="436" y="611" on="0"/>
      </contour>
      <contour>
        <pt x="396" y="321" on="1"/>
        <pt x="222" y="321" on="1"/>
        <pt x="222" y="129" on="1"/>
        <pt x="396" y="129" on="1"/>
        <pt x="455" y="129" on="0"/>
        <pt x="508" y="186" on="0"/>
        <pt x="508" y="226" on="1"/>
        <pt x="508" y="265" on="0"/>
        <pt x="455" y="321" on="0"/>
      </contour>
    </TTGlyph>
    <TTGlyph name="C" xMin="40" yMin="-10" xMax="740" yMax="750">
      <contour>
        <pt x="407" y="-10" on="1"/>
        <pt x="315" y="-10" on="0"/>
        <pt x="178" y="55" on="0"/>
        <pt x="86" y="164" on="0"/>
        <pt x="40" y="300" on="0"/>
        <pt x="40" y="371" on="1"/>
        <pt x="40" y="441" on="0"/>
        <pt x="86" y="577" on="0"/>
        <pt x="178" y="686" on="0"/>
        <pt x="315" y="750" on="0"/>
        <pt x="407" y="750" on="1"/>
        <pt x="484" y="750" on="0"/>
        <pt x="593" y="711" on="0"/>
        <pt x="666" y="650" on="0"/>
        <pt x="711" y="581" on="0"/>
        <pt x="733" y="520" on="0"/>
        <pt x="740" y="481" on="0"/>
        <pt x="740" y="481" on="1"/>
        <pt x="587" y="481" on="1"/>
        <pt x="587" y="481" on="0"/>
        <pt x="580" y="508" on="0"/>
        <pt x="560" y="547" on="0"/>
        <pt x="521" y="585" on="0"/>
        <pt x="456" y="612" on="0"/>
        <pt x="408" y="612" on="1"/>
        <pt x="339" y="612" on="0"/>
        <pt x="246" y="541" on="0"/>
        <pt x="199" y="431" on="0"/>
        <pt x="199" y="371" on="1"/>
        <pt x="199" y="311" on="0"/>
        <pt x="246" y="200" on="0"/>
        <pt x="339" y="129" on="0"/>
        <pt x="408" y="129" on="1"/>
        <pt x="456" y="129" on="0"/>
        <pt x="521" y="155" on="0"/>
        <pt x="560" y="194" on="0"/>
        <pt x="580" y="233" on="0"/>
        <pt x="587" y="259" on="0"/>
        <pt x="587" y="259" on="1"/>
        <pt x="740" y="259" on="1"/>
        <pt x="740" y="259" on="0"/>
        <pt x="733" y="220" on="0"/>
        <pt x="711" y="159" on="0"/>
        <pt x="666" y="90" on="0"/>
        <pt x="593" y="29" on="0"/>
        <pt x="484" y="-10" on="0"/>
      </contour>
    </TTGlyph>
    <TTGlyph name="Cacute" xMin="40" yMin="-10" xMax="740" yMax="993">
      <contour>
        <pt x="464" y="812" on="1"/>
        <pt x="351" y="813" on="1"/>
        <pt x="432" y="993" on="1"/>
        <pt x="573" y="993" on="1"/>
      </contour>
      <contour>
        <pt x="407" y="-10" on="1"/>
        <pt x="315" y="-10" on="0"/>
        <pt x="178" y="55" on="0"/>
        <pt x="86" y="164" on="0"/>
        <pt x="40" y="300" on="0"/>
        <pt x="40" y="371" on="1"/>
        <pt x="40" y="441" on="0"/>
        <pt x="86" y="577" on="0"/>
        <pt x="178" y="686" on="0"/>
        <pt x="315" y="750" on="0"/>
        <pt x="407" y="750" on="1"/>
        <pt x="484" y="750" on="0"/>
        <pt x="593" y="711" on="0"/>
        <pt x="666" y="650" on="0"/>
        <pt x="711" y="581" on="0"/>
        <pt x="733" y="520" on="0"/>
        <pt x="740" y="481" on="0"/>
        <pt x="740" y="481" on="1"/>
        <pt x="587" y="481" on="1"/>
        <pt x="587" y="481" on="0"/>
        <pt x="580" y="508" on="0"/>
        <pt x="560" y="547" on="0"/>
        <pt x="521" y="585" on="0"/>
        <pt x="456" y="612" on="0"/>
        <pt x="408" y="612" on="1"/>
        <pt x="339" y="612" on="0"/>
        <pt x="246" y="541" on="0"/>
        <pt x="199" y="431" on="0"/>
        <pt x="199" y="371" on="1"/>
        <pt x="199" y="311" on="0"/>
        <pt x="246" y="200" on="0"/>
        <pt x="339" y="129" on="0"/>
        <pt x="408" y="129" on="1"/>
        <pt x="456" y="129" on="0"/>
        <pt x="521" y="155" on="0"/>
        <pt x="560" y="194" on="0"/>
        <pt x="580" y="233" on="0"/>
        <pt x="587" y="259" on="0"/>
        <pt x="587" y="259" on="1"/>
        <pt x="740" y="259" on="1"/>
        <pt x="740" y="259" on="0"/>
        <pt x="733" y="220" on="0"/>
        <pt x="711" y="159" on="0"/>
        <pt x="666" y="90" on="0"/>
        <pt x="593" y="29" on="0"/>
        <pt x="484" y="-10" on="0"/>
      </contour>
    </TTGlyph>
    <TTGlyph name="Ccaron" xMin="40" yMin="-10" xMax="740" yMax="981">
      <contour>
        <pt x="346" y="801" on="1"/>
        <pt x="217" y="981" on="1"/>
        <pt x="336" y="981" on="1"/>
        <pt x="407" y="877" on="1"/>
        <pt x="477" y="981" on="1"/>
        <pt x="596" y="981" on="1"/>
        <pt x="467" y="801" on="1"/>
      </contour>
      <contour>
        <pt x="407" y="-10" on="1"/>
        <pt x="315" y="-10" on="0"/>
        <pt x="178" y="55" on="0"/>
        <pt x="86" y="164" on="0"/>
        <pt x="40" y="300" on="0"/>
        <pt x="40" y="371" on="1"/>
        <pt x="40" y="441" on="0"/>
        <pt x="86" y="577" on="0"/>
        <pt x="178" y="686" on="0"/>
        <pt x="315" y="750" on="0"/>
        <pt x="407" y="750" on="1"/>
        <pt x="484" y="750" on="0"/>
        <pt x="593" y="711" on="0"/>
        <pt x="666" y="650" on="0"/>
        <pt x="711" y="581" on="0"/>
        <pt x="733" y="520" on="0"/>
        <pt x="740" y="481" on="0"/>
        <pt x="740" y="481" on="1"/>
        <pt x="587" y="481" on="1"/>
        <pt x="587" y="481" on="0"/>
        <pt x="580" y="508" on="0"/>
        <pt x="560" y="547" on="0"/>
        <pt x="521" y="585" on="0"/>
        <pt x="456" y="612" on="0"/>
        <pt x="408" y="612" on="1"/>
        <pt x="339" y="612" on="0"/>
        <pt x="246" y="541" on="0"/>
        <pt x="199" y="431" on="0"/>
        <pt x="199" y="371" on="1"/>
        <pt x="199" y="311" on="0"/>
        <pt x="246" y="200" on="0"/>
        <pt x="339" y="129" on="0"/>
        <pt x="408" y="129" on="1"/>
        <pt x="456" y="129" on="0"/>
        <pt x="521" y="155" on="0"/>
        <pt x="560" y="194" on="0"/>
        <pt x="580" y="233" on="0"/>
        <pt x="587" y="259" on="0"/>
        <pt x="587" y="259" on="1"/>
        <pt x="740" y="259" on="1"/>
        <pt x="740" y="259" on="0"/>
        <pt x="733" y="220" on="0"/>
        <pt x="711" y="159" on="0"/>
        <pt x="666" y="90" on="0"/>
        <pt x="593" y="29" on="0"/>
        <pt x="484" y="-10" on="0"/>
      </contour>
    </TTGlyph>
    <TTGlyph name="Ccedilla" xMin="40" yMin="-261" xMax="740" yMax="750">
      <contour>
        <pt x="387" y="-261" on="1"/>
        <pt x="359" y="-261" on="0"/>
        <pt x="305" y="-254" on="0"/>
        <pt x="305" y="-254" on="1"/>
        <pt x="305" y="-176" on="1"/>
        <pt x="305" y="-176" on="0"/>
        <pt x="330" y="-179" on="0"/>
        <pt x="364" y="-182" on="0"/>
        <pt x="379" y="-182" on="1"/>
        <pt x="422" y="-182" on="0"/>
        <pt x="452" y="-154" on="0"/>
        <pt x="452" y="-140" on="1"/>
        <pt x="452" y="-126" on="0"/>
        <pt x="430" y="-108" on="0"/>
        <pt x="410" y="-108" on="1"/>
        <pt x="387" y="-108" on="0"/>
        <pt x="355" y="-127" on="0"/>
        <pt x="355" y="-127" on="1"/>
        <pt x="302" y="-73" on="1"/>
        <pt x="347" y="-6" on="1"/>
        <pt x="270" y="5" on="0"/>
        <pt x="155" y="76" on="0"/>
        <pt x="79" y="180" on="0"/>
        <pt x="40" y="306" on="0"/>
        <pt x="40" y="371" on="1"/>
        <pt x="40" y="441" on="0"/>
        <pt x="86" y="577" on="0"/>
        <pt x="178" y="686" on="0"/>
        <pt x="315" y="750" on="0"/>
        <pt x="407" y="750" on="1"/>
        <pt x="484" y="750" on="0"/>
        <pt x="593" y="711" on="0"/>
        <pt x="666" y="650" on="0"/>
        <pt x="711" y="581" on="0"/>
        <pt x="733" y="520" on="0"/>
        <pt x="740" y="481" on="0"/>
        <pt x="740" y="481" on="1"/>
        <pt x="587" y="481" on="1"/>
        <pt x="587" y="481" on="0"/>
        <pt x="580" y="508" on="0"/>
        <pt x="560" y="547" on="0"/>
        <pt x="521" y="585" on="0"/>
        <pt x="456" y="612" on="0"/>
        <pt x="408" y="612" on="1"/>
        <pt x="339" y="612" on="0"/>
        <pt x="246" y="541" on="0"/>
        <pt x="199" y="431" on="0"/>
        <pt x="199" y="371" on="1"/>
        <pt x="199" y="311" on="0"/>
        <pt x="246" y="200" on="0"/>
        <pt x="339" y="129" on="0"/>
        <pt x="408" y="129" on="1"/>
        <pt x="456" y="129" on="0"/>
        <pt x="521" y="155" on="0"/>
        <pt x="560" y="194" on="0"/>
        <pt x="580" y="233" on="0"/>
        <pt x="587" y="259" on="0"/>
        <pt x="587" y="259" on="1"/>
        <pt x="740" y="259" on="1"/>
        <pt x="740" y="259" on="0"/>
        <pt x="733" y="223" on="0"/>
        <pt x="713" y="165" on="0"/>
        <pt x="673" y="99" on="0"/>
        <pt x="607" y="38" on="0"/>
        <pt x="509" y="-4" on="0"/>
        <pt x="440" y="-9" on="1"/>
        <pt x="413" y="-46" on="1"/>
        <pt x="426" y="-44" on="0"/>
        <pt x="440" y="-44" on="1"/>
        <pt x="488" y="-44" on="0"/>
        <pt x="545" y="-98" on="0"/>
        <pt x="545" y="-141" on="1"/>
        <pt x="545" y="-172" on="0"/>
        <pt x="511" y="-227" on="0"/>
        <pt x="441" y="-261" on="0"/>
      </contour>
    </TTGlyph>
    <TTGlyph name="Cdotaccent" xMin="40" yMin="-10" xMax="740" yMax="985">
      <contour>
        <pt x="407" y="811" on="1"/>
        <pt x="367" y="811" on="0"/>
        <pt x="317" y="862" on="0"/>
        <pt x="317" y="898" on="1"/>
        <pt x="317" y="934" on="0"/>
        <pt x="367" y="985" on="0"/>
        <pt x="407" y="985" on="1"/>
        <pt x="446" y="985" on="0"/>
        <pt x="497" y="934" on="0"/>
        <pt x="497" y="898" on="1"/>
        <pt x="497" y="862" on="0"/>
        <pt x="446" y="811" on="0"/>
      </contour>
      <contour>
        <pt x="407" y="-10" on="1"/>
        <pt x="315" y="-10" on="0"/>
        <pt x="178" y="55" on="0"/>
        <pt x="86" y="164" on="0"/>
        <pt x="40" y="300" on="0"/>
        <pt x="40" y="371" on="1"/>
        <pt x="40" y="441" on="0"/>
        <pt x="86" y="577" on="0"/>
        <pt x="178" y="686" on="0"/>
        <pt x="315" y="750" on="0"/>
        <pt x="407" y="750" on="1"/>
        <pt x="484" y="750" on="0"/>
        <pt x="593" y="711" on="0"/>
        <pt x="666" y="650" on="0"/>
        <pt x="711" y="581" on="0"/>
        <pt x="733" y="520" on="0"/>
        <pt x="740" y="481" on="0"/>
        <pt x="740" y="481" on="1"/>
        <pt x="587" y="481" on="1"/>
        <pt x="587" y="481" on="0"/>
        <pt x="580" y="508" on="0"/>
        <pt x="560" y="547" on="0"/>
        <pt x="521" y="585" on="0"/>
        <pt x="456" y="612" on="0"/>
        <pt x="408" y="612" on="1"/>
        <pt x="339" y="612" on="0"/>
        <pt x="246" y="541" on="0"/>
        <pt x="199" y="431" on="0"/>
        <pt x="199" y="371" on="1"/>
        <pt x="199" y="311" on="0"/>
        <pt x="246" y="200" on="0"/>
        <pt x="339" y="129" on="0"/>
        <pt x="408" y="129" on="1"/>
        <pt x="456" y="129" on="0"/>
        <pt x="521" y="155" on="0"/>
        <pt x="560" y="194" on="0"/>
        <pt x="580" y="233" on="0"/>
        <pt x="587" y="259" on="0"/>
        <pt x="587" y="259" on="1"/>
        <pt x="740" y="259" on="1"/>
        <pt x="740" y="259" on="0"/>
        <pt x="733" y="220" on="0"/>
        <pt x="711" y="159" on="0"/>
        <pt x="666" y="90" on="0"/>
        <pt x="593" y="29" on="0"/>
        <pt x="484" y="-10" on="0"/>
      </contour>
    </TTGlyph>
    <TTGlyph name="D" xMin="68" yMin="0" xMax="711" yMax="740">
      <contour>
        <pt x="68" y="0" on="1"/>
        <pt x="68" y="740" on="1"/>
        <pt x="348" y="740" on="1"/>
        <pt x="438" y="740" on="0"/>
        <pt x="575" y="677" on="0"/>
        <pt x="665" y="571" on="0"/>
        <pt x="711" y="439" on="0"/>
        <pt x="711" y="370" on="1"/>
        <pt x="711" y="301" on="0"/>
        <pt x="665" y="169" on="0"/>
        <pt x="575" y="63" on="0"/>
        <pt x="438" y="0" on="0"/>
        <pt x="348" y="0" on="1"/>
      </contour>
      <contour>
        <pt x="341" y="605" on="1"/>
        <pt x="222" y="605" on="1"/>
        <pt x="222" y="137" on="1"/>
        <pt x="341" y="137" on="1"/>
        <pt x="414" y="137" on="0"/>
        <pt x="509" y="205" on="0"/>
        <pt x="556" y="313" on="0"/>
        <pt x="556" y="371" on="1"/>
        <pt x="556" y="429" on="0"/>
        <pt x="509" y="536" on="0"/>
        <pt x="414" y="605" on="0"/>
      </contour>
    </TTGlyph>
    <TTGlyph name="Dcaron" xMin="72" yMin="0" xMax="715" yMax="982">
      <contour>
        <pt x="291" y="802" on="1"/>
        <pt x="162" y="982" on="1"/>
        <pt x="281" y="982" on="1"/>
        <pt x="352" y="878" on="1"/>
        <pt x="422" y="982" on="1"/>
        <pt x="541" y="982" on="1"/>
        <pt x="412" y="802" on="1"/>
      </contour>
      <contour>
        <pt x="72" y="0" on="1"/>
        <pt x="72" y="740" on="1"/>
        <pt x="352" y="740" on="1"/>
        <pt x="442" y="740" on="0"/>
        <pt x="579" y="677" on="0"/>
        <pt x="669" y="571" on="0"/>
        <pt x="715" y="439" on="0"/>
        <pt x="715" y="370" on="1"/>
        <pt x="715" y="301" on="0"/>
        <pt x="669" y="169" on="0"/>
        <pt x="579" y="63" on="0"/>
        <pt x="442" y="0" on="0"/>
        <pt x="352" y="0" on="1"/>
      </contour>
      <contour>
        <pt x="345" y="605" on="1"/>
        <pt x="226" y="605" on="1"/>
        <pt x="226" y="137" on="1"/>
        <pt x="345" y="137" on="1"/>
        <pt x="418" y="137" on="0"/>
        <pt x="513" y="205" on="0"/>
        <pt x="560" y="313" on="0"/>
        <pt x="560" y="371" on="1"/>
        <pt x="560" y="429" on="0"/>
        <pt x="513" y="536" on="0"/>
        <pt x="418" y="605" on="0"/>
      </contour>
    </TTGlyph>
    <TTGlyph name="Dcroat" xMin="19" yMin="0" xMax="744" yMax="740">
      <contour>
        <pt x="102" y="0" on="1"/>
        <pt x="102" y="308" on="1"/>
        <pt x="19" y="308" on="1"/>
        <pt x="19" y="432" on="1"/>
        <pt x="102" y="432" on="1"/>
        <pt x="102" y="740" on="1"/>
        <pt x="381" y="740" on="1"/>
        <pt x="472" y="740" on="0"/>
        <pt x="608" y="677" on="0"/>
        <pt x="699" y="571" on="0"/>
        <pt x="744" y="439" on="0"/>
        <pt x="744" y="370" on="1"/>
        <pt x="744" y="301" on="0"/>
        <pt x="699" y="169" on="0"/>
        <pt x="608" y="63" on="0"/>
        <pt x="472" y="0" on="0"/>
        <pt x="381" y="0" on="1"/>
      </contour>
      <contour>
        <pt x="395" y="308" on="1"/>
        <pt x="256" y="308" on="1"/>
        <pt x="256" y="137" on="1"/>
        <pt x="374" y="137" on="1"/>
        <pt x="447" y="137" on="0"/>
        <pt x="543" y="205" on="0"/>
        <pt x="589" y="313" on="0"/>
        <pt x="589" y="371" on="1"/>
        <pt x="589" y="429" on="0"/>
        <pt x="543" y="536" on="0"/>
        <pt x="447" y="605" on="0"/>
        <pt x="374" y="605" on="1"/>
        <pt x="256" y="605" on="1"/>
        <pt x="256" y="432" on="1"/>
        <pt x="395" y="432" on="1"/>
      </contour>
    </TTGlyph>
    <TTGlyph name="E" xMin="68" yMin="0" xMax="583" yMax="740">
      <contour>
        <pt x="68" y="0" on="1"/>
        <pt x="68" y="740" on="1"/>
        <pt x="578" y="740" on="1"/>
        <pt x="578" y="606" on="1"/>
        <pt x="222" y="606" on="1"/>
        <pt x="222" y="440" on="1"/>
        <pt x="532" y="440" on="1"/>
        <pt x="532" y="311" on="1"/>
        <pt x="222" y="311" on="1"/>
        <pt x="222" y="134" on="1"/>
        <pt x="583" y="134" on="1"/>
        <pt x="583" y="0" on="1"/>
      </contour>
    </TTGlyph>
    <TTGlyph name="Eacute" xMin="72" yMin="0" xMax="587" yMax="994">
      <contour>
        <pt x="388" y="813" on="1"/>
        <pt x="275" y="814" on="1"/>
        <pt x="356" y="994" on="1"/>
        <pt x="497" y="994" on="1"/>
      </contour>
      <contour>
        <pt x="72" y="0" on="1"/>
        <pt x="72" y="740" on="1"/>
        <pt x="582" y="740" on="1"/>
        <pt x="582" y="606" on="1"/>
        <pt x="226" y="606" on="1"/>
        <pt x="226" y="440" on="1"/>
        <pt x="536" y="440" on="1"/>
        <pt x="536" y="311" on="1"/>
        <pt x="226" y="311" on="1"/>
        <pt x="226" y="134" on="1"/>
        <pt x="587" y="134" on="1"/>
        <pt x="587" y="0" on="1"/>
      </contour>
    </TTGlyph>
    <TTGlyph name="Ecaron" xMin="72" yMin="0" xMax="587" yMax="982">
      <contour>
        <pt x="270" y="802" on="1"/>
        <pt x="141" y="982" on="1"/>
        <pt x="260" y="982" on="1"/>
        <pt x="331" y="878" on="1"/>
        <pt x="401" y="982" on="1"/>
        <pt x="520" y="982" on="1"/>
        <pt x="391" y="802" on="1"/>
      </contour>
      <contour>
        <pt x="72" y="0" on="1"/>
        <pt x="72" y="740" on="1"/>
        <pt x="582" y="740" on="1"/>
        <pt x="582" y="606" on="1"/>
        <pt x="226" y="606" on="1"/>
        <pt x="226" y="440" on="1"/>
        <pt x="536" y="440" on="1"/>
        <pt x="536" y="311" on="1"/>
        <pt x="226" y="311" on="1"/>
        <pt x="226" y="134" on="1"/>
        <pt x="587" y="134" on="1"/>
        <pt x="587" y="0" on="1"/>
      </contour>
    </TTGlyph>
    <TTGlyph name="Ecircumflex" xMin="72" yMin="0" xMax="587" yMax="960">
      <contour>
        <pt x="142" y="806" on="1"/>
        <pt x="271" y="960" on="1"/>
        <pt x="392" y="960" on="1"/>
        <pt x="521" y="806" on="1"/>
        <pt x="402" y="806" on="1"/>
        <pt x="331" y="891" on="1"/>
        <pt x="261" y="806" on="1"/>
      </contour>
      <contour>
        <pt x="72" y="0" on="1"/>
        <pt x="72" y="740" on="1"/>
        <pt x="582" y="740" on="1"/>
        <pt x="582" y="606" on="1"/>
        <pt x="226" y="606" on="1"/>
        <pt x="226" y="440" on="1"/>
        <pt x="536" y="440" on="1"/>
        <pt x="536" y="311" on="1"/>
        <pt x="226" y="311" on="1"/>
        <pt x="226" y="134" on="1"/>
        <pt x="587" y="134" on="1"/>
        <pt x="587" y="0" on="1"/>
      </contour>
    </TTGlyph>
    <TTGlyph name="Edieresis" xMin="72" yMin="0" xMax="587" yMax="967">
      <contour>
        <pt x="444" y="801" on="1"/>
        <pt x="406" y="801" on="0"/>
        <pt x="358" y="850" on="0"/>
        <pt x="358" y="884" on="1"/>
        <pt x="358" y="919" on="0"/>
        <pt x="406" y="967" on="0"/>
        <pt x="444" y="967" on="1"/>
        <pt x="481" y="967" on="0"/>
        <pt x="530" y="919" on="0"/>
        <pt x="530" y="884" on="1"/>
        <pt x="530" y="850" on="0"/>
        <pt x="481" y="801" on="0"/>
      </contour>
      <contour>
        <pt x="217" y="801" on="1"/>
        <pt x="179" y="801" on="0"/>
        <pt x="131" y="850" on="0"/>
        <pt x="131" y="884" on="1"/>
        <pt x="131" y="919" on="0"/>
        <pt x="179" y="967" on="0"/>
        <pt x="217" y="967" on="1"/>
        <pt x="254" y="967" on="0"/>
        <pt x="303" y="919" on="0"/>
        <pt x="303" y="884" on="1"/>
        <pt x="303" y="850" on="0"/>
        <pt x="254" y="801" on="0"/>
      </contour>
      <contour>
        <pt x="72" y="0" on="1"/>
        <pt x="72" y="740" on="1"/>
        <pt x="582" y="740" on="1"/>
        <pt x="582" y="606" on="1"/>
        <pt x="226" y="606" on="1"/>
        <pt x="226" y="440" on="1"/>
        <pt x="536" y="440" on="1"/>
        <pt x="536" y="311" on="1"/>
        <pt x="226" y="311" on="1"/>
        <pt x="226" y="134" on="1"/>
        <pt x="587" y="134" on="1"/>
        <pt x="587" y="0" on="1"/>
      </contour>
    </TTGlyph>
    <TTGlyph name="Edotaccent" xMin="72" yMin="0" xMax="587" yMax="986">
      <contour>
        <pt x="331" y="812" on="1"/>
        <pt x="291" y="812" on="0"/>
        <pt x="241" y="863" on="0"/>
        <pt x="241" y="899" on="1"/>
        <pt x="241" y="935" on="0"/>
        <pt x="291" y="986" on="0"/>
        <pt x="331" y="986" on="1"/>
        <pt x="370" y="986" on="0"/>
        <pt x="421" y="935" on="0"/>
        <pt x="421" y="899" on="1"/>
        <pt x="421" y="863" on="0"/>
        <pt x="370" y="812" on="0"/>
      </contour>
      <contour>
        <pt x="72" y="0" on="1"/>
        <pt x="72" y="740" on="1"/>
        <pt x="582" y="740" on="1"/>
        <pt x="582" y="606" on="1"/>
        <pt x="226" y="606" on="1"/>
        <pt x="226" y="440" on="1"/>
        <pt x="536" y="440" on="1"/>
        <pt x="536" y="311" on="1"/>
        <pt x="226" y="311" on="1"/>
        <pt x="226" y="134" on="1"/>
        <pt x="587" y="134" on="1"/>
        <pt x="587" y="0" on="1"/>
      </contour>
    </TTGlyph>
    <TTGlyph name="Egrave" xMin="72" yMin="0" xMax="587" yMax="994">
      <contour>
        <pt x="277" y="813" on="1"/>
        <pt x="168" y="994" on="1"/>
        <pt x="309" y="994" on="1"/>
        <pt x="390" y="814" on="1"/>
      </contour>
      <contour>
        <pt x="72" y="0" on="1"/>
        <pt x="72" y="740" on="1"/>
        <pt x="582" y="740" on="1"/>
        <pt x="582" y="606" on="1"/>
        <pt x="226" y="606" on="1"/>
        <pt x="226" y="440" on="1"/>
        <pt x="536" y="440" on="1"/>
        <pt x="536" y="311" on="1"/>
        <pt x="226" y="311" on="1"/>
        <pt x="226" y="134" on="1"/>
        <pt x="587" y="134" on="1"/>
        <pt x="587" y="0" on="1"/>
      </contour>
    </TTGlyph>
    <TTGlyph name="Emacron" xMin="72" yMin="0" xMax="587" yMax="915">
      <contour>
        <pt x="168" y="825" on="1"/>
        <pt x="168" y="915" on="1"/>
        <pt x="494" y="915" on="1"/>
        <pt x="494" y="825" on="1"/>
      </contour>
      <contour>
        <pt x="72" y="0" on="1"/>
        <pt x="72" y="740" on="1"/>
        <pt x="582" y="740" on="1"/>
        <pt x="582" y="606" on="1"/>
        <pt x="226" y="606" on="1"/>
        <pt x="226" y="440" on="1"/>
        <pt x="536" y="440" on="1"/>
        <pt x="536" y="311" on="1"/>
        <pt x="226" y="311" on="1"/>
        <pt x="226" y="134" on="1"/>
        <pt x="587" y="134" on="1"/>
        <pt x="587" y="0" on="1"/>
      </contour>
    </TTGlyph>
    <TTGlyph name="Eogonek" xMin="72" yMin="-184" xMax="624" yMax="740">
      <contour>
        <pt x="72" y="0" on="1"/>
        <pt x="72" y="740" on="1"/>
        <pt x="582" y="740" on="1"/>
        <pt x="582" y="606" on="1"/>
        <pt x="226" y="606" on="1"/>
        <pt x="226" y="440" on="1"/>
        <pt x="536" y="440" on="1"/>
        <pt x="536" y="311" on="1"/>
        <pt x="226" y="311" on="1"/>
        <pt x="226" y="134" on="1"/>
        <pt x="587" y="134" on="1"/>
        <pt x="587" y="0" on="1"/>
        <pt x="587" y="0" on="0"/>
        <pt x="561" y="-13" on="0"/>
        <pt x="536" y="-39" on="0"/>
        <pt x="536" y="-58" on="1"/>
        <pt x="536" y="-73" on="0"/>
        <pt x="561" y="-96" on="0"/>
        <pt x="590" y="-96" on="1"/>
        <pt x="602" y="-96" on="0"/>
        <pt x="624" y="-93" on="0"/>
        <pt x="624" y="-93" on="1"/>
        <pt x="624" y="-179" on="1"/>
        <pt x="624" y="-179" on="0"/>
        <pt x="591" y="-184" on="0"/>
        <pt x="566" y="-184" on="1"/>
        <pt x="493" y="-184" on="0"/>
        <pt x="426" y="-125" on="0"/>
        <pt x="426" y="-84" on="1"/>
        <pt x="426" y="-54" on="0"/>
        <pt x="455" y="-13" on="0"/>
        <pt x="474" y="0" on="1"/>
      </contour>
    </TTGlyph>
    <TTGlyph name="Eth" xMin="19" yMin="0" xMax="744" yMax="740">
      <contour>
        <pt x="102" y="0" on="1"/>
        <pt x="102" y="308" on="1"/>
        <pt x="19" y="308" on="1"/>
        <pt x="19" y="432" on="1"/>
        <pt x="102" y="432" on="1"/>
        <pt x="102" y="740" on="1"/>
        <pt x="381" y="740" on="1"/>
        <pt x="472" y="740" on="0"/>
        <pt x="608" y="677" on="0"/>
        <pt x="699" y="571" on="0"/>
        <pt x="744" y="439" on="0"/>
        <pt x="744" y="370" on="1"/>
        <pt x="744" y="301" on="0"/>
        <pt x="699" y="169" on="0"/>
        <pt x="608" y="63" on="0"/>
        <pt x="472" y="0" on="0"/>
        <pt x="381" y="0" on="1"/>
      </contour>
      <contour>
        <pt x="395" y="308" on="1"/>
        <pt x="256" y="308" on="1"/>
        <pt x="256" y="137" on="1"/>
        <pt x="374" y="137" on="1"/>
        <pt x="447" y="137" on="0"/>
        <pt x="543" y="205" on="0"/>
        <pt x="589" y="313" on="0"/>
        <pt x="589" y="371" on="1"/>
        <pt x="589" y="429" on="0"/>
        <pt x="543" y="536" on="0"/>
        <pt x="447" y="605" on="0"/>
        <pt x="374" y="605" on="1"/>
        <pt x="256" y="605" on="1"/>
        <pt x="256" y="432" on="1"/>
        <pt x="395" y="432" on="1"/>
      </contour>
    </TTGlyph>
    <TTGlyph name="Euro" xMin="28" yMin="-10" xMax="648" yMax="750">
      <contour>
        <pt x="28" y="266" on="1"/>
        <pt x="28" y="343" on="1"/>
        <pt x="107" y="343" on="1"/>
        <pt x="106" y="356" on="0"/>
        <pt x="106" y="370" on="1"/>
        <pt x="106" y="383" on="0"/>
        <pt x="107" y="396" on="1"/>
        <pt x="28" y="396" on="1"/>
        <pt x="28" y="473" on="1"/>
        <pt x="119" y="473" on="1"/>
        <pt x="137" y="548" on="0"/>
        <pt x="233" y="674" on="0"/>
        <pt x="388" y="750" on="0"/>
        <pt x="497" y="750" on="1"/>
        <pt x="533" y="750" on="0"/>
        <pt x="603" y="742" on="0"/>
        <pt x="648" y="733" on="0"/>
        <pt x="648" y="733" on="1"/>
        <pt x="648" y="599" on="1"/>
        <pt x="648" y="599" on="0"/>
        <pt x="604" y="608" on="0"/>
        <pt x="538" y="616" on="0"/>
        <pt x="506" y="616" on="1"/>
        <pt x="416" y="616" on="0"/>
        <pt x="305" y="533" on="0"/>
        <pt x="282" y="473" on="1"/>
        <pt x="542" y="473" on="1"/>
        <pt x="542" y="396" on="1"/>
        <pt x="264" y="396" on="1"/>
        <pt x="263" y="383" on="0"/>
        <pt x="263" y="370" on="1"/>
        <pt x="263" y="356" on="0"/>
        <pt x="264" y="343" on="1"/>
        <pt x="542" y="343" on="1"/>
        <pt x="542" y="266" on="1"/>
        <pt x="282" y="266" on="1"/>
        <pt x="306" y="206" on="0"/>
        <pt x="416" y="123" on="0"/>
        <pt x="506" y="123" on="1"/>
        <pt x="538" y="123" on="0"/>
        <pt x="604" y="132" on="0"/>
        <pt x="648" y="141" on="0"/>
        <pt x="648" y="141" on="1"/>
        <pt x="648" y="6" on="1"/>
        <pt x="648" y="6" on="0"/>
        <pt x="603" y="-2" on="0"/>
        <pt x="533" y="-10" on="0"/>
        <pt x="497" y="-10" on="1"/>
        <pt x="388" y="-10" on="0"/>
        <pt x="233" y="66" on="0"/>
        <pt x="138" y="192" on="0"/>
        <pt x="119" y="266" on="1"/>
      </contour>
    </TTGlyph>
    <TTGlyph name="F" xMin="68" yMin="0" xMax="585" yMax="740">
      <contour>
        <pt x="68" y="0" on="1"/>
        <pt x="68" y="740" on="1"/>
        <pt x="585" y="740" on="1"/>
        <pt x="585" y="606" on="1"/>
        <pt x="222" y="606" on="1"/>
        <pt x="222" y="412" on="1"/>
        <pt x="539" y="412" on="1"/>
        <pt x="539" y="283" on="1"/>
        <pt x="222" y="283" on="1"/>
        <pt x="222" y="0" on="1"/>
      </contour>
    </TTGlyph>
    <TTGlyph name="G" xMin="40" yMin="-10" xMax="752" yMax="750">
      <contour>
        <pt x="412" y="-10" on="1"/>
        <pt x="319" y="-10" on="0"/>
        <pt x="179" y="54" on="0"/>
        <pt x="86" y="163" on="0"/>
        <pt x="40" y="298" on="0"/>
        <pt x="40" y="369" on="1"/>
        <pt x="40" y="440" on="0"/>
        <pt x="87" y="576" on="0"/>
        <pt x="180" y="685" on="0"/>
        <pt x="322" y="750" on="0"/>
        <pt x="417" y="750" on="1"/>
        <pt x="491" y="750" on="0"/>
        <pt x="598" y="713" on="0"/>
        <pt x="670" y="654" on="0"/>
        <pt x="713" y="588" on="0"/>
        <pt x="736" y="529" on="0"/>
        <pt x="743" y="492" on="0"/>
        <pt x="743" y="492" on="1"/>
        <pt x="590" y="492" on="1"/>
        <pt x="590" y="492" on="0"/>
        <pt x="578" y="528" on="0"/>
        <pt x="542" y="577" on="0"/>
        <pt x="473" y="614" on="0"/>
        <pt x="417" y="614" on="1"/>
        <pt x="344" y="614" on="0"/>
        <pt x="247" y="543" on="0"/>
        <pt x="198" y="432" on="0"/>
        <pt x="198" y="372" on="1"/>
        <pt x="198" y="310" on="0"/>
        <pt x="248" y="197" on="0"/>
        <pt x="345" y="126" on="0"/>
        <pt x="418" y="126" on="1"/>
        <pt x="498" y="126" on="0"/>
        <pt x="591" y="208" on="0"/>
        <pt x="600" y="278" on="1"/>
        <pt x="408" y="278" on="1"/>
        <pt x="408" y="399" on="1"/>
        <pt x="752" y="399" on="1"/>
        <pt x="752" y="342" on="1"/>
        <pt x="752" y="226" on="0"/>
        <pt x="663" y="69" on="0"/>
        <pt x="510" y="-10" on="0"/>
      </contour>
    </TTGlyph>
    <TTGlyph name="Gbreve" xMin="40" yMin="-10" xMax="752" yMax="980">
      <contour>
        <pt x="417" y="807" on="1"/>
        <pt x="361" y="807" on="0"/>
        <pt x="292" y="842" on="0"/>
        <pt x="254" y="893" on="0"/>
        <pt x="239" y="945" on="0"/>
        <pt x="236" y="980" on="0"/>
        <pt x="236" y="980" on="1"/>
        <pt x="336" y="980" on="1"/>
        <pt x="336" y="980" on="0"/>
        <pt x="339" y="954" on="0"/>
        <pt x="354" y="921" on="0"/>
        <pt x="387" y="896" on="0"/>
        <pt x="417" y="896" on="1"/>
        <pt x="446" y="896" on="0"/>
        <pt x="480" y="921" on="0"/>
        <pt x="494" y="954" on="0"/>
        <pt x="497" y="980" on="0"/>
        <pt x="497" y="980" on="1"/>
        <pt x="597" y="980" on="1"/>
        <pt x="597" y="980" on="0"/>
        <pt x="594" y="945" on="0"/>
        <pt x="579" y="893" on="0"/>
        <pt x="541" y="842" on="0"/>
        <pt x="472" y="807" on="0"/>
      </contour>
      <contour>
        <pt x="412" y="-10" on="1"/>
        <pt x="319" y="-10" on="0"/>
        <pt x="179" y="54" on="0"/>
        <pt x="86" y="163" on="0"/>
        <pt x="40" y="298" on="0"/>
        <pt x="40" y="369" on="1"/>
        <pt x="40" y="440" on="0"/>
        <pt x="87" y="576" on="0"/>
        <pt x="180" y="685" on="0"/>
        <pt x="322" y="750" on="0"/>
        <pt x="417" y="750" on="1"/>
        <pt x="491" y="750" on="0"/>
        <pt x="598" y="713" on="0"/>
        <pt x="670" y="654" on="0"/>
        <pt x="713" y="588" on="0"/>
        <pt x="736" y="529" on="0"/>
        <pt x="743" y="492" on="0"/>
        <pt x="743" y="492" on="1"/>
        <pt x="590" y="492" on="1"/>
        <pt x="590" y="492" on="0"/>
        <pt x="578" y="528" on="0"/>
        <pt x="542" y="577" on="0"/>
        <pt x="473" y="614" on="0"/>
        <pt x="417" y="614" on="1"/>
        <pt x="344" y="614" on="0"/>
        <pt x="247" y="543" on="0"/>
        <pt x="198" y="432" on="0"/>
        <pt x="198" y="372" on="1"/>
        <pt x="198" y="310" on="0"/>
        <pt x="248" y="197" on="0"/>
        <pt x="345" y="126" on="0"/>
        <pt x="418" y="126" on="1"/>
        <pt x="498" y="126" on="0"/>
        <pt x="591" y="208" on="0"/>
        <pt x="600" y="278" on="1"/>
        <pt x="408" y="278" on="1"/>
        <pt x="408" y="399" on="1"/>
        <pt x="752" y="399" on="1"/>
        <pt x="752" y="342" on="1"/>
        <pt x="752" y="226" on="0"/>
        <pt x="663" y="69" on="0"/>
        <pt x="510" y="-10" on="0"/>
      </contour>
    </TTGlyph>
    <TTGlyph name="Gcaron" xMin="40" yMin="-10" xMax="752" yMax="982">
      <contour>
        <pt x="356" y="802" on="1"/>
        <pt x="227" y="982" on="1"/>
        <pt x="346" y="982" on="1"/>
        <pt x="417" y="878" on="1"/>
        <pt x="487" y="982" on="1"/>
        <pt x="606" y="982" on="1"/>
        <pt x="477" y="802" on="1"/>
      </contour>
      <contour>
        <pt x="412" y="-10" on="1"/>
        <pt x="319" y="-10" on="0"/>
        <pt x="179" y="54" on="0"/>
        <pt x="86" y="163" on="0"/>
        <pt x="40" y="298" on="0"/>
        <pt x="40" y="369" on="1"/>
        <pt x="40" y="440" on="0"/>
        <pt x="87" y="576" on="0"/>
        <pt x="180" y="685" on="0"/>
        <pt x="322" y="750" on="0"/>
        <pt x="417" y="750" on="1"/>
        <pt x="491" y="750" on="0"/>
        <pt x="598" y="713" on="0"/>
        <pt x="670" y="654" on="0"/>
        <pt x="713" y="588" on="0"/>
        <pt x="736" y="529" on="0"/>
        <pt x="743" y="492" on="0"/>
        <pt x="743" y="492" on="1"/>
        <pt x="590" y="492" on="1"/>
        <pt x="590" y="492" on="0"/>
        <pt x="578" y="528" on="0"/>
        <pt x="542" y="577" on="0"/>
        <pt x="473" y="614" on="0"/>
        <pt x="417" y="614" on="1"/>
        <pt x="344" y="614" on="0"/>
        <pt x="247" y="543" on="0"/>
        <pt x="198" y="432" on="0"/>
        <pt x="198" y="372" on="1"/>
        <pt x="198" y="310" on="0"/>
        <pt x="248" y="197" on="0"/>
        <pt x="345" y="126" on="0"/>
        <pt x="418" y="126" on="1"/>
        <pt x="498" y="126" on="0"/>
        <pt x="591" y="208" on="0"/>
        <pt x="600" y="278" on="1"/>
        <pt x="408" y="278" on="1"/>
        <pt x="408" y="399" on="1"/>
        <pt x="752" y="399" on="1"/>
        <pt x="752" y="342" on="1"/>
        <pt x="752" y="226" on="0"/>
        <pt x="663" y="69" on="0"/>
        <pt x="510" y="-10" on="0"/>
      </contour>
    </TTGlyph>
    <TTGlyph name="Gdotaccent" xMin="40" yMin="-10" xMax="752" yMax="986">
      <contour>
        <pt x="417" y="812" on="1"/>
        <pt x="377" y="812" on="0"/>
        <pt x="327" y="863" on="0"/>
        <pt x="327" y="899" on="1"/>
        <pt x="327" y="935" on="0"/>
        <pt x="377" y="986" on="0"/>
        <pt x="417" y="986" on="1"/>
        <pt x="456" y="986" on="0"/>
        <pt x="507" y="935" on="0"/>
        <pt x="507" y="899" on="1"/>
        <pt x="507" y="863" on="0"/>
        <pt x="456" y="812" on="0"/>
      </contour>
      <contour>
        <pt x="412" y="-10" on="1"/>
        <pt x="319" y="-10" on="0"/>
        <pt x="179" y="54" on="0"/>
        <pt x="86" y="163" on="0"/>
        <pt x="40" y="298" on="0"/>
        <pt x="40" y="369" on="1"/>
        <pt x="40" y="440" on="0"/>
        <pt x="87" y="576" on="0"/>
        <pt x="180" y="685" on="0"/>
        <pt x="322" y="750" on="0"/>
        <pt x="417" y="750" on="1"/>
        <pt x="491" y="750" on="0"/>
        <pt x="598" y="713" on="0"/>
        <pt x="670" y="654" on="0"/>
        <pt x="713" y="588" on="0"/>
        <pt x="736" y="529" on="0"/>
        <pt x="743" y="492" on="0"/>
        <pt x="743" y="492" on="1"/>
        <pt x="590" y="492" on="1"/>
        <pt x="590" y="492" on="0"/>
        <pt x="578" y="528" on="0"/>
        <pt x="542" y="577" on="0"/>
        <pt x="473" y="614" on="0"/>
        <pt x="417" y="614" on="1"/>
        <pt x="344" y="614" on="0"/>
        <pt x="247" y="543" on="0"/>
        <pt x="198" y="432" on="0"/>
        <pt x="198" y="372" on="1"/>
        <pt x="198" y="310" on="0"/>
        <pt x="248" y="197" on="0"/>
        <pt x="345" y="126" on="0"/>
        <pt x="418" y="126" on="1"/>
        <pt x="498" y="126" on="0"/>
        <pt x="591" y="208" on="0"/>
        <pt x="600" y="278" on="1"/>
        <pt x="408" y="278" on="1"/>
        <pt x="408" y="399" on="1"/>
        <pt x="752" y="399" on="1"/>
        <pt x="752" y="342" on="1"/>
        <pt x="752" y="226" on="0"/>
        <pt x="663" y="69" on="0"/>
        <pt x="510" y="-10" on="0"/>
      </contour>
    </TTGlyph>
    <TTGlyph name="H" xMin="68" yMin="0" xMax="664" yMax="740">
      <contour>
        <pt x="68" y="0" on="1"/>
        <pt x="68" y="740" on="1"/>
        <pt x="222" y="740" on="1"/>
        <pt x="222" y="445" on="1"/>
        <pt x="510" y="445" on="1"/>
        <pt x="510" y="740" on="1"/>
        <pt x="664" y="740" on="1"/>
        <pt x="664" y="0" on="1"/>
        <pt x="510" y="0" on="1"/>
        <pt x="510" y="311" on="1"/>
        <pt x="222" y="311" on="1"/>
        <pt x="222" y="0" on="1"/>
      </contour>
    </TTGlyph>
    <TTGlyph name="Hbar" xMin="18" yMin="0" xMax="767" yMax="740">
      <contour>
        <pt x="98" y="0" on="1"/>
        <pt x="98" y="548" on="1"/>
        <pt x="18" y="548" on="1"/>
        <pt x="18" y="662" on="1"/>
        <pt x="98" y="662" on="1"/>
        <pt x="98" y="740" on="1"/>
        <pt x="253" y="740" on="1"/>
        <pt x="253" y="662" on="1"/>
        <pt x="540" y="662" on="1"/>
        <pt x="540" y="740" on="1"/>
        <pt x="695" y="740" on="1"/>
        <pt x="695" y="662" on="1"/>
        <pt x="767" y="662" on="1"/>
        <pt x="767" y="548" on="1"/>
        <pt x="695" y="548" on="1"/>
        <pt x="695" y="0" on="1"/>
        <pt x="540" y="0" on="1"/>
        <pt x="540" y="311" on="1"/>
        <pt x="253" y="311" on="1"/>
        <pt x="253" y="0" on="1"/>
      </contour>
      <contour>
        <pt x="253" y="445" on="1"/>
        <pt x="540" y="445" on="1"/>
        <pt x="540" y="548" on="1"/>
        <pt x="253" y="548" on="1"/>
      </contour>
    </TTGlyph>
    <TTGlyph name="I" xMin="68" yMin="0" xMax="222" yMax="740">
      <contour>
        <pt x="68" y="0" on="1"/>
        <pt x="68" y="740" on="1"/>
        <pt x="222" y="740" on="1"/>
        <pt x="222" y="0" on="1"/>
      </contour>
    </TTGlyph>
    <TTGlyph name="Iacute" xMin="72" yMin="0" xMax="316" yMax="994">
      <contour>
        <pt x="206" y="813" on="1"/>
        <pt x="94" y="814" on="1"/>
        <pt x="174" y="994" on="1"/>
        <pt x="316" y="994" on="1"/>
      </contour>
      <contour>
        <pt x="72" y="0" on="1"/>
        <pt x="72" y="740" on="1"/>
        <pt x="226" y="740" on="1"/>
        <pt x="226" y="0" on="1"/>
      </contour>
    </TTGlyph>
    <TTGlyph name="Icircumflex" xMin="-40" yMin="0" xMax="339" yMax="986">
      <contour>
        <pt x="-40" y="806" on="1"/>
        <pt x="89" y="986" on="1"/>
        <pt x="210" y="986" on="1"/>
        <pt x="339" y="806" on="1"/>
        <pt x="220" y="806" on="1"/>
        <pt x="150" y="910" on="1"/>
        <pt x="79" y="806" on="1"/>
      </contour>
      <contour>
        <pt x="72" y="0" on="1"/>
        <pt x="72" y="740" on="1"/>
        <pt x="226" y="740" on="1"/>
        <pt x="226" y="0" on="1"/>
      </contour>
    </TTGlyph>
    <TTGlyph name="Idieresis" xMin="-51" yMin="0" xMax="348" yMax="967">
      <contour>
        <pt x="262" y="801" on="1"/>
        <pt x="224" y="801" on="0"/>
        <pt x="176" y="850" on="0"/>
        <pt x="176" y="884" on="1"/>
        <pt x="176" y="919" on="0"/>
        <pt x="224" y="967" on="0"/>
        <pt x="262" y="967" on="1"/>
        <pt x="299" y="967" on="0"/>
        <pt x="348" y="919" on="0"/>
        <pt x="348" y="884" on="1"/>
        <pt x="348" y="850" on="0"/>
        <pt x="299" y="801" on="0"/>
      </contour>
      <contour>
        <pt x="36" y="801" on="1"/>
        <pt x="-2" y="801" on="0"/>
        <pt x="-51" y="850" on="0"/>
        <pt x="-51" y="884" on="1"/>
        <pt x="-51" y="919" on="0"/>
        <pt x="-2" y="967" on="0"/>
        <pt x="36" y="967" on="1"/>
        <pt x="73" y="967" on="0"/>
        <pt x="122" y="919" on="0"/>
        <pt x="122" y="884" on="1"/>
        <pt x="122" y="850" on="0"/>
        <pt x="73" y="801" on="0"/>
      </contour>
      <contour>
        <pt x="72" y="0" on="1"/>
        <pt x="72" y="740" on="1"/>
        <pt x="226" y="740" on="1"/>
        <pt x="226" y="0" on="1"/>
      </contour>
    </TTGlyph>
    <TTGlyph name="Idotaccent" xMin="59" yMin="0" xMax="239" yMax="986">
      <contour>
        <pt x="149" y="812" on="1"/>
        <pt x="110" y="812" on="0"/>
        <pt x="59" y="863" on="0"/>
        <pt x="59" y="899" on="1"/>
        <pt x="59" y="935" on="0"/>
        <pt x="110" y="986" on="0"/>
        <pt x="149" y="986" on="1"/>
        <pt x="188" y="986" on="0"/>
        <pt x="239" y="935" on="0"/>
        <pt x="239" y="899" on="1"/>
        <pt x="239" y="863" on="0"/>
        <pt x="188" y="812" on="0"/>
      </contour>
      <contour>
        <pt x="72" y="0" on="1"/>
        <pt x="72" y="740" on="1"/>
        <pt x="226" y="740" on="1"/>
        <pt x="226" y="0" on="1"/>
      </contour>
    </TTGlyph>
    <TTGlyph name="Igrave" xMin="-14" yMin="0" xMax="226" yMax="994">
      <contour>
        <pt x="96" y="813" on="1"/>
        <pt x="-14" y="994" on="1"/>
        <pt x="127" y="994" on="1"/>
        <pt x="208" y="814" on="1"/>
      </contour>
      <contour>
        <pt x="72" y="0" on="1"/>
        <pt x="72" y="740" on="1"/>
        <pt x="226" y="740" on="1"/>
        <pt x="226" y="0" on="1"/>
      </contour>
    </TTGlyph>
    <TTGlyph name="Imacron" xMin="-14" yMin="0" xMax="312" yMax="915">
      <contour>
        <pt x="-14" y="825" on="1"/>
        <pt x="-14" y="915" on="1"/>
        <pt x="312" y="915" on="1"/>
        <pt x="312" y="825" on="1"/>
      </contour>
      <contour>
        <pt x="72" y="0" on="1"/>
        <pt x="72" y="740" on="1"/>
        <pt x="226" y="740" on="1"/>
        <pt x="226" y="0" on="1"/>
      </contour>
    </TTGlyph>
    <TTGlyph name="Iogonek" xMin="66" yMin="-184" xMax="263" yMax="740">
      <contour>
        <pt x="72" y="0" on="1"/>
        <pt x="72" y="740" on="1"/>
        <pt x="226" y="740" on="1"/>
        <pt x="226" y="0" on="1"/>
        <pt x="226" y="0" on="0"/>
        <pt x="201" y="-13" on="0"/>
        <pt x="175" y="-39" on="0"/>
        <pt x="175" y="-58" on="1"/>
        <pt x="175" y="-73" on="0"/>
        <pt x="201" y="-96" on="0"/>
        <pt x="229" y="-96" on="1"/>
        <pt x="242" y="-96" on="0"/>
        <pt x="263" y="-93" on="0"/>
        <pt x="263" y="-93" on="1"/>
        <pt x="263" y="-179" on="1"/>
        <pt x="263" y="-179" on="0"/>
        <pt x="230" y="-184" on="0"/>
        <pt x="206" y="-184" on="1"/>
        <pt x="132" y="-184" on="0"/>
        <pt x="66" y="-125" on="0"/>
        <pt x="66" y="-84" on="1"/>
        <pt x="66" y="-54" on="0"/>
        <pt x="95" y="-13" on="0"/>
        <pt x="114" y="0" on="1"/>
      </contour>
    </TTGlyph>
    <TTGlyph name="Itilde" xMin="-21" yMin="0" xMax="324" yMax="977">
      <contour>
        <pt x="223" y="824" on="1"/>
        <pt x="196" y="824" on="0"/>
        <pt x="157" y="843" on="0"/>
        <pt x="128" y="867" on="0"/>
        <pt x="102" y="886" on="0"/>
        <pt x="89" y="886" on="1"/>
        <pt x="73" y="886" on="0"/>
        <pt x="60" y="856" on="0"/>
        <pt x="60" y="830" on="1"/>
        <pt x="-21" y="830" on="1"/>
        <pt x="-21" y="863" on="0"/>
        <pt x="-5" y="931" on="0"/>
        <pt x="38" y="977" on="0"/>
        <pt x="80" y="977" on="1"/>
        <pt x="107" y="977" on="0"/>
        <pt x="147" y="958" on="0"/>
        <pt x="177" y="934" on="0"/>
        <pt x="202" y="916" on="0"/>
        <pt x="215" y="916" on="1"/>
        <pt x="242" y="916" on="0"/>
        <pt x="242" y="971" on="1"/>
        <pt x="324" y="971" on="1"/>
        <pt x="324" y="938" on="0"/>
        <pt x="308" y="870" on="0"/>
        <pt x="265" y="824" on="0"/>
      </contour>
      <contour>
        <pt x="72" y="0" on="1"/>
        <pt x="72" y="740" on="1"/>
        <pt x="226" y="740" on="1"/>
        <pt x="226" y="0" on="1"/>
      </contour>
    </TTGlyph>
    <TTGlyph name="J" xMin="40" yMin="-10" xMax="423" yMax="740">
      <contour>
        <pt x="147" y="-10" on="1"/>
        <pt x="104" y="-10" on="0"/>
        <pt x="40" y="-1" on="0"/>
        <pt x="40" y="-1" on="1"/>
        <pt x="40" y="128" on="1"/>
        <pt x="40" y="128" on="0"/>
        <pt x="90" y="123" on="0"/>
        <pt x="119" y="123" on="1"/>
        <pt x="188" y="123" on="0"/>
        <pt x="270" y="189" on="0"/>
        <pt x="270" y="274" on="1"/>
        <pt x="270" y="740" on="1"/>
        <pt x="423" y="740" on="1"/>
        <pt x="423" y="271" on="1"/>
        <pt x="423" y="192" on="0"/>
        <pt x="367" y="65" on="0"/>
        <pt x="246" y="-10" on="0"/>
      </contour>
    </TTGlyph>
    <TTGlyph name="K" xMin="68" yMin="0" xMax="688" yMax="740">
      <contour>
        <pt x="68" y="0" on="1"/>
        <pt x="68" y="740" on="1"/>
        <pt x="222" y="740" on="1"/>
        <pt x="222" y="427" on="1"/>
        <pt x="487" y="740" on="1"/>
        <pt x="677" y="740" on="1"/>
        <pt x="368" y="385" on="1"/>
        <pt x="688" y="0" on="1"/>
        <pt x="491" y="0" on="1"/>
        <pt x="222" y="329" on="1"/>
        <pt x="222" y="0" on="1"/>
      </contour>
    </TTGlyph>
    <TTGlyph name="L" xMin="68" yMin="0" xMax="584" yMax="740">
      <contour>
        <pt x="68" y="0" on="1"/>
        <pt x="68" y="740" on="1"/>
        <pt x="222" y="740" on="1"/>
        <pt x="222" y="134" on="1"/>
        <pt x="584" y="134" on="1"/>
        <pt x="584" y="0" on="1"/>
      </contour>
    </TTGlyph>
    <TTGlyph name="Lacute" xMin="72" yMin="0" xMax="588" yMax="994">
      <contour>
        <pt x="210" y="813" on="1"/>
        <pt x="97" y="814" on="1"/>
        <pt x="178" y="994" on="1"/>
        <pt x="319" y="994" on="1"/>
      </contour>
      <contour>
        <pt x="72" y="0" on="1"/>
        <pt x="72" y="740" on="1"/>
        <pt x="226" y="740" on="1"/>
        <pt x="226" y="134" on="1"/>
        <pt x="588" y="134" on="1"/>
        <pt x="588" y="0" on="1"/>
      </contour>
    </TTGlyph>
    <TTGlyph name="Lcaron" xMin="-37" yMin="0" xMax="588" yMax="982">
      <contour>
        <pt x="92" y="802" on="1"/>
        <pt x="-37" y="982" on="1"/>
        <pt x="82" y="982" on="1"/>
        <pt x="153" y="878" on="1"/>
        <pt x="223" y="982" on="1"/>
        <pt x="342" y="982" on="1"/>
        <pt x="213" y="802" on="1"/>
      </contour>
      <contour>
        <pt x="72" y="0" on="1"/>
        <pt x="72" y="740" on="1"/>
        <pt x="226" y="740" on="1"/>
        <pt x="226" y="134" on="1"/>
        <pt x="588" y="134" on="1"/>
        <pt x="588" y="0" on="1"/>
      </contour>
    </TTGlyph>
    <TTGlyph name="Lslash" xMin="-1" yMin="0" xMax="601" yMax="740">
      <contour>
        <pt x="85" y="0" on="1"/>
        <pt x="85" y="292" on="1"/>
        <pt x="-1" y="256" on="1"/>
        <pt x="-1" y="369" on="1"/>
        <pt x="85" y="405" on="1"/>
        <pt x="85" y="740" on="1"/>
        <pt x="239" y="740" on="1"/>
        <pt x="239" y="469" on="1"/>
        <pt x="377" y="527" on="1"/>
        <pt x="377" y="414" on="1"/>
        <pt x="239" y="356" on="1"/>
        <pt x="239" y="134" on="1"/>
        <pt x="601" y="134" on="1"/>
        <pt x="601" y="0" on="1"/>
      </contour>
    </TTGlyph>
    <TTGlyph name="M" xMin="68" yMin="0" xMax="820" yMax="740">
      <contour>
        <pt x="68" y="0" on="1"/>
        <pt x="68" y="740" on="1"/>
        <pt x="276" y="740" on="1"/>
        <pt x="445" y="359" on="1"/>
        <pt x="619" y="740" on="1"/>
        <pt x="820" y="740" on="1"/>
        <pt x="820" y="0" on="1"/>
        <pt x="668" y="0" on="1"/>
        <pt x="668" y="504" on="1"/>
        <pt x="516" y="173" on="1"/>
        <pt x="373" y="173" on="1"/>
        <pt x="220" y="506" on="1"/>
        <pt x="220" y="0" on="1"/>
      </contour>
    </TTGlyph>
    <TTGlyph name="N" xMin="68" yMin="0" xMax="681" yMax="740">
      <contour>
        <pt x="68" y="0" on="1"/>
        <pt x="68" y="740" on="1"/>
        <pt x="209" y="740" on="1"/>
        <pt x="528" y="268" on="1"/>
        <pt x="528" y="740" on="1"/>
        <pt x="681" y="740" on="1"/>
        <pt x="681" y="0" on="1"/>
        <pt x="538" y="0" on="1"/>
        <pt x="221" y="459" on="1"/>
        <pt x="221" y="0" on="1"/>
      </contour>
    </TTGlyph>
    <TTGlyph name="Nacute" xMin="72" yMin="0" xMax="685" yMax="994">
      <contour>
        <pt x="432" y="813" on="1"/>
        <pt x="320" y="814" on="1"/>
        <pt x="400" y="994" on="1"/>
        <pt x="542" y="994" on="1"/>
      </contour>
      <contour>
        <pt x="72" y="0" on="1"/>
        <pt x="72" y="740" on="1"/>
        <pt x="213" y="740" on="1"/>
        <pt x="532" y="268" on="1"/>
        <pt x="532" y="740" on="1"/>
        <pt x="685" y="740" on="1"/>
        <pt x="685" y="0" on="1"/>
        <pt x="542" y="0" on="1"/>
        <pt x="225" y="459" on="1"/>
        <pt x="225" y="0" on="1"/>
      </contour>
    </TTGlyph>
    <TTGlyph name="Ncaron" xMin="72" yMin="0" xMax="685" yMax="982">
      <contour>
        <pt x="315" y="802" on="1"/>
        <pt x="185" y="982" on="1"/>
        <pt x="304" y="982" on="1"/>
        <pt x="375" y="878" on="1"/>
        <pt x="446" y="982" on="1"/>
        <pt x="565" y="982" on="1"/>
        <pt x="435" y="802" on="1"/>
      </contour>
      <contour>
        <pt x="72" y="0" on="1"/>
        <pt x="72" y="740" on="1"/>
        <pt x="213" y="740" on="1"/>
        <pt x="532" y="268" on="1"/>
        <pt x="532" y="740" on="1"/>
        <pt x="685" y="740" on="1"/>
        <pt x="685" y="0" on="1"/>
        <pt x="542" y="0" on="1"/>
        <pt x="225" y="459" on="1"/>
        <pt x="225" y="0" on="1"/>
      </contour>
    </TTGlyph>
    <TTGlyph name="Ntilde" xMin="72" yMin="0" xMax="685" yMax="977">
      <contour>
        <pt x="449" y="824" on="1"/>
        <pt x="422" y="824" on="0"/>
        <pt x="383" y="843" on="0"/>
        <pt x="354" y="867" on="0"/>
        <pt x="328" y="886" on="0"/>
        <pt x="315" y="886" on="1"/>
        <pt x="299" y="886" on="0"/>
        <pt x="286" y="856" on="0"/>
        <pt x="286" y="830" on="1"/>
        <pt x="205" y="830" on="1"/>
        <pt x="205" y="863" on="0"/>
        <pt x="221" y="931" on="0"/>
        <pt x="264" y="977" on="0"/>
        <pt x="306" y="977" on="1"/>
        <pt x="333" y="977" on="0"/>
        <pt x="373" y="958" on="0"/>
        <pt x="403" y="934" on="0"/>
        <pt x="428" y="916" on="0"/>
        <pt x="441" y="916" on="1"/>
        <pt x="468" y="916" on="0"/>
        <pt x="468" y="971" on="1"/>
        <pt x="550" y="971" on="1"/>
        <pt x="550" y="938" on="0"/>
        <pt x="534" y="870" on="0"/>
        <pt x="490" y="824" on="0"/>
      </contour>
      <contour>
        <pt x="72" y="0" on="1"/>
        <pt x="72" y="740" on="1"/>
        <pt x="213" y="740" on="1"/>
        <pt x="532" y="268" on="1"/>
        <pt x="532" y="740" on="1"/>
        <pt x="685" y="740" on="1"/>
        <pt x="685" y="0" on="1"/>
        <pt x="542" y="0" on="1"/>
        <pt x="225" y="459" on="1"/>
        <pt x="225" y="0" on="1"/>
      </contour>
    </TTGlyph>
    <TTGlyph name="O" xMin="40" yMin="-10" xMax="788" yMax="750">
      <contour>
        <pt x="414" y="-10" on="1"/>
        <pt x="322" y="-10" on="0"/>
        <pt x="182" y="55" on="0"/>
        <pt x="87" y="164" on="0"/>
        <pt x="40" y="300" on="0"/>
        <pt x="40" y="371" on="1"/>
        <pt x="40" y="442" on="0"/>
        <pt x="87" y="577" on="0"/>
        <pt x="182" y="685" on="0"/>
        <pt x="322" y="750" on="0"/>
        <pt x="414" y="750" on="1"/>
        <pt x="507" y="750" on="0"/>
        <pt x="647" y="685" on="0"/>
        <pt x="741" y="577" on="0"/>
        <pt x="788" y="442" on="0"/>
        <pt x="788" y="371" on="1"/>
        <pt x="788" y="300" on="0"/>
        <pt x="741" y="164" on="0"/>
        <pt x="647" y="55" on="0"/>
        <pt x="507" y="-10" on="0"/>
      </contour>
      <contour>
        <pt x="414" y="129" on="1"/>
        <pt x="484" y="129" on="0"/>
        <pt x="580" y="199" on="0"/>
        <pt x="628" y="310" on="0"/>
        <pt x="628" y="371" on="1"/>
        <pt x="628" y="432" on="0"/>
        <pt x="580" y="542" on="0"/>
        <pt x="484" y="612" on="0"/>
        <pt x="414" y="612" on="1"/>
        <pt x="344" y="612" on="0"/>
        <pt x="249" y="542" on="0"/>
        <pt x="201" y="432" on="0"/>
        <pt x="201" y="371" on="1"/>
        <pt x="201" y="310" on="0"/>
        <pt x="249" y="199" on="0"/>
        <pt x="344" y="129" on="0"/>
      </contour>
    </TTGlyph>
    <TTGlyph name="OE" xMin="40" yMin="0" xMax="983" yMax="740">
      <contour>
        <pt x="978" y="740" on="1"/>
        <pt x="978" y="606" on="1"/>
        <pt x="627" y="606" on="1"/>
        <pt x="627" y="440" on="1"/>
        <pt x="933" y="440" on="1"/>
        <pt x="933" y="311" on="1"/>
        <pt x="627" y="311" on="1"/>
        <pt x="627" y="134" on="1"/>
        <pt x="983" y="134" on="1"/>
        <pt x="983" y="0" on="1"/>
        <pt x="429" y="0" on="1"/>
        <pt x="328" y="0" on="0"/>
        <pt x="182" y="63" on="0"/>
        <pt x="86" y="169" on="0"/>
        <pt x="40" y="301" on="0"/>
        <pt x="40" y="370" on="1"/>
        <pt x="40" y="439" on="0"/>
        <pt x="86" y="571" on="0"/>
        <pt x="182" y="677" on="0"/>
        <pt x="328" y="740" on="0"/>
        <pt x="429" y="740" on="1"/>
      </contour>
      <contour>
        <pt x="195" y="369" on="1"/>
        <pt x="195" y="311" on="0"/>
        <pt x="243" y="204" on="0"/>
        <pt x="347" y="135" on="0"/>
        <pt x="430" y="135" on="1"/>
        <pt x="472" y="135" on="1"/>
        <pt x="472" y="603" on="1"/>
        <pt x="430" y="603" on="1"/>
        <pt x="347" y="603" on="0"/>
        <pt x="243" y="535" on="0"/>
        <pt x="195" y="427" on="0"/>
      </contour>
    </TTGlyph>
    <TTGlyph name="Oacute" xMin="40" yMin="-10" xMax="788" yMax="1004">
      <contour>
        <pt x="471" y="823" on="1"/>
        <pt x="359" y="824" on="1"/>
        <pt x="439" y="1004" on="1"/>
        <pt x="581" y="1004" on="1"/>
      </contour>
      <contour>
        <pt x="414" y="-10" on="1"/>
        <pt x="322" y="-10" on="0"/>
        <pt x="182" y="55" on="0"/>
        <pt x="87" y="164" on="0"/>
        <pt x="40" y="300" on="0"/>
        <pt x="40" y="371" on="1"/>
        <pt x="40" y="442" on="0"/>
        <pt x="87" y="577" on="0"/>
        <pt x="182" y="685" on="0"/>
        <pt x="322" y="750" on="0"/>
        <pt x="414" y="750" on="1"/>
        <pt x="507" y="750" on="0"/>
        <pt x="647" y="685" on="0"/>
        <pt x="741" y="577" on="0"/>
        <pt x="788" y="442" on="0"/>
        <pt x="788" y="371" on="1"/>
        <pt x="788" y="300" on="0"/>
        <pt x="741" y="164" on="0"/>
        <pt x="647" y="55" on="0"/>
        <pt x="507" y="-10" on="0"/>
      </contour>
      <contour>
        <pt x="414" y="129" on="1"/>
        <pt x="484" y="129" on="0"/>
        <pt x="580" y="199" on="0"/>
        <pt x="628" y="310" on="0"/>
        <pt x="628" y="371" on="1"/>
        <pt x="628" y="432" on="0"/>
        <pt x="580" y="542" on="0"/>
        <pt x="484" y="612" on="0"/>
        <pt x="414" y="612" on="1"/>
        <pt x="344" y="612" on="0"/>
        <pt x="249" y="542" on="0"/>
        <pt x="201" y="432" on="0"/>
        <pt x="201" y="371" on="1"/>
        <pt x="201" y="310" on="0"/>
        <pt x="249" y="199" on="0"/>
        <pt x="344" y="129" on="0"/>
      </contour>
    </TTGlyph>
    <TTGlyph name="Ocircumflex" xMin="40" yMin="-10" xMax="788" yMax="970">
      <contour>
        <pt x="225" y="816" on="1"/>
        <pt x="354" y="970" on="1"/>
        <pt x="475" y="970" on="1"/>
        <pt x="604" y="816" on="1"/>
        <pt x="485" y="816" on="1"/>
        <pt x="415" y="901" on="1"/>
        <pt x="344" y="816" on="1"/>
      </contour>
      <contour>
        <pt x="414" y="-10" on="1"/>
        <pt x="322" y="-10" on="0"/>
        <pt x="182" y="55" on="0"/>
        <pt x="87" y="164" on="0"/>
        <pt x="40" y="300" on="0"/>
        <pt x="40" y="371" on="1"/>
        <pt x="40" y="442" on="0"/>
        <pt x="87" y="577" on="0"/>
        <pt x="182" y="685" on="0"/>
        <pt x="322" y="750" on="0"/>
        <pt x="414" y="750" on="1"/>
        <pt x="507" y="750" on="0"/>
        <pt x="647" y="685" on="0"/>
        <pt x="741" y="577" on="0"/>
        <pt x="788" y="442" on="0"/>
        <pt x="788" y="371" on="1"/>
        <pt x="788" y="300" on="0"/>
        <pt x="741" y="164" on="0"/>
        <pt x="647" y="55" on="0"/>
        <pt x="507" y="-10" on="0"/>
      </contour>
      <contour>
        <pt x="414" y="129" on="1"/>
        <pt x="484" y="129" on="0"/>
        <pt x="580" y="199" on="0"/>
        <pt x="628" y="310" on="0"/>
        <pt x="628" y="371" on="1"/>
        <pt x="628" y="432" on="0"/>
        <pt x="580" y="542" on="0"/>
        <pt x="484" y="612" on="0"/>
        <pt x="414" y="612" on="1"/>
        <pt x="344" y="612" on="0"/>
        <pt x="249" y="542" on="0"/>
        <pt x="201" y="432" on="0"/>
        <pt x="201" y="371" on="1"/>
        <pt x="201" y="310" on="0"/>
        <pt x="249" y="199" on="0"/>
        <pt x="344" y="129" on="0"/>
      </contour>
    </TTGlyph>
    <TTGlyph name="Odieresis" xMin="40" yMin="-10" xMax="788" yMax="977">
      <contour>
        <pt x="527" y="811" on="1"/>
        <pt x="489" y="811" on="0"/>
        <pt x="441" y="860" on="0"/>
        <pt x="441" y="894" on="1"/>
        <pt x="441" y="929" on="0"/>
        <pt x="489" y="977" on="0"/>
        <pt x="527" y="977" on="1"/>
        <pt x="564" y="977" on="0"/>
        <pt x="613" y="929" on="0"/>
        <pt x="613" y="894" on="1"/>
        <pt x="613" y="860" on="0"/>
        <pt x="564" y="811" on="0"/>
      </contour>
      <contour>
        <pt x="301" y="811" on="1"/>
        <pt x="263" y="811" on="0"/>
        <pt x="214" y="860" on="0"/>
        <pt x="214" y="894" on="1"/>
        <pt x="214" y="929" on="0"/>
        <pt x="263" y="977" on="0"/>
        <pt x="301" y="977" on="1"/>
        <pt x="338" y="977" on="0"/>
        <pt x="387" y="929" on="0"/>
        <pt x="387" y="894" on="1"/>
        <pt x="387" y="860" on="0"/>
        <pt x="338" y="811" on="0"/>
      </contour>
      <contour>
        <pt x="414" y="-10" on="1"/>
        <pt x="322" y="-10" on="0"/>
        <pt x="182" y="55" on="0"/>
        <pt x="87" y="164" on="0"/>
        <pt x="40" y="300" on="0"/>
        <pt x="40" y="371" on="1"/>
        <pt x="40" y="442" on="0"/>
        <pt x="87" y="577" on="0"/>
        <pt x="182" y="685" on="0"/>
        <pt x="322" y="750" on="0"/>
        <pt x="414" y="750" on="1"/>
        <pt x="507" y="750" on="0"/>
        <pt x="647" y="685" on="0"/>
        <pt x="741" y="577" on="0"/>
        <pt x="788" y="442" on="0"/>
        <pt x="788" y="371" on="1"/>
        <pt x="788" y="300" on="0"/>
        <pt x="741" y="164" on="0"/>
        <pt x="647" y="55" on="0"/>
        <pt x="507" y="-10" on="0"/>
      </contour>
      <contour>
        <pt x="414" y="129" on="1"/>
        <pt x="484" y="129" on="0"/>
        <pt x="580" y="199" on="0"/>
        <pt x="628" y="310" on="0"/>
        <pt x="628" y="371" on="1"/>
        <pt x="628" y="432" on="0"/>
        <pt x="580" y="542" on="0"/>
        <pt x="484" y="612" on="0"/>
        <pt x="414" y="612" on="1"/>
        <pt x="344" y="612" on="0"/>
        <pt x="249" y="542" on="0"/>
        <pt x="201" y="432" on="0"/>
        <pt x="201" y="371" on="1"/>
        <pt x="201" y="310" on="0"/>
        <pt x="249" y="199" on="0"/>
        <pt x="344" y="129" on="0"/>
      </contour>
    </TTGlyph>
    <TTGlyph name="Ograve" xMin="40" yMin="-10" xMax="788" yMax="1004">
      <contour>
        <pt x="361" y="823" on="1"/>
        <pt x="251" y="1004" on="1"/>
        <pt x="392" y="1004" on="1"/>
        <pt x="473" y="824" on="1"/>
      </contour>
      <contour>
        <pt x="414" y="-10" on="1"/>
        <pt x="322" y="-10" on="0"/>
        <pt x="182" y="55" on="0"/>
        <pt x="87" y="164" on="0"/>
        <pt x="40" y="300" on="0"/>
        <pt x="40" y="371" on="1"/>
        <pt x="40" y="442" on="0"/>
        <pt x="87" y="577" on="0"/>
        <pt x="182" y="685" on="0"/>
        <pt x="322" y="750" on="0"/>
        <pt x="414" y="750" on="1"/>
        <pt x="507" y="750" on="0"/>
        <pt x="647" y="685" on="0"/>
        <pt x="741" y="577" on="0"/>
        <pt x="788" y="442" on="0"/>
        <pt x="788" y="371" on="1"/>
        <pt x="788" y="300" on="0"/>
        <pt x="741" y="164" on="0"/>
        <pt x="647" y="55" on="0"/>
        <pt x="507" y="-10" on="0"/>
      </contour>
      <contour>
        <pt x="414" y="129" on="1"/>
        <pt x="484" y="129" on="0"/>
        <pt x="580" y="199" on="0"/>
        <pt x="628" y="310" on="0"/>
        <pt x="628" y="371" on="1"/>
        <pt x="628" y="432" on="0"/>
        <pt x="580" y="542" on="0"/>
        <pt x="484" y="612" on="0"/>
        <pt x="414" y="612" on="1"/>
        <pt x="344" y="612" on="0"/>
        <pt x="249" y="542" on="0"/>
        <pt x="201" y="432" on="0"/>
        <pt x="201" y="371" on="1"/>
        <pt x="201" y="310" on="0"/>
        <pt x="249" y="199" on="0"/>
        <pt x="344" y="129" on="0"/>
      </contour>
    </TTGlyph>
    <TTGlyph name="Ohorn" xMin="40" yMin="-10" xMax="788" yMax="861">
      <contour>
        <pt x="414" y="-10" on="1"/>
        <pt x="322" y="-10" on="0"/>
        <pt x="182" y="55" on="0"/>
        <pt x="87" y="164" on="0"/>
        <pt x="40" y="300" on="0"/>
        <pt x="40" y="371" on="1"/>
        <pt x="40" y="442" on="0"/>
        <pt x="87" y="577" on="0"/>
        <pt x="182" y="685" on="0"/>
        <pt x="322" y="750" on="0"/>
        <pt x="414" y="750" on="1"/>
        <pt x="426" y="750" on="0"/>
        <pt x="438" y="749" on="1"/>
        <pt x="577" y="749" on="1"/>
        <pt x="630" y="749" on="0"/>
        <pt x="630" y="803" on="1"/>
        <pt x="630" y="861" on="1"/>
        <pt x="760" y="861" on="1"/>
        <pt x="760" y="789" on="1"/>
        <pt x="760" y="733" on="0"/>
        <pt x="712" y="671" on="0"/>
        <pt x="659" y="666" on="1"/>
        <pt x="723" y="611" on="0"/>
        <pt x="788" y="454" on="0"/>
        <pt x="788" y="371" on="1"/>
        <pt x="788" y="300" on="0"/>
        <pt x="741" y="164" on="0"/>
        <pt x="647" y="55" on="0"/>
        <pt x="507" y="-10" on="0"/>
      </contour>
      <contour>
        <pt x="414" y="129" on="1"/>
        <pt x="484" y="129" on="0"/>
        <pt x="580" y="199" on="0"/>
        <pt x="628" y="310" on="0"/>
        <pt x="628" y="371" on="1"/>
        <pt x="628" y="432" on="0"/>
        <pt x="580" y="542" on="0"/>
        <pt x="484" y="612" on="0"/>
        <pt x="414" y="612" on="1"/>
        <pt x="344" y="612" on="0"/>
        <pt x="249" y="542" on="0"/>
        <pt x="201" y="432" on="0"/>
        <pt x="201" y="371" on="1"/>
        <pt x="201" y="310" on="0"/>
        <pt x="249" y="199" on="0"/>
        <pt x="344" y="129" on="0"/>
      </contour>
    </TTGlyph>
    <TTGlyph name="Ohungarumlaut" xMin="40" yMin="-10" xMax="788" yMax="1004">
      <contour>
        <pt x="373" y="823" on="1"/>
        <pt x="267" y="824" on="1"/>
        <pt x="313" y="1004" on="1"/>
        <pt x="448" y="1004" on="1"/>
      </contour>
      <contour>
        <pt x="558" y="823" on="1"/>
        <pt x="452" y="824" on="1"/>
        <pt x="499" y="1004" on="1"/>
        <pt x="634" y="1004" on="1"/>
      </contour>
      <contour>
        <pt x="414" y="-10" on="1"/>
        <pt x="322" y="-10" on="0"/>
        <pt x="182" y="55" on="0"/>
        <pt x="87" y="164" on="0"/>
        <pt x="40" y="300" on="0"/>
        <pt x="40" y="371" on="1"/>
        <pt x="40" y="442" on="0"/>
        <pt x="87" y="577" on="0"/>
        <pt x="182" y="685" on="0"/>
        <pt x="322" y="750" on="0"/>
        <pt x="414" y="750" on="1"/>
        <pt x="507" y="750" on="0"/>
        <pt x="647" y="685" on="0"/>
        <pt x="741" y="577" on="0"/>
        <pt x="788" y="442" on="0"/>
        <pt x="788" y="371" on="1"/>
        <pt x="788" y="300" on="0"/>
        <pt x="741" y="164" on="0"/>
        <pt x="647" y="55" on="0"/>
        <pt x="507" y="-10" on="0"/>
      </contour>
      <contour>
        <pt x="414" y="129" on="1"/>
        <pt x="484" y="129" on="0"/>
        <pt x="580" y="199" on="0"/>
        <pt x="628" y="310" on="0"/>
        <pt x="628" y="371" on="1"/>
        <pt x="628" y="432" on="0"/>
        <pt x="580" y="542" on="0"/>
        <pt x="484" y="612" on="0"/>
        <pt x="414" y="612" on="1"/>
        <pt x="344" y="612" on="0"/>
        <pt x="249" y="542" on="0"/>
        <pt x="201" y="432" on="0"/>
        <pt x="201" y="371" on="1"/>
        <pt x="201" y="310" on="0"/>
        <pt x="249" y="199" on="0"/>
        <pt x="344" y="129" on="0"/>
      </contour>
    </TTGlyph>
    <TTGlyph name="Omacron" xMin="40" yMin="-10" xMax="788" yMax="925">
      <contour>
        <pt x="251" y="835" on="1"/>
        <pt x="251" y="925" on="1"/>
        <pt x="577" y="925" on="1"/>
        <pt x="577" y="835" on="1"/>
      </contour>
      <contour>
        <pt x="414" y="-10" on="1"/>
        <pt x="322" y="-10" on="0"/>
        <pt x="182" y="55" on="0"/>
        <pt x="87" y="164" on="0"/>
        <pt x="40" y="300" on="0"/>
        <pt x="40" y="371" on="1"/>
        <pt x="40" y="442" on="0"/>
        <pt x="87" y="577" on="0"/>
        <pt x="182" y="685" on="0"/>
        <pt x="322" y="750" on="0"/>
        <pt x="414" y="750" on="1"/>
        <pt x="507" y="750" on="0"/>
        <pt x="647" y="685" on="0"/>
        <pt x="741" y="577" on="0"/>
        <pt x="788" y="442" on="0"/>
        <pt x="788" y="371" on="1"/>
        <pt x="788" y="300" on="0"/>
        <pt x="741" y="164" on="0"/>
        <pt x="647" y="55" on="0"/>
        <pt x="507" y="-10" on="0"/>
      </contour>
      <contour>
        <pt x="414" y="129" on="1"/>
        <pt x="484" y="129" on="0"/>
        <pt x="580" y="199" on="0"/>
        <pt x="628" y="310" on="0"/>
        <pt x="628" y="371" on="1"/>
        <pt x="628" y="432" on="0"/>
        <pt x="580" y="542" on="0"/>
        <pt x="484" y="612" on="0"/>
        <pt x="414" y="612" on="1"/>
        <pt x="344" y="612" on="0"/>
        <pt x="249" y="542" on="0"/>
        <pt x="201" y="432" on="0"/>
        <pt x="201" y="371" on="1"/>
        <pt x="201" y="310" on="0"/>
        <pt x="249" y="199" on="0"/>
        <pt x="344" y="129" on="0"/>
      </contour>
    </TTGlyph>
    <TTGlyph name="Oslash" xMin="40" yMin="-24" xMax="788" yMax="763">
      <contour>
        <pt x="89" y="-24" on="1"/>
        <pt x="158" y="84" on="1"/>
        <pt x="100" y="139" on="0"/>
        <pt x="40" y="291" on="0"/>
        <pt x="40" y="371" on="1"/>
        <pt x="40" y="442" on="0"/>
        <pt x="87" y="577" on="0"/>
        <pt x="182" y="685" on="0"/>
        <pt x="322" y="750" on="0"/>
        <pt x="414" y="750" on="1"/>
        <pt x="457" y="750" on="0"/>
        <pt x="533" y="735" on="0"/>
        <pt x="567" y="722" on="1"/>
        <pt x="593" y="763" on="1"/>
        <pt x="738" y="763" on="1"/>
        <pt x="670" y="656" on="1"/>
        <pt x="729" y="601" on="0"/>
        <pt x="788" y="450" on="0"/>
        <pt x="788" y="371" on="1"/>
        <pt x="788" y="300" on="0"/>
        <pt x="741" y="164" on="0"/>
        <pt x="647" y="55" on="0"/>
        <pt x="507" y="-10" on="0"/>
        <pt x="414" y="-10" on="1"/>
        <pt x="371" y="-10" on="0"/>
        <pt x="295" y="5" on="0"/>
        <pt x="262" y="18" on="1"/>
        <pt x="234" y="-24" on="1"/>
      </contour>
      <contour>
        <pt x="201" y="371" on="1"/>
        <pt x="201" y="330" on="0"/>
        <pt x="223" y="251" on="0"/>
        <pt x="244" y="218" on="1"/>
        <pt x="488" y="599" on="1"/>
        <pt x="454" y="612" on="0"/>
        <pt x="414" y="612" on="1"/>
        <pt x="344" y="612" on="0"/>
        <pt x="249" y="542" on="0"/>
        <pt x="201" y="432" on="0"/>
      </contour>
      <contour>
        <pt x="414" y="129" on="1"/>
        <pt x="484" y="129" on="0"/>
        <pt x="580" y="199" on="0"/>
        <pt x="628" y="310" on="0"/>
        <pt x="628" y="371" on="1"/>
        <pt x="628" y="412" on="0"/>
        <pt x="606" y="490" on="0"/>
        <pt x="584" y="523" on="1"/>
        <pt x="340" y="142" on="1"/>
        <pt x="375" y="129" on="0"/>
      </contour>
    </TTGlyph>
    <TTGlyph name="Otilde" xMin="40" yMin="-10" xMax="788" yMax="987">
      <contour>
        <pt x="488" y="834" on="1"/>
        <pt x="461" y="834" on="0"/>
        <pt x="422" y="853" on="0"/>
        <pt x="393" y="877" on="0"/>
        <pt x="367" y="896" on="0"/>
        <pt x="354" y="896" on="1"/>
        <pt x="338" y="896" on="0"/>
        <pt x="325" y="866" on="0"/>
        <pt x="325" y="840" on="1"/>
        <pt x="244" y="840" on="1"/>
        <pt x="244" y="873" on="0"/>
        <pt x="260" y="941" on="0"/>
        <pt x="303" y="987" on="0"/>
        <pt x="345" y="987" on="1"/>
        <pt x="372" y="987" on="0"/>
        <pt x="412" y="968" on="0"/>
        <pt x="442" y="944" on="0"/>
        <pt x="467" y="926" on="0"/>
        <pt x="480" y="926" on="1"/>
        <pt x="507" y="926" on="0"/>
        <pt x="507" y="981" on="1"/>
        <pt x="589" y="981" on="1"/>
        <pt x="589" y="948" on="0"/>
        <pt x="573" y="880" on="0"/>
        <pt x="529" y="834" on="0"/>
      </contour>
      <contour>
        <pt x="414" y="-10" on="1"/>
        <pt x="322" y="-10" on="0"/>
        <pt x="182" y="55" on="0"/>
        <pt x="87" y="164" on="0"/>
        <pt x="40" y="300" on="0"/>
        <pt x="40" y="371" on="1"/>
        <pt x="40" y="442" on="0"/>
        <pt x="87" y="577" on="0"/>
        <pt x="182" y="685" on="0"/>
        <pt x="322" y="750" on="0"/>
        <pt x="414" y="750" on="1"/>
        <pt x="507" y="750" on="0"/>
        <pt x="647" y="685" on="0"/>
        <pt x="741" y="577" on="0"/>
        <pt x="788" y="442" on="0"/>
        <pt x="788" y="371" on="1"/>
        <pt x="788" y="300" on="0"/>
        <pt x="741" y="164" on="0"/>
        <pt x="647" y="55" on="0"/>
        <pt x="507" y="-10" on="0"/>
      </contour>
      <contour>
        <pt x="414" y="129" on="1"/>
        <pt x="484" y="129" on="0"/>
        <pt x="580" y="199" on="0"/>
        <pt x="628" y="310" on="0"/>
        <pt x="628" y="371" on="1"/>
        <pt x="628" y="432" on="0"/>
        <pt x="580" y="542" on="0"/>
        <pt x="484" y="612" on="0"/>
        <pt x="414" y="612" on="1"/>
        <pt x="344" y="612" on="0"/>
        <pt x="249" y="542" on="0"/>
        <pt x="201" y="432" on="0"/>
        <pt x="201" y="371" on="1"/>
        <pt x="201" y="310" on="0"/>
        <pt x="249" y="199" on="0"/>
        <pt x="344" y="129" on="0"/>
      </contour>
    </TTGlyph>
    <TTGlyph name="P" xMin="68" yMin="0" xMax="646" yMax="740">
      <contour>
        <pt x="68" y="0" on="1"/>
        <pt x="68" y="740" on="1"/>
        <pt x="373" y="740" on="1"/>
        <pt x="464" y="740" on="0"/>
        <pt x="585" y="668" on="0"/>
        <pt x="646" y="555" on="0"/>
        <pt x="646" y="494" on="1"/>
        <pt x="646" y="431" on="0"/>
        <pt x="585" y="318" on="0"/>
        <pt x="464" y="246" on="0"/>
        <pt x="373" y="246" on="1"/>
        <pt x="222" y="246" on="1"/>
        <pt x="222" y="0" on="1"/>
      </contour>
      <contour>
        <pt x="373" y="605" on="1"/>
        <pt x="222" y="605" on="1"/>
        <pt x="222" y="380" on="1"/>
        <pt x="373" y="380" on="1"/>
        <pt x="412" y="380" on="0"/>
        <pt x="464" y="413" on="0"/>
        <pt x="491" y="464" on="0"/>
        <pt x="491" y="493" on="1"/>
        <pt x="491" y="521" on="0"/>
        <pt x="464" y="573" on="0"/>
        <pt x="412" y="605" on="0"/>
      </contour>
    </TTGlyph>
    <TTGlyph name="Q" xMin="40" yMin="-10" xMax="802" yMax="750">
      <contour>
        <pt x="414" y="-10" on="1"/>
        <pt x="322" y="-10" on="0"/>
        <pt x="182" y="55" on="0"/>
        <pt x="87" y="164" on="0"/>
        <pt x="40" y="300" on="0"/>
        <pt x="40" y="371" on="1"/>
        <pt x="40" y="442" on="0"/>
        <pt x="87" y="577" on="0"/>
        <pt x="182" y="685" on="0"/>
        <pt x="322" y="750" on="0"/>
        <pt x="414" y="750" on="1"/>
        <pt x="507" y="750" on="0"/>
        <pt x="647" y="685" on="0"/>
        <pt x="741" y="577" on="0"/>
        <pt x="788" y="442" on="0"/>
        <pt x="788" y="371" on="1"/>
        <pt x="788" y="302" on="0"/>
        <pt x="744" y="168" on="0"/>
        <pt x="699" y="115" on="1"/>
        <pt x="802" y="0" on="1"/>
        <pt x="638" y="0" on="1"/>
        <pt x="605" y="37" on="1"/>
        <pt x="565" y="15" on="0"/>
        <pt x="470" y="-10" on="0"/>
      </contour>
      <contour>
        <pt x="414" y="129" on="1"/>
        <pt x="463" y="129" on="0"/>
        <pt x="503" y="148" on="1"/>
        <pt x="390" y="272" on="1"/>
        <pt x="486" y="352" on="1"/>
        <pt x="593" y="233" on="1"/>
        <pt x="628" y="294" on="0"/>
        <pt x="628" y="371" on="1"/>
        <pt x="628" y="432" on="0"/>
        <pt x="580" y="542" on="0"/>
        <pt x="484" y="612" on="0"/>
        <pt x="414" y="612" on="1"/>
        <pt x="344" y="612" on="0"/>
        <pt x="249" y="542" on="0"/>
        <pt x="201" y="432" on="0"/>
        <pt x="201" y="371" on="1"/>
        <pt x="201" y="310" on="0"/>
        <pt x="249" y="199" on="0"/>
        <pt x="344" y="129" on="0"/>
      </contour>
    </TTGlyph>
    <TTGlyph name="R" xMin="68" yMin="0" xMax="649" yMax="740">
      <contour>
        <pt x="68" y="0" on="1"/>
        <pt x="68" y="740" on="1"/>
        <pt x="368" y="740" on="1"/>
        <pt x="450" y="740" on="0"/>
        <pt x="567" y="682" on="0"/>
        <pt x="630" y="580" on="0"/>
        <pt x="630" y="513" on="1"/>
        <pt x="630" y="440" on="0"/>
        <pt x="556" y="331" on="0"/>
        <pt x="488" y="306" on="1"/>
        <pt x="649" y="0" on="1"/>
        <pt x="478" y="0" on="1"/>
        <pt x="331" y="285" on="1"/>
        <pt x="222" y="285" on="1"/>
        <pt x="222" y="0" on="1"/>
      </contour>
      <contour>
        <pt x="366" y="607" on="1"/>
        <pt x="222" y="607" on="1"/>
        <pt x="222" y="411" on="1"/>
        <pt x="366" y="411" on="1"/>
        <pt x="417" y="411" on="0"/>
        <pt x="475" y="467" on="0"/>
        <pt x="475" y="508" on="1"/>
        <pt x="475" y="550" on="0"/>
        <pt x="417" y="607" on="0"/>
      </contour>
    </TTGlyph>
    <TTGlyph name="Racute" xMin="72" yMin="0" xMax="653" yMax="994">
      <contour>
        <pt x="346" y="813" on="1"/>
        <pt x="234" y="814" on="1"/>
        <pt x="314" y="994" on="1"/>
        <pt x="455" y="994" on="1"/>
      </contour>
      <contour>
        <pt x="72" y="0" on="1"/>
        <pt x="72" y="740" on="1"/>
        <pt x="372" y="740" on="1"/>
        <pt x="454" y="740" on="0"/>
        <pt x="571" y="682" on="0"/>
        <pt x="634" y="580" on="0"/>
        <pt x="634" y="513" on="1"/>
        <pt x="634" y="440" on="0"/>
        <pt x="560" y="331" on="0"/>
        <pt x="492" y="306" on="1"/>
        <pt x="653" y="0" on="1"/>
        <pt x="482" y="0" on="1"/>
        <pt x="335" y="285" on="1"/>
        <pt x="226" y="285" on="1"/>
        <pt x="226" y="0" on="1"/>
      </contour>
      <contour>
        <pt x="370" y="607" on="1"/>
        <pt x="226" y="607" on="1"/>
        <pt x="226" y="411" on="1"/>
        <pt x="370" y="411" on="1"/>
        <pt x="421" y="411" on="0"/>
        <pt x="479" y="467" on="0"/>
        <pt x="479" y="508" on="1"/>
        <pt x="479" y="550" on="0"/>
        <pt x="421" y="607" on="0"/>
      </contour>
    </TTGlyph>
    <TTGlyph name="Rcaron" xMin="72" yMin="0" xMax="653" yMax="982">
      <contour>
        <pt x="229" y="802" on="1"/>
        <pt x="99" y="982" on="1"/>
        <pt x="218" y="982" on="1"/>
        <pt x="289" y="878" on="1"/>
        <pt x="360" y="982" on="1"/>
        <pt x="479" y="982" on="1"/>
        <pt x="349" y="802" on="1"/>
      </contour>
      <contour>
        <pt x="72" y="0" on="1"/>
        <pt x="72" y="740" on="1"/>
        <pt x="372" y="740" on="1"/>
        <pt x="454" y="740" on="0"/>
        <pt x="571" y="682" on="0"/>
        <pt x="634" y="580" on="0"/>
        <pt x="634" y="513" on="1"/>
        <pt x="634" y="440" on="0"/>
        <pt x="560" y="331" on="0"/>
        <pt x="492" y="306" on="1"/>
        <pt x="653" y="0" on="1"/>
        <pt x="482" y="0" on="1"/>
        <pt x="335" y="285" on="1"/>
        <pt x="226" y="285" on="1"/>
        <pt x="226" y="0" on="1"/>
      </contour>
      <contour>
        <pt x="370" y="607" on="1"/>
        <pt x="226" y="607" on="1"/>
        <pt x="226" y="411" on="1"/>
        <pt x="370" y="411" on="1"/>
        <pt x="421" y="411" on="0"/>
        <pt x="479" y="467" on="0"/>
        <pt x="479" y="508" on="1"/>
        <pt x="479" y="550" on="0"/>
        <pt x="421" y="607" on="0"/>
      </contour>
    </TTGlyph>
    <TTGlyph name="S" xMin="40" yMin="-10" xMax="631" yMax="750">
      <contour>
        <pt x="344" y="-10" on="1"/>
        <pt x="272" y="-10" on="0"/>
        <pt x="171" y="25" on="0"/>
        <pt x="104" y="80" on="0"/>
        <pt x="64" y="141" on="0"/>
        <pt x="45" y="196" on="0"/>
        <pt x="40" y="231" on="0"/>
        <pt x="40" y="231" on="1"/>
        <pt x="196" y="231" on="1"/>
        <pt x="196" y="231" on="0"/>
        <pt x="205" y="197" on="0"/>
        <pt x="235" y="152" on="0"/>
        <pt x="297" y="119" on="0"/>
        <pt x="350" y="119" on="1"/>
        <pt x="415" y="119" on="0"/>
        <pt x="477" y="174" on="0"/>
        <pt x="477" y="212" on="1"/>
        <pt x="477" y="246" on="0"/>
        <pt x="430" y="286" on="0"/>
        <pt x="381" y="296" on="1"/>
        <pt x="282" y="315" on="1"/>
        <pt x="222" y="326" on="0"/>
        <pt x="119" y="374" on="0"/>
        <pt x="55" y="459" on="0"/>
        <pt x="55" y="526" on="1"/>
        <pt x="55" y="594" on="0"/>
        <pt x="123" y="695" on="0"/>
        <pt x="246" y="750" on="0"/>
        <pt x="329" y="750" on="1"/>
        <pt x="407" y="750" on="0"/>
        <pt x="510" y="705" on="0"/>
        <pt x="571" y="640" on="0"/>
        <pt x="600" y="574" on="0"/>
        <pt x="609" y="530" on="0"/>
        <pt x="609" y="530" on="1"/>
        <pt x="457" y="530" on="1"/>
        <pt x="457" y="530" on="0"/>
        <pt x="450" y="558" on="0"/>
        <pt x="424" y="594" on="0"/>
        <pt x="371" y="622" on="0"/>
        <pt x="325" y="622" on="1"/>
        <pt x="262" y="622" on="0"/>
        <pt x="206" y="567" on="0"/>
        <pt x="206" y="535" on="1"/>
        <pt x="206" y="502" on="0"/>
        <pt x="262" y="466" on="0"/>
        <pt x="307" y="457" on="1"/>
        <pt x="412" y="436" on="1"/>
        <pt x="472" y="425" on="0"/>
        <pt x="572" y="373" on="0"/>
        <pt x="631" y="286" on="0"/>
        <pt x="631" y="222" on="1"/>
        <pt x="631" y="156" on="0"/>
        <pt x="565" y="51" on="0"/>
        <pt x="437" y="-10" on="0"/>
      </contour>
    </TTGlyph>
    <TTGlyph name="Sacute" xMin="40" yMin="-10" xMax="631" yMax="994">
      <contour>
        <pt x="390" y="813" on="1"/>
        <pt x="278" y="814" on="1"/>
        <pt x="359" y="994" on="1"/>
        <pt x="500" y="994" on="1"/>
      </contour>
      <contour>
        <pt x="344" y="-10" on="1"/>
        <pt x="272" y="-10" on="0"/>
        <pt x="171" y="25" on="0"/>
        <pt x="104" y="80" on="0"/>
        <pt x="64" y="141" on="0"/>
        <pt x="45" y="196" on="0"/>
        <pt x="40" y="231" on="0"/>
        <pt x="40" y="231" on="1"/>
        <pt x="196" y="231" on="1"/>
        <pt x="196" y="231" on="0"/>
        <pt x="205" y="197" on="0"/>
        <pt x="235" y="152" on="0"/>
        <pt x="297" y="119" on="0"/>
        <pt x="350" y="119" on="1"/>
        <pt x="415" y="119" on="0"/>
        <pt x="477" y="174" on="0"/>
        <pt x="477" y="212" on="1"/>
        <pt x="477" y="246" on="0"/>
        <pt x="430" y="286" on="0"/>
        <pt x="381" y="296" on="1"/>
        <pt x="282" y="315" on="1"/>
        <pt x="222" y="326" on="0"/>
        <pt x="119" y="374" on="0"/>
        <pt x="55" y="459" on="0"/>
        <pt x="55" y="526" on="1"/>
        <pt x="55" y="594" on="0"/>
        <pt x="123" y="695" on="0"/>
        <pt x="246" y="750" on="0"/>
        <pt x="329" y="750" on="1"/>
        <pt x="407" y="750" on="0"/>
        <pt x="510" y="705" on="0"/>
        <pt x="571" y="640" on="0"/>
        <pt x="600" y="574" on="0"/>
        <pt x="609" y="530" on="0"/>
        <pt x="609" y="530" on="1"/>
        <pt x="457" y="530" on="1"/>
        <pt x="457" y="530" on="0"/>
        <pt x="450" y="558" on="0"/>
        <pt x="424" y="594" on="0"/>
        <pt x="371" y="622" on="0"/>
        <pt x="325" y="622" on="1"/>
        <pt x="262" y="622" on="0"/>
        <pt x="206" y="567" on="0"/>
        <pt x="206" y="535" on="1"/>
        <pt x="206" y="502" on="0"/>
        <pt x="262" y="466" on="0"/>
        <pt x="307" y="457" on="1"/>
        <pt x="412" y="436" on="1"/>
        <pt x="472" y="425" on="0"/>
        <pt x="572" y="373" on="0"/>
        <pt x="631" y="286" on="0"/>
        <pt x="631" y="222" on="1"/>
        <pt x="631" y="156" on="0"/>
        <pt x="565" y="51" on="0"/>
        <pt x="437" y="-10" on="0"/>
      </contour>
    </TTGlyph>
    <TTGlyph name="Scaron" xMin="40" yMin="-10" xMax="631" yMax="982">
      <contour>
        <pt x="273" y="802" on="1"/>
        <pt x="144" y="982" on="1"/>
        <pt x="263" y="982" on="1"/>
        <pt x="334" y="878" on="1"/>
        <pt x="404" y="982" on="1"/>
        <pt x="523" y="982" on="1"/>
        <pt x="394" y="802" on="1"/>
      </contour>
      <contour>
        <pt x="344" y="-10" on="1"/>
        <pt x="272" y="-10" on="0"/>
        <pt x="171" y="25" on="0"/>
        <pt x="104" y="80" on="0"/>
        <pt x="64" y="141" on="0"/>
        <pt x="45" y="196" on="0"/>
        <pt x="40" y="231" on="0"/>
        <pt x="40" y="231" on="1"/>
        <pt x="196" y="231" on="1"/>
        <pt x="196" y="231" on="0"/>
        <pt x="205" y="197" on="0"/>
        <pt x="235" y="152" on="0"/>
        <pt x="297" y="119" on="0"/>
        <pt x="350" y="119" on="1"/>
        <pt x="415" y="119" on="0"/>
        <pt x="477" y="174" on="0"/>
        <pt x="477" y="212" on="1"/>
        <pt x="477" y="246" on="0"/>
        <pt x="430" y="286" on="0"/>
        <pt x="381" y="296" on="1"/>
        <pt x="282" y="315" on="1"/>
        <pt x="222" y="326" on="0"/>
        <pt x="119" y="374" on="0"/>
        <pt x="55" y="459" on="0"/>
        <pt x="55" y="526" on="1"/>
        <pt x="55" y="594" on="0"/>
        <pt x="123" y="695" on="0"/>
        <pt x="246" y="750" on="0"/>
        <pt x="329" y="750" on="1"/>
        <pt x="407" y="750" on="0"/>
        <pt x="510" y="705" on="0"/>
        <pt x="571" y="640" on="0"/>
        <pt x="600" y="574" on="0"/>
        <pt x="609" y="530" on="0"/>
        <pt x="609" y="530" on="1"/>
        <pt x="457" y="530" on="1"/>
        <pt x="457" y="530" on="0"/>
        <pt x="450" y="558" on="0"/>
        <pt x="424" y="594" on="0"/>
        <pt x="371" y="622" on="0"/>
        <pt x="325" y="622" on="1"/>
        <pt x="262" y="622" on="0"/>
        <pt x="206" y="567" on="0"/>
        <pt x="206" y="535" on="1"/>
        <pt x="206" y="502" on="0"/>
        <pt x="262" y="466" on="0"/>
        <pt x="307" y="457" on="1"/>
        <pt x="412" y="436" on="1"/>
        <pt x="472" y="425" on="0"/>
        <pt x="572" y="373" on="0"/>
        <pt x="631" y="286" on="0"/>
        <pt x="631" y="222" on="1"/>
        <pt x="631" y="156" on="0"/>
        <pt x="565" y="51" on="0"/>
        <pt x="437" y="-10" on="0"/>
      </contour>
    </TTGlyph>
    <TTGlyph name="Scedilla" xMin="40" yMin="-261" xMax="631" yMax="750">
      <contour>
        <pt x="309" y="-261" on="1"/>
        <pt x="281" y="-261" on="0"/>
        <pt x="228" y="-254" on="0"/>
        <pt x="228" y="-254" on="1"/>
        <pt x="228" y="-176" on="1"/>
        <pt x="228" y="-176" on="0"/>
        <pt x="252" y="-179" on="0"/>
        <pt x="286" y="-182" on="0"/>
        <pt x="301" y="-182" on="1"/>
        <pt x="345" y="-182" on="0"/>
        <pt x="374" y="-154" on="0"/>
        <pt x="374" y="-140" on="1"/>
        <pt x="374" y="-126" on="0"/>
        <pt x="352" y="-108" on="0"/>
        <pt x="332" y="-108" on="1"/>
        <pt x="310" y="-108" on="0"/>
        <pt x="277" y="-127" on="0"/>
        <pt x="277" y="-127" on="1"/>
        <pt x="224" y="-73" on="1"/>
        <pt x="271" y="-4" on="1"/>
        <pt x="206" y="7" on="0"/>
        <pt x="121" y="61" on="0"/>
        <pt x="71" y="128" on="0"/>
        <pt x="47" y="190" on="0"/>
        <pt x="40" y="231" on="0"/>
        <pt x="40" y="231" on="1"/>
        <pt x="196" y="231" on="1"/>
        <pt x="196" y="231" on="0"/>
        <pt x="205" y="197" on="0"/>
        <pt x="235" y="152" on="0"/>
        <pt x="297" y="119" on="0"/>
        <pt x="350" y="119" on="1"/>
        <pt x="415" y="119" on="0"/>
        <pt x="477" y="174" on="0"/>
        <pt x="477" y="212" on="1"/>
        <pt x="477" y="246" on="0"/>
        <pt x="430" y="286" on="0"/>
        <pt x="381" y="296" on="1"/>
        <pt x="282" y="315" on="1"/>
        <pt x="222" y="326" on="0"/>
        <pt x="119" y="374" on="0"/>
        <pt x="55" y="459" on="0"/>
        <pt x="55" y="526" on="1"/>
        <pt x="55" y="594" on="0"/>
        <pt x="123" y="695" on="0"/>
        <pt x="246" y="750" on="0"/>
        <pt x="329" y="750" on="1"/>
        <pt x="407" y="750" on="0"/>
        <pt x="510" y="705" on="0"/>
        <pt x="571" y="640" on="0"/>
        <pt x="600" y="574" on="0"/>
        <pt x="609" y="530" on="0"/>
        <pt x="609" y="530" on="1"/>
        <pt x="457" y="530" on="1"/>
        <pt x="457" y="530" on="0"/>
        <pt x="450" y="558" on="0"/>
        <pt x="424" y="594" on="0"/>
        <pt x="371" y="622" on="0"/>
        <pt x="325" y="622" on="1"/>
        <pt x="262" y="622" on="0"/>
        <pt x="206" y="567" on="0"/>
        <pt x="206" y="535" on="1"/>
        <pt x="206" y="502" on="0"/>
        <pt x="262" y="466" on="0"/>
        <pt x="307" y="457" on="1"/>
        <pt x="412" y="436" on="1"/>
        <pt x="472" y="425" on="0"/>
        <pt x="572" y="373" on="0"/>
        <pt x="631" y="286" on="0"/>
        <pt x="631" y="222" on="1"/>
        <pt x="631" y="159" on="0"/>
        <pt x="569" y="56" on="0"/>
        <pt x="449" y="-7" on="0"/>
        <pt x="362" y="-10" on="1"/>
        <pt x="340" y="-40" on="1"/>
        <pt x="350" y="-38" on="0"/>
        <pt x="362" y="-38" on="1"/>
        <pt x="411" y="-38" on="0"/>
        <pt x="467" y="-98" on="0"/>
        <pt x="467" y="-141" on="1"/>
        <pt x="467" y="-172" on="0"/>
        <pt x="434" y="-227" on="0"/>
        <pt x="364" y="-261" on="0"/>
      </contour>
    </TTGlyph>
    <TTGlyph name="T" xMin="39" yMin="0" xMax="647" yMax="740">
      <contour>
        <pt x="266" y="0" on="1"/>
        <pt x="266" y="606" on="1"/>
        <pt x="39" y="606" on="1"/>
        <pt x="39" y="740" on="1"/>
        <pt x="647" y="740" on="1"/>
        <pt x="647" y="606" on="1"/>
        <pt x="420" y="606" on="1"/>
        <pt x="420" y="0" on="1"/>
      </contour>
    </TTGlyph>
    <TTGlyph name="Tbar" xMin="39" yMin="0" xMax="647" yMax="740">
      <contour>
        <pt x="266" y="0" on="1"/>
        <pt x="266" y="318" on="1"/>
        <pt x="78" y="318" on="1"/>
        <pt x="78" y="422" on="1"/>
        <pt x="266" y="422" on="1"/>
        <pt x="266" y="606" on="1"/>
        <pt x="39" y="606" on="1"/>
        <pt x="39" y="740" on="1"/>
        <pt x="647" y="740" on="1"/>
        <pt x="647" y="606" on="1"/>
        <pt x="420" y="606" on="1"/>
        <pt x="420" y="422" on="1"/>
        <pt x="608" y="422" on="1"/>
        <pt x="608" y="318" on="1"/>
        <pt x="420" y="318" on="1"/>
        <pt x="420" y="0" on="1"/>
      </contour>
    </TTGlyph>
    <TTGlyph name="Tcaron" xMin="39" yMin="0" xMax="647" yMax="981">
      <contour>
        <pt x="283" y="801" on="1"/>
        <pt x="153" y="981" on="1"/>
        <pt x="272" y="981" on="1"/>
        <pt x="343" y="877" on="1"/>
        <pt x="414" y="981" on="1"/>
        <pt x="533" y="981" on="1"/>
        <pt x="403" y="801" on="1"/>
      </contour>
      <contour>
        <pt x="266" y="0" on="1"/>
        <pt x="266" y="606" on="1"/>
        <pt x="39" y="606" on="1"/>
        <pt x="39" y="740" on="1"/>
        <pt x="647" y="740" on="1"/>
        <pt x="647" y="606" on="1"/>
        <pt x="420" y="606" on="1"/>
        <pt x="420" y="0" on="1"/>
      </contour>
    </TTGlyph>
    <TTGlyph name="Thorn" xMin="68" yMin="0" xMax="646" yMax="740">
      <contour>
        <pt x="68" y="0" on="1"/>
        <pt x="68" y="740" on="1"/>
        <pt x="222" y="740" on="1"/>
        <pt x="222" y="617" on="1"/>
        <pt x="373" y="617" on="1"/>
        <pt x="464" y="617" on="0"/>
        <pt x="585" y="545" on="0"/>
        <pt x="646" y="432" on="0"/>
        <pt x="646" y="370" on="1"/>
        <pt x="646" y="308" on="0"/>
        <pt x="585" y="195" on="0"/>
        <pt x="464" y="123" on="0"/>
        <pt x="373" y="123" on="1"/>
        <pt x="222" y="123" on="1"/>
        <pt x="222" y="0" on="1"/>
      </contour>
      <contour>
        <pt x="373" y="482" on="1"/>
        <pt x="222" y="482" on="1"/>
        <pt x="222" y="257" on="1"/>
        <pt x="373" y="257" on="1"/>
        <pt x="412" y="257" on="0"/>
        <pt x="464" y="290" on="0"/>
        <pt x="491" y="341" on="0"/>
        <pt x="491" y="369" on="1"/>
        <pt x="491" y="398" on="0"/>
        <pt x="464" y="449" on="0"/>
        <pt x="412" y="482" on="0"/>
      </contour>
    </TTGlyph>
    <TTGlyph name="U" xMin="68" yMin="-10" xMax="670" yMax="740">
      <contour>
        <pt x="369" y="-10" on="1"/>
        <pt x="288" y="-10" on="0"/>
        <pt x="151" y="52" on="0"/>
        <pt x="68" y="182" on="0"/>
        <pt x="68" y="286" on="1"/>
        <pt x="68" y="740" on="1"/>
        <pt x="222" y="740" on="1"/>
        <pt x="222" y="286" on="1"/>
        <pt x="222" y="222" on="0"/>
        <pt x="294" y="135" on="0"/>
        <pt x="369" y="135" on="1"/>
        <pt x="444" y="135" on="0"/>
        <pt x="515" y="222" on="0"/>
        <pt x="515" y="286" on="1"/>
        <pt x="515" y="740" on="1"/>
        <pt x="670" y="740" on="1"/>
        <pt x="670" y="286" on="1"/>
        <pt x="670" y="182" on="0"/>
        <pt x="587" y="52" on="0"/>
        <pt x="449" y="-10" on="0"/>
      </contour>
    </TTGlyph>
    <TTGlyph name="Uacute" xMin="72" yMin="-10" xMax="674" yMax="994">
      <contour>
        <pt x="428" y="813" on="1"/>
        <pt x="316" y="814" on="1"/>
        <pt x="396" y="994" on="1"/>
        <pt x="537" y="994" on="1"/>
      </contour>
      <contour>
        <pt x="373" y="-10" on="1"/>
        <pt x="292" y="-10" on="0"/>
        <pt x="155" y="52" on="0"/>
        <pt x="72" y="182" on="0"/>
        <pt x="72" y="286" on="1"/>
        <pt x="72" y="740" on="1"/>
        <pt x="226" y="740" on="1"/>
        <pt x="226" y="286" on="1"/>
        <pt x="226" y="222" on="0"/>
        <pt x="298" y="135" on="0"/>
        <pt x="373" y="135" on="1"/>
        <pt x="448" y="135" on="0"/>
        <pt x="519" y="222" on="0"/>
        <pt x="519" y="286" on="1"/>
        <pt x="519" y="740" on="1"/>
        <pt x="674" y="740" on="1"/>
        <pt x="674" y="286" on="1"/>
        <pt x="674" y="182" on="0"/>
        <pt x="591" y="52" on="0"/>
        <pt x="453" y="-10" on="0"/>
      </contour>
    </TTGlyph>
    <TTGlyph name="Ucircumflex" xMin="72" yMin="-10" xMax="674" yMax="986">
      <contour>
        <pt x="182" y="806" on="1"/>
        <pt x="311" y="986" on="1"/>
        <pt x="432" y="986" on="1"/>
        <pt x="561" y="806" on="1"/>
        <pt x="442" y="806" on="1"/>
        <pt x="372" y="910" on="1"/>
        <pt x="301" y="806" on="1"/>
      </contour>
      <contour>
        <pt x="373" y="-10" on="1"/>
        <pt x="292" y="-10" on="0"/>
        <pt x="155" y="52" on="0"/>
        <pt x="72" y="182" on="0"/>
        <pt x="72" y="286" on="1"/>
        <pt x="72" y="740" on="1"/>
        <pt x="226" y="740" on="1"/>
        <pt x="226" y="286" on="1"/>
        <pt x="226" y="222" on="0"/>
        <pt x="298" y="135" on="0"/>
        <pt x="373" y="135" on="1"/>
        <pt x="448" y="135" on="0"/>
        <pt x="519" y="222" on="0"/>
        <pt x="519" y="286" on="1"/>
        <pt x="519" y="740" on="1"/>
        <pt x="674" y="740" on="1"/>
        <pt x="674" y="286" on="1"/>
        <pt x="674" y="182" on="0"/>
        <pt x="591" y="52" on="0"/>
        <pt x="453" y="-10" on="0"/>
      </contour>
    </TTGlyph>
    <TTGlyph name="Udieresis" xMin="72" yMin="-10" xMax="674" yMax="967">
      <contour>
        <pt x="484" y="801" on="1"/>
        <pt x="446" y="801" on="0"/>
        <pt x="398" y="850" on="0"/>
        <pt x="398" y="884" on="1"/>
        <pt x="398" y="919" on="0"/>
        <pt x="446" y="967" on="0"/>
        <pt x="484" y="967" on="1"/>
        <pt x="521" y="967" on="0"/>
        <pt x="570" y="919" on="0"/>
        <pt x="570" y="884" on="1"/>
        <pt x="570" y="850" on="0"/>
        <pt x="521" y="801" on="0"/>
      </contour>
      <contour>
        <pt x="257" y="801" on="1"/>
        <pt x="220" y="801" on="0"/>
        <pt x="171" y="850" on="0"/>
        <pt x="171" y="884" on="1"/>
        <pt x="171" y="919" on="0"/>
        <pt x="220" y="967" on="0"/>
        <pt x="257" y="967" on="1"/>
        <pt x="294" y="967" on="0"/>
        <pt x="343" y="919" on="0"/>
        <pt x="343" y="884" on="1"/>
        <pt x="343" y="850" on="0"/>
        <pt x="294" y="801" on="0"/>
      </contour>
      <contour>
        <pt x="373" y="-10" on="1"/>
        <pt x="292" y="-10" on="0"/>
        <pt x="155" y="52" on="0"/>
        <pt x="72" y="182" on="0"/>
        <pt x="72" y="286" on="1"/>
        <pt x="72" y="740" on="1"/>
        <pt x="226" y="740" on="1"/>
        <pt x="226" y="286" on="1"/>
        <pt x="226" y="222" on="0"/>
        <pt x="298" y="135" on="0"/>
        <pt x="373" y="135" on="1"/>
        <pt x="448" y="135" on="0"/>
        <pt x="519" y="222" on="0"/>
        <pt x="519" y="286" on="1"/>
        <pt x="519" y="740" on="1"/>
        <pt x="674" y="740" on="1"/>
        <pt x="674" y="286" on="1"/>
        <pt x="674" y="182" on="0"/>
        <pt x="591" y="52" on="0"/>
        <pt x="453" y="-10" on="0"/>
      </contour>
    </TTGlyph>
    <TTGlyph name="Ugrave" xMin="72" yMin="-10" xMax="674" yMax="994">
      <contour>
        <pt x="318" y="813" on="1"/>
        <pt x="208" y="994" on="1"/>
        <pt x="349" y="994" on="1"/>
        <pt x="430" y="814" on="1"/>
      </contour>
      <contour>
        <pt x="373" y="-10" on="1"/>
        <pt x="292" y="-10" on="0"/>
        <pt x="155" y="52" on="0"/>
        <pt x="72" y="182" on="0"/>
        <pt x="72" y="286" on="1"/>
        <pt x="72" y="740" on="1"/>
        <pt x="226" y="740" on="1"/>
        <pt x="226" y="286" on="1"/>
        <pt x="226" y="222" on="0"/>
        <pt x="298" y="135" on="0"/>
        <pt x="373" y="135" on="1"/>
        <pt x="448" y="135" on="0"/>
        <pt x="519" y="222" on="0"/>
        <pt x="519" y="286" on="1"/>
        <pt x="519" y="740" on="1"/>
        <pt x="674" y="740" on="1"/>
        <pt x="674" y="286" on="1"/>
        <pt x="674" y="182" on="0"/>
        <pt x="591" y="52" on="0"/>
        <pt x="453" y="-10" on="0"/>
      </contour>
    </TTGlyph>
    <TTGlyph name="Uhorn" xMin="72" yMin="-10" xMax="790" yMax="851">
      <contour>
        <pt x="373" y="-10" on="1"/>
        <pt x="292" y="-10" on="0"/>
        <pt x="155" y="52" on="0"/>
        <pt x="72" y="182" on="0"/>
        <pt x="72" y="286" on="1"/>
        <pt x="72" y="740" on="1"/>
        <pt x="226" y="740" on="1"/>
        <pt x="226" y="286" on="1"/>
        <pt x="226" y="222" on="0"/>
        <pt x="298" y="135" on="0"/>
        <pt x="373" y="135" on="1"/>
        <pt x="448" y="135" on="0"/>
        <pt x="519" y="222" on="0"/>
        <pt x="519" y="286" on="1"/>
        <pt x="519" y="740" on="1"/>
        <pt x="626" y="740" on="1"/>
        <pt x="666" y="740" on="0"/>
        <pt x="666" y="780" on="1"/>
        <pt x="666" y="851" on="1"/>
        <pt x="790" y="851" on="1"/>
        <pt x="790" y="775" on="1"/>
        <pt x="790" y="723" on="0"/>
        <pt x="734" y="662" on="0"/>
        <pt x="679" y="662" on="1"/>
        <pt x="674" y="662" on="1"/>
        <pt x="674" y="286" on="1"/>
        <pt x="674" y="182" on="0"/>
        <pt x="591" y="52" on="0"/>
        <pt x="453" y="-10" on="0"/>
      </contour>
    </TTGlyph>
    <TTGlyph name="Uhungarumlaut" xMin="72" yMin="-10" xMax="674" yMax="994">
      <contour>
        <pt x="330" y="813" on="1"/>
        <pt x="223" y="814" on="1"/>
        <pt x="270" y="994" on="1"/>
        <pt x="405" y="994" on="1"/>
      </contour>
      <contour>
        <pt x="515" y="813" on="1"/>
        <pt x="409" y="814" on="1"/>
        <pt x="455" y="994" on="1"/>
        <pt x="591" y="994" on="1"/>
      </contour>
      <contour>
        <pt x="373" y="-10" on="1"/>
        <pt x="292" y="-10" on="0"/>
        <pt x="155" y="52" on="0"/>
        <pt x="72" y="182" on="0"/>
        <pt x="72" y="286" on="1"/>
        <pt x="72" y="740" on="1"/>
        <pt x="226" y="740" on="1"/>
        <pt x="226" y="286" on="1"/>
        <pt x="226" y="222" on="0"/>
        <pt x="298" y="135" on="0"/>
        <pt x="373" y="135" on="1"/>
        <pt x="448" y="135" on="0"/>
        <pt x="519" y="222" on="0"/>
        <pt x="519" y="286" on="1"/>
        <pt x="519" y="740" on="1"/>
        <pt x="674" y="740" on="1"/>
        <pt x="674" y="286" on="1"/>
        <pt x="674" y="182" on="0"/>
        <pt x="591" y="52" on="0"/>
        <pt x="453" y="-10" on="0"/>
      </contour>
    </TTGlyph>
    <TTGlyph name="Umacron" xMin="72" yMin="-10" xMax="674" yMax="915">
      <contour>
        <pt x="208" y="825" on="1"/>
        <pt x="208" y="915" on="1"/>
        <pt x="534" y="915" on="1"/>
        <pt x="534" y="825" on="1"/>
      </contour>
      <contour>
        <pt x="373" y="-10" on="1"/>
        <pt x="292" y="-10" on="0"/>
        <pt x="155" y="52" on="0"/>
        <pt x="72" y="182" on="0"/>
        <pt x="72" y="286" on="1"/>
        <pt x="72" y="740" on="1"/>
        <pt x="226" y="740" on="1"/>
        <pt x="226" y="286" on="1"/>
        <pt x="226" y="222" on="0"/>
        <pt x="298" y="135" on="0"/>
        <pt x="373" y="135" on="1"/>
        <pt x="448" y="135" on="0"/>
        <pt x="519" y="222" on="0"/>
        <pt x="519" y="286" on="1"/>
        <pt x="519" y="740" on="1"/>
        <pt x="674" y="740" on="1"/>
        <pt x="674" y="286" on="1"/>
        <pt x="674" y="182" on="0"/>
        <pt x="591" y="52" on="0"/>
        <pt x="453" y="-10" on="0"/>
      </contour>
    </TTGlyph>
    <TTGlyph name="Uogonek" xMin="72" yMin="-189" xMax="674" yMax="740">
      <contour>
        <pt x="413" y="-189" on="1"/>
        <pt x="340" y="-189" on="0"/>
        <pt x="273" y="-130" on="0"/>
        <pt x="273" y="-89" on="1"/>
        <pt x="273" y="-59" on="0"/>
        <pt x="301" y="-19" on="0"/>
        <pt x="319" y="-7" on="1"/>
        <pt x="250" y="2" on="0"/>
        <pt x="138" y="71" on="0"/>
        <pt x="72" y="194" on="0"/>
        <pt x="72" y="286" on="1"/>
        <pt x="72" y="740" on="1"/>
        <pt x="226" y="740" on="1"/>
        <pt x="226" y="286" on="1"/>
        <pt x="226" y="222" on="0"/>
        <pt x="298" y="135" on="0"/>
        <pt x="373" y="135" on="1"/>
        <pt x="448" y="135" on="0"/>
        <pt x="519" y="222" on="0"/>
        <pt x="519" y="286" on="1"/>
        <pt x="519" y="740" on="1"/>
        <pt x="674" y="740" on="1"/>
        <pt x="674" y="286" on="1"/>
        <pt x="674" y="195" on="0"/>
        <pt x="609" y="73" on="0"/>
        <pt x="499" y="4" on="0"/>
        <pt x="431" y="-6" on="1"/>
        <pt x="426" y="-8" on="0"/>
        <pt x="403" y="-23" on="0"/>
        <pt x="383" y="-46" on="0"/>
        <pt x="383" y="-63" on="1"/>
        <pt x="383" y="-78" on="0"/>
        <pt x="408" y="-101" on="0"/>
        <pt x="437" y="-101" on="1"/>
        <pt x="449" y="-101" on="0"/>
        <pt x="471" y="-97" on="0"/>
        <pt x="471" y="-97" on="1"/>
        <pt x="471" y="-184" on="1"/>
        <pt x="471" y="-184" on="0"/>
        <pt x="438" y="-189" on="0"/>
      </contour>
    </TTGlyph>
    <TTGlyph name="Uring" xMin="72" yMin="-10" xMax="674" yMax="1069">
      <contour>
        <pt x="371" y="798" on="1"/>
        <pt x="333" y="798" on="0"/>
        <pt x="272" y="834" on="0"/>
        <pt x="235" y="896" on="0"/>
        <pt x="235" y="933" on="1"/>
        <pt x="235" y="971" on="0"/>
        <pt x="272" y="1032" on="0"/>
        <pt x="333" y="1069" on="0"/>
        <pt x="371" y="1069" on="1"/>
        <pt x="408" y="1069" on="0"/>
        <pt x="470" y="1032" on="0"/>
        <pt x="507" y="971" on="0"/>
        <pt x="507" y="933" on="1"/>
        <pt x="507" y="896" on="0"/>
        <pt x="470" y="834" on="0"/>
        <pt x="408" y="798" on="0"/>
      </contour>
      <contour>
        <pt x="371" y="879" on="1"/>
        <pt x="394" y="879" on="0"/>
        <pt x="426" y="910" on="0"/>
        <pt x="426" y="933" on="1"/>
        <pt x="426" y="956" on="0"/>
        <pt x="394" y="987" on="0"/>
        <pt x="371" y="987" on="1"/>
        <pt x="348" y="987" on="0"/>
        <pt x="316" y="956" on="0"/>
        <pt x="316" y="933" on="1"/>
        <pt x="316" y="910" on="0"/>
        <pt x="348" y="879" on="0"/>
      </contour>
      <contour>
        <pt x="373" y="-10" on="1"/>
        <pt x="292" y="-10" on="0"/>
        <pt x="155" y="52" on="0"/>
        <pt x="72" y="182" on="0"/>
        <pt x="72" y="286" on="1"/>
        <pt x="72" y="740" on="1"/>
        <pt x="226" y="740" on="1"/>
        <pt x="226" y="286" on="1"/>
        <pt x="226" y="222" on="0"/>
        <pt x="298" y="135" on="0"/>
        <pt x="373" y="135" on="1"/>
        <pt x="448" y="135" on="0"/>
        <pt x="519" y="222" on="0"/>
        <pt x="519" y="286" on="1"/>
        <pt x="519" y="740" on="1"/>
        <pt x="674" y="740" on="1"/>
        <pt x="674" y="286" on="1"/>
        <pt x="674" y="182" on="0"/>
        <pt x="591" y="52" on="0"/>
        <pt x="453" y="-10" on="0"/>
      </contour>
    </TTGlyph>
    <TTGlyph name="Utilde" xMin="72" yMin="-10" xMax="674" yMax="977">
      <contour>
        <pt x="445" y="824" on="1"/>
        <pt x="418" y="824" on="0"/>
        <pt x="379" y="843" on="0"/>
        <pt x="350" y="867" on="0"/>
        <pt x="324" y="886" on="0"/>
        <pt x="311" y="886" on="1"/>
        <pt x="295" y="886" on="0"/>
        <pt x="282" y="856" on="0"/>
        <pt x="282" y="830" on="1"/>
        <pt x="201" y="830" on="1"/>
        <pt x="201" y="863" on="0"/>
        <pt x="217" y="931" on="0"/>
        <pt x="260" y="977" on="0"/>
        <pt x="302" y="977" on="1"/>
        <pt x="329" y="977" on="0"/>
        <pt x="368" y="958" on="0"/>
        <pt x="398" y="934" on="0"/>
        <pt x="424" y="916" on="0"/>
        <pt x="437" y="916" on="1"/>
        <pt x="464" y="916" on="0"/>
        <pt x="464" y="971" on="1"/>
        <pt x="545" y="971" on="1"/>
        <pt x="545" y="938" on="0"/>
        <pt x="530" y="870" on="0"/>
        <pt x="486" y="824" on="0"/>
      </contour>
      <contour>
        <pt x="373" y="-10" on="1"/>
        <pt x="292" y="-10" on="0"/>
        <pt x="155" y="52" on="0"/>
        <pt x="72" y="182" on="0"/>
        <pt x="72" y="286" on="1"/>
        <pt x="72" y="740" on="1"/>
        <pt x="226" y="740" on="1"/>
        <pt x="226" y="286" on="1"/>
        <pt x="226" y="222" on="0"/>
        <pt x="298" y="135" on="0"/>
        <pt x="373" y="135" on="1"/>
        <pt x="448" y="135" on="0"/>
        <pt x="519" y="222" on="0"/>
        <pt x="519" y="286" on="1"/>
        <pt x="519" y="740" on="1"/>
        <pt x="674" y="740" on="1"/>
        <pt x="674" y="286" on="1"/>
        <pt x="674" y="182" on="0"/>
        <pt x="591" y="52" on="0"/>
        <pt x="453" y="-10" on="0"/>
      </contour>
    </TTGlyph>
    <TTGlyph name="V" xMin="18" yMin="0" xMax="727" yMax="740">
      <contour>
        <pt x="270" y="0" on="1"/>
        <pt x="18" y="740" on="1"/>
        <pt x="180" y="740" on="1"/>
        <pt x="373" y="151" on="1"/>
        <pt x="565" y="740" on="1"/>
        <pt x="727" y="740" on="1"/>
        <pt x="475" y="0" on="1"/>
      </contour>
    </TTGlyph>
    <TTGlyph name="W" xMin="28" yMin="0" xMax="1029" yMax="740">
      <contour>
        <pt x="212" y="0" on="1"/>
        <pt x="28" y="740" on="1"/>
        <pt x="182" y="740" on="1"/>
        <pt x="313" y="203" on="1"/>
        <pt x="450" y="740" on="1"/>
        <pt x="607" y="740" on="1"/>
        <pt x="744" y="204" on="1"/>
        <pt x="874" y="740" on="1"/>
        <pt x="1029" y="740" on="1"/>
        <pt x="844" y="0" on="1"/>
        <pt x="648" y="0" on="1"/>
        <pt x="528" y="471" on="1"/>
        <pt x="409" y="0" on="1"/>
      </contour>
    </TTGlyph>
    <TTGlyph name="Wacute" xMin="16" yMin="0" xMax="1017" yMax="994">
      <contour>
        <pt x="574" y="813" on="1"/>
        <pt x="461" y="814" on="1"/>
        <pt x="542" y="994" on="1"/>
        <pt x="683" y="994" on="1"/>
      </contour>
      <contour>
        <pt x="200" y="0" on="1"/>
        <pt x="16" y="740" on="1"/>
        <pt x="170" y="740" on="1"/>
        <pt x="301" y="203" on="1"/>
        <pt x="438" y="740" on="1"/>
        <pt x="595" y="740" on="1"/>
        <pt x="732" y="204" on="1"/>
        <pt x="862" y="740" on="1"/>
        <pt x="1017" y="740" on="1"/>
        <pt x="832" y="0" on="1"/>
        <pt x="636" y="0" on="1"/>
        <pt x="516" y="471" on="1"/>
        <pt x="397" y="0" on="1"/>
      </contour>
    </TTGlyph>
    <TTGlyph name="Wcircumflex" xMin="16" yMin="0" xMax="1017" yMax="986">
      <contour>
        <pt x="328" y="806" on="1"/>
        <pt x="457" y="986" on="1"/>
        <pt x="578" y="986" on="1"/>
        <pt x="707" y="806" on="1"/>
        <pt x="588" y="806" on="1"/>
        <pt x="517" y="910" on="1"/>
        <pt x="447" y="806" on="1"/>
      </contour>
      <contour>
        <pt x="200" y="0" on="1"/>
        <pt x="16" y="740" on="1"/>
        <pt x="170" y="740" on="1"/>
        <pt x="301" y="203" on="1"/>
        <pt x="438" y="740" on="1"/>
        <pt x="595" y="740" on="1"/>
        <pt x="732" y="204" on="1"/>
        <pt x="862" y="740" on="1"/>
        <pt x="1017" y="740" on="1"/>
        <pt x="832" y="0" on="1"/>
        <pt x="636" y="0" on="1"/>
        <pt x="516" y="471" on="1"/>
        <pt x="397" y="0" on="1"/>
      </contour>
    </TTGlyph>
    <TTGlyph name="Wdieresis" xMin="16" yMin="0" xMax="1017" yMax="967">
      <contour>
        <pt x="630" y="801" on="1"/>
        <pt x="592" y="801" on="0"/>
        <pt x="544" y="850" on="0"/>
        <pt x="544" y="884" on="1"/>
        <pt x="544" y="919" on="0"/>
        <pt x="592" y="967" on="0"/>
        <pt x="630" y="967" on="1"/>
        <pt x="667" y="967" on="0"/>
        <pt x="716" y="919" on="0"/>
        <pt x="716" y="884" on="1"/>
        <pt x="716" y="850" on="0"/>
        <pt x="667" y="801" on="0"/>
      </contour>
      <contour>
        <pt x="403" y="801" on="1"/>
        <pt x="365" y="801" on="0"/>
        <pt x="317" y="850" on="0"/>
        <pt x="317" y="884" on="1"/>
        <pt x="317" y="919" on="0"/>
        <pt x="365" y="967" on="0"/>
        <pt x="403" y="967" on="1"/>
        <pt x="440" y="967" on="0"/>
        <pt x="489" y="919" on="0"/>
        <pt x="489" y="884" on="1"/>
        <pt x="489" y="850" on="0"/>
        <pt x="440" y="801" on="0"/>
      </contour>
      <contour>
        <pt x="200" y="0" on="1"/>
        <pt x="16" y="740" on="1"/>
        <pt x="170" y="740" on="1"/>
        <pt x="301" y="203" on="1"/>
        <pt x="438" y="740" on="1"/>
        <pt x="595" y="740" on="1"/>
        <pt x="732" y="204" on="1"/>
        <pt x="862" y="740" on="1"/>
        <pt x="1017" y="740" on="1"/>
        <pt x="832" y="0" on="1"/>
        <pt x="636" y="0" on="1"/>
        <pt x="516" y="471" on="1"/>
        <pt x="397" y="0" on="1"/>
      </contour>
    </TTGlyph>
    <TTGlyph name="Wgrave" xMin="16" yMin="0" xMax="1017" yMax="994">
      <contour>
        <pt x="463" y="813" on="1"/>
        <pt x="354" y="994" on="1"/>
        <pt x="495" y="994" on="1"/>
        <pt x="576" y="814" on="1"/>
      </contour>
      <contour>
        <pt x="200" y="0" on="1"/>
        <pt x="16" y="740" on="1"/>
        <pt x="170" y="740" on="1"/>
        <pt x="301" y="203" on="1"/>
        <pt x="438" y="740" on="1"/>
        <pt x="595" y="740" on="1"/>
        <pt x="732" y="204" on="1"/>
        <pt x="862" y="740" on="1"/>
        <pt x="1017" y="740" on="1"/>
        <pt x="832" y="0" on="1"/>
        <pt x="636" y="0" on="1"/>
        <pt x="516" y="471" on="1"/>
        <pt x="397" y="0" on="1"/>
      </contour>
    </TTGlyph>
    <TTGlyph name="X" xMin="49" yMin="0" xMax="720" yMax="740">
      <contour>
        <pt x="49" y="0" on="1"/>
        <pt x="277" y="370" on="1"/>
        <pt x="50" y="740" on="1"/>
        <pt x="233" y="740" on="1"/>
        <pt x="384" y="484" on="1"/>
        <pt x="536" y="740" on="1"/>
        <pt x="720" y="740" on="1"/>
        <pt x="489" y="370" on="1"/>
        <pt x="720" y="0" on="1"/>
        <pt x="536" y="0" on="1"/>
        <pt x="384" y="257" on="1"/>
        <pt x="233" y="0" on="1"/>
      </contour>
    </TTGlyph>
    <TTGlyph name="Y" xMin="22" yMin="0" xMax="696" yMax="740">
      <contour>
        <pt x="282" y="0" on="1"/>
        <pt x="282" y="253" on="1"/>
        <pt x="22" y="740" on="1"/>
        <pt x="191" y="740" on="1"/>
        <pt x="359" y="411" on="1"/>
        <pt x="527" y="740" on="1"/>
        <pt x="696" y="740" on="1"/>
        <pt x="436" y="253" on="1"/>
        <pt x="436" y="0" on="1"/>
      </contour>
    </TTGlyph>
    <TTGlyph name="Yacute" xMin="22" yMin="0" xMax="696" yMax="993">
      <contour>
        <pt x="417" y="812" on="1"/>
        <pt x="305" y="813" on="1"/>
        <pt x="386" y="993" on="1"/>
        <pt x="527" y="993" on="1"/>
      </contour>
      <contour>
        <pt x="282" y="0" on="1"/>
        <pt x="282" y="253" on="1"/>
        <pt x="22" y="740" on="1"/>
        <pt x="191" y="740" on="1"/>
        <pt x="359" y="411" on="1"/>
        <pt x="527" y="740" on="1"/>
        <pt x="696" y="740" on="1"/>
        <pt x="436" y="253" on="1"/>
        <pt x="436" y="0" on="1"/>
      </contour>
    </TTGlyph>
    <TTGlyph name="Ycircumflex" xMin="22" yMin="0" xMax="696" yMax="985">
      <contour>
        <pt x="171" y="805" on="1"/>
        <pt x="301" y="985" on="1"/>
        <pt x="421" y="985" on="1"/>
        <pt x="551" y="805" on="1"/>
        <pt x="432" y="805" on="1"/>
        <pt x="361" y="909" on="1"/>
        <pt x="290" y="805" on="1"/>
      </contour>
      <contour>
        <pt x="282" y="0" on="1"/>
        <pt x="282" y="253" on="1"/>
        <pt x="22" y="740" on="1"/>
        <pt x="191" y="740" on="1"/>
        <pt x="359" y="411" on="1"/>
        <pt x="527" y="740" on="1"/>
        <pt x="696" y="740" on="1"/>
        <pt x="436" y="253" on="1"/>
        <pt x="436" y="0" on="1"/>
      </contour>
    </TTGlyph>
    <TTGlyph name="Ydieresis" xMin="22" yMin="0" xMax="696" yMax="966">
      <contour>
        <pt x="474" y="800" on="1"/>
        <pt x="436" y="800" on="0"/>
        <pt x="387" y="849" on="0"/>
        <pt x="387" y="883" on="1"/>
        <pt x="387" y="918" on="0"/>
        <pt x="436" y="966" on="0"/>
        <pt x="474" y="966" on="1"/>
        <pt x="511" y="966" on="0"/>
        <pt x="560" y="918" on="0"/>
        <pt x="560" y="883" on="1"/>
        <pt x="560" y="849" on="0"/>
        <pt x="511" y="800" on="0"/>
      </contour>
      <contour>
        <pt x="247" y="800" on="1"/>
        <pt x="209" y="800" on="0"/>
        <pt x="161" y="849" on="0"/>
        <pt x="161" y="883" on="1"/>
        <pt x="161" y="918" on="0"/>
        <pt x="209" y="966" on="0"/>
        <pt x="247" y="966" on="1"/>
        <pt x="284" y="966" on="0"/>
        <pt x="333" y="918" on="0"/>
        <pt x="333" y="883" on="1"/>
        <pt x="333" y="849" on="0"/>
        <pt x="284" y="800" on="0"/>
      </contour>
      <contour>
        <pt x="282" y="0" on="1"/>
        <pt x="282" y="253" on="1"/>
        <pt x="22" y="740" on="1"/>
        <pt x="191" y="740" on="1"/>
        <pt x="359" y="411" on="1"/>
        <pt x="527" y="740" on="1"/>
        <pt x="696" y="740" on="1"/>
        <pt x="436" y="253" on="1"/>
        <pt x="436" y="0" on="1"/>
      </contour>
    </TTGlyph>
    <TTGlyph name="Ygrave" xMin="22" yMin="0" xMax="696" yMax="993">
      <contour>
        <pt x="307" y="812" on="1"/>
        <pt x="198" y="993" on="1"/>
        <pt x="339" y="993" on="1"/>
        <pt x="419" y="813" on="1"/>
      </contour>
      <contour>
        <pt x="282" y="0" on="1"/>
        <pt x="282" y="253" on="1"/>
        <pt x="22" y="740" on="1"/>
        <pt x="191" y="740" on="1"/>
        <pt x="359" y="411" on="1"/>
        <pt x="527" y="740" on="1"/>
        <pt x="696" y="740" on="1"/>
        <pt x="436" y="253" on="1"/>
        <pt x="436" y="0" on="1"/>
      </contour>
    </TTGlyph>
    <TTGlyph name="Z" xMin="49" yMin="0" xMax="616" yMax="740">
      <contour>
        <pt x="49" y="0" on="1"/>
        <pt x="49" y="110" on="1"/>
        <pt x="416" y="605" on="1"/>
        <pt x="49" y="605" on="1"/>
        <pt x="49" y="740" on="1"/>
        <pt x="616" y="740" on="1"/>
        <pt x="616" y="631" on="1"/>
        <pt x="248" y="135" on="1"/>
        <pt x="616" y="135" on="1"/>
        <pt x="616" y="0" on="1"/>
      </contour>
    </TTGlyph>
    <TTGlyph name="Zacute" xMin="49" yMin="0" xMax="616" yMax="994">
      <contour>
        <pt x="377" y="813" on="1"/>
        <pt x="264" y="814" on="1"/>
        <pt x="345" y="994" on="1"/>
        <pt x="486" y="994" on="1"/>
      </contour>
      <contour>
        <pt x="49" y="0" on="1"/>
        <pt x="49" y="110" on="1"/>
        <pt x="416" y="605" on="1"/>
        <pt x="49" y="605" on="1"/>
        <pt x="49" y="740" on="1"/>
        <pt x="616" y="740" on="1"/>
        <pt x="616" y="631" on="1"/>
        <pt x="248" y="135" on="1"/>
        <pt x="616" y="135" on="1"/>
        <pt x="616" y="0" on="1"/>
      </contour>
    </TTGlyph>
    <TTGlyph name="Zcaron" xMin="49" yMin="0" xMax="616" yMax="982">
      <contour>
        <pt x="259" y="802" on="1"/>
        <pt x="130" y="982" on="1"/>
        <pt x="249" y="982" on="1"/>
        <pt x="320" y="878" on="1"/>
        <pt x="390" y="982" on="1"/>
        <pt x="509" y="982" on="1"/>
        <pt x="380" y="802" on="1"/>
      </contour>
      <contour>
        <pt x="49" y="0" on="1"/>
        <pt x="49" y="110" on="1"/>
        <pt x="416" y="605" on="1"/>
        <pt x="49" y="605" on="1"/>
        <pt x="49" y="740" on="1"/>
        <pt x="616" y="740" on="1"/>
        <pt x="616" y="631" on="1"/>
        <pt x="248" y="135" on="1"/>
        <pt x="616" y="135" on="1"/>
        <pt x="616" y="0" on="1"/>
      </contour>
    </TTGlyph>
    <TTGlyph name="Zdotaccent" xMin="49" yMin="0" xMax="616" yMax="986">
      <contour>
        <pt x="320" y="812" on="1"/>
        <pt x="280" y="812" on="0"/>
        <pt x="230" y="863" on="0"/>
        <pt x="230" y="899" on="1"/>
        <pt x="230" y="935" on="0"/>
        <pt x="280" y="986" on="0"/>
        <pt x="320" y="986" on="1"/>
        <pt x="359" y="986" on="0"/>
        <pt x="410" y="935" on="0"/>
        <pt x="410" y="899" on="1"/>
        <pt x="410" y="863" on="0"/>
        <pt x="359" y="812" on="0"/>
      </contour>
      <contour>
        <pt x="49" y="0" on="1"/>
        <pt x="49" y="110" on="1"/>
        <pt x="416" y="605" on="1"/>
        <pt x="49" y="605" on="1"/>
        <pt x="49" y="740" on="1"/>
        <pt x="616" y="740" on="1"/>
        <pt x="616" y="631" on="1"/>
        <pt x="248" y="135" on="1"/>
        <pt x="616" y="135" on="1"/>
        <pt x="616" y="0" on="1"/>
      </contour>
    </TTGlyph>
    <TTGlyph name="a" xMin="51" yMin="-10" xMax="600" yMax="540">
      <contour>
        <pt x="284" y="540" on="1"/>
        <pt x="335" y="540" on="0"/>
        <pt x="401" y="507" on="0"/>
        <pt x="436" y="469" on="0"/>
        <pt x="440" y="462" on="1"/>
        <pt x="448" y="462" on="1"/>
        <pt x="448" y="530" on="1"/>
        <pt x="600" y="530" on="1"/>
        <pt x="600" y="0" on="1"/>
        <pt x="448" y="0" on="1"/>
        <pt x="448" y="68" on="1"/>
        <pt x="440" y="68" on="1"/>
        <pt x="436" y="61" on="0"/>
        <pt x="401" y="23" on="0"/>
        <pt x="335" y="-10" on="0"/>
        <pt x="284" y="-10" on="1"/>
        <pt x="225" y="-10" on="0"/>
        <pt x="138" y="37" on="0"/>
        <pt x="80" y="116" on="0"/>
        <pt x="51" y="214" on="0"/>
        <pt x="51" y="265" on="1"/>
        <pt x="51" y="316" on="0"/>
        <pt x="80" y="414" on="0"/>
        <pt x="138" y="493" on="0"/>
        <pt x="225" y="540" on="0"/>
      </contour>
      <contour>
        <pt x="328" y="417" on="1"/>
        <pt x="287" y="417" on="0"/>
        <pt x="232" y="372" on="0"/>
        <pt x="205" y="302" on="0"/>
        <pt x="205" y="265" on="1"/>
        <pt x="205" y="228" on="0"/>
        <pt x="232" y="158" on="0"/>
        <pt x="287" y="113" on="0"/>
        <pt x="328" y="113" on="1"/>
        <pt x="369" y="113" on="0"/>
        <pt x="424" y="158" on="0"/>
        <pt x="451" y="228" on="0"/>
        <pt x="451" y="265" on="1"/>
        <pt x="451" y="302" on="0"/>
        <pt x="424" y="372" on="0"/>
        <pt x="369" y="417" on="0"/>
      </contour>
    </TTGlyph>
    <TTGlyph name="a.ss01" xMin="43" yMin="-10" xMax="528" yMax="540">
      <contour>
        <pt x="371" y="64" on="1"/>
        <pt x="364" y="55" on="0"/>
        <pt x="330" y="19" on="0"/>
        <pt x="268" y="-10" on="0"/>
        <pt x="218" y="-10" on="1"/>
        <pt x="140" y="-10" on="0"/>
        <pt x="43" y="71" on="0"/>
        <pt x="43" y="142" on="1"/>
        <pt x="43" y="194" on="0"/>
        <pt x="96" y="263" on="0"/>
        <pt x="190" y="302" on="0"/>
        <pt x="250" y="309" on="1"/>
        <pt x="378" y="326" on="1"/>
        <pt x="378" y="344" on="1"/>
        <pt x="378" y="376" on="0"/>
        <pt x="338" y="426" on="0"/>
        <pt x="292" y="426" on="1"/>
        <pt x="261" y="426" on="0"/>
        <pt x="224" y="406" on="0"/>
        <pt x="207" y="379" on="0"/>
        <pt x="202" y="358" on="0"/>
        <pt x="202" y="358" on="1"/>
        <pt x="60" y="358" on="1"/>
        <pt x="60" y="358" on="0"/>
        <pt x="66" y="395" on="0"/>
        <pt x="89" y="449" on="0"/>
        <pt x="140" y="503" on="0"/>
        <pt x="227" y="540" on="0"/>
        <pt x="295" y="540" on="1"/>
        <pt x="378" y="540" on="0"/>
        <pt x="481" y="482" on="0"/>
        <pt x="528" y="393" on="0"/>
        <pt x="528" y="346" on="1"/>
        <pt x="528" y="0" on="1"/>
        <pt x="378" y="0" on="1"/>
        <pt x="378" y="64" on="1"/>
      </contour>
      <contour>
        <pt x="190" y="154" on="1"/>
        <pt x="190" y="124" on="0"/>
        <pt x="235" y="93" on="0"/>
        <pt x="268" y="93" on="1"/>
        <pt x="315" y="93" on="0"/>
        <pt x="378" y="159" on="0"/>
        <pt x="378" y="215" on="1"/>
        <pt x="378" y="232" on="1"/>
        <pt x="269" y="217" on="1"/>
        <pt x="234" y="212" on="0"/>
        <pt x="190" y="184" on="0"/>
      </contour>
    </TTGlyph>
    <TTGlyph name="aacute" xMin="53" yMin="-10" xMax="602" yMax="784">
      <contour>
        <pt x="389" y="603" on="1"/>
        <pt x="276" y="604" on="1"/>
        <pt x="357" y="784" on="1"/>
        <pt x="498" y="784" on="1"/>
      </contour>
      <contour>
        <pt x="286" y="540" on="1"/>
        <pt x="337" y="540" on="0"/>
        <pt x="403" y="507" on="0"/>
        <pt x="438" y="469" on="0"/>
        <pt x="442" y="462" on="1"/>
        <pt x="450" y="462" on="1"/>
        <pt x="450" y="530" on="1"/>
        <pt x="602" y="530" on="1"/>
        <pt x="602" y="0" on="1"/>
        <pt x="450" y="0" on="1"/>
        <pt x="450" y="68" on="1"/>
        <pt x="442" y="68" on="1"/>
        <pt x="438" y="61" on="0"/>
        <pt x="403" y="23" on="0"/>
        <pt x="337" y="-10" on="0"/>
        <pt x="286" y="-10" on="1"/>
        <pt x="227" y="-10" on="0"/>
        <pt x="140" y="37" on="0"/>
        <pt x="82" y="116" on="0"/>
        <pt x="53" y="214" on="0"/>
        <pt x="53" y="265" on="1"/>
        <pt x="53" y="316" on="0"/>
        <pt x="82" y="414" on="0"/>
        <pt x="140" y="493" on="0"/>
        <pt x="227" y="540" on="0"/>
      </contour>
      <contour>
        <pt x="330" y="417" on="1"/>
        <pt x="289" y="417" on="0"/>
        <pt x="234" y="372" on="0"/>
        <pt x="207" y="302" on="0"/>
        <pt x="207" y="265" on="1"/>
        <pt x="207" y="228" on="0"/>
        <pt x="234" y="158" on="0"/>
        <pt x="289" y="113" on="0"/>
        <pt x="330" y="113" on="1"/>
        <pt x="371" y="113" on="0"/>
        <pt x="426" y="158" on="0"/>
        <pt x="453" y="228" on="0"/>
        <pt x="453" y="265" on="1"/>
        <pt x="453" y="302" on="0"/>
        <pt x="426" y="372" on="0"/>
        <pt x="371" y="417" on="0"/>
      </contour>
    </TTGlyph>
    <TTGlyph name="aacute.ss01" xMin="48" yMin="-10" xMax="533" yMax="784">
      <contour>
        <pt x="357" y="603" on="1"/>
        <pt x="245" y="604" on="1"/>
        <pt x="326" y="784" on="1"/>
        <pt x="467" y="784" on="1"/>
      </contour>
      <contour>
        <pt x="376" y="64" on="1"/>
        <pt x="369" y="55" on="0"/>
        <pt x="335" y="19" on="0"/>
        <pt x="273" y="-10" on="0"/>
        <pt x="223" y="-10" on="1"/>
        <pt x="144" y="-10" on="0"/>
        <pt x="48" y="71" on="0"/>
        <pt x="48" y="142" on="1"/>
        <pt x="48" y="194" on="0"/>
        <pt x="101" y="263" on="0"/>
        <pt x="195" y="302" on="0"/>
        <pt x="255" y="309" on="1"/>
        <pt x="383" y="326" on="1"/>
        <pt x="383" y="344" on="1"/>
        <pt x="383" y="376" on="0"/>
        <pt x="343" y="426" on="0"/>
        <pt x="297" y="426" on="1"/>
        <pt x="265" y="426" on="0"/>
        <pt x="229" y="406" on="0"/>
        <pt x="212" y="379" on="0"/>
        <pt x="207" y="358" on="0"/>
        <pt x="207" y="358" on="1"/>
        <pt x="64" y="358" on="1"/>
        <pt x="64" y="358" on="0"/>
        <pt x="71" y="395" on="0"/>
        <pt x="94" y="449" on="0"/>
        <pt x="145" y="503" on="0"/>
        <pt x="232" y="540" on="0"/>
        <pt x="300" y="540" on="1"/>
        <pt x="383" y="540" on="0"/>
        <pt x="485" y="482" on="0"/>
        <pt x="533" y="393" on="0"/>
        <pt x="533" y="346" on="1"/>
        <pt x="533" y="0" on="1"/>
        <pt x="383" y="0" on="1"/>
        <pt x="383" y="64" on="1"/>
      </contour>
      <contour>
        <pt x="195" y="154" on="1"/>
        <pt x="195" y="124" on="0"/>
        <pt x="240" y="93" on="0"/>
        <pt x="273" y="93" on="1"/>
        <pt x="320" y="93" on="0"/>
        <pt x="383" y="159" on="0"/>
        <pt x="383" y="215" on="1"/>
        <pt x="383" y="232" on="1"/>
        <pt x="274" y="217" on="1"/>
        <pt x="239" y="212" on="0"/>
        <pt x="195" y="184" on="0"/>
      </contour>
    </TTGlyph>
    <TTGlyph name="abreve" xMin="53" yMin="-10" xMax="602" yMax="770">
      <contour>
        <pt x="332" y="597" on="1"/>
        <pt x="276" y="597" on="0"/>
        <pt x="207" y="632" on="0"/>
        <pt x="170" y="683" on="0"/>
        <pt x="154" y="735" on="0"/>
        <pt x="151" y="770" on="0"/>
        <pt x="151" y="770" on="1"/>
        <pt x="251" y="770" on="1"/>
        <pt x="251" y="770" on="0"/>
        <pt x="254" y="744" on="0"/>
        <pt x="269" y="711" on="0"/>
        <pt x="302" y="686" on="0"/>
        <pt x="332" y="686" on="1"/>
        <pt x="362" y="686" on="0"/>
        <pt x="395" y="711" on="0"/>
        <pt x="409" y="744" on="0"/>
        <pt x="412" y="770" on="0"/>
        <pt x="412" y="770" on="1"/>
        <pt x="512" y="770" on="1"/>
        <pt x="512" y="770" on="0"/>
        <pt x="510" y="735" on="0"/>
        <pt x="494" y="683" on="0"/>
        <pt x="456" y="632" on="0"/>
        <pt x="387" y="597" on="0"/>
      </contour>
      <contour>
        <pt x="286" y="540" on="1"/>
        <pt x="337" y="540" on="0"/>
        <pt x="403" y="507" on="0"/>
        <pt x="438" y="469" on="0"/>
        <pt x="442" y="462" on="1"/>
        <pt x="450" y="462" on="1"/>
        <pt x="450" y="530" on="1"/>
        <pt x="602" y="530" on="1"/>
        <pt x="602" y="0" on="1"/>
        <pt x="450" y="0" on="1"/>
        <pt x="450" y="68" on="1"/>
        <pt x="442" y="68" on="1"/>
        <pt x="438" y="61" on="0"/>
        <pt x="403" y="23" on="0"/>
        <pt x="337" y="-10" on="0"/>
        <pt x="286" y="-10" on="1"/>
        <pt x="227" y="-10" on="0"/>
        <pt x="140" y="37" on="0"/>
        <pt x="82" y="116" on="0"/>
        <pt x="53" y="214" on="0"/>
        <pt x="53" y="265" on="1"/>
        <pt x="53" y="316" on="0"/>
        <pt x="82" y="414" on="0"/>
        <pt x="140" y="493" on="0"/>
        <pt x="227" y="540" on="0"/>
      </contour>
      <contour>
        <pt x="330" y="417" on="1"/>
        <pt x="289" y="417" on="0"/>
        <pt x="234" y="372" on="0"/>
        <pt x="207" y="302" on="0"/>
        <pt x="207" y="265" on="1"/>
        <pt x="207" y="228" on="0"/>
        <pt x="234" y="158" on="0"/>
        <pt x="289" y="113" on="0"/>
        <pt x="330" y="113" on="1"/>
        <pt x="371" y="113" on="0"/>
        <pt x="426" y="158" on="0"/>
        <pt x="453" y="228" on="0"/>
        <pt x="453" y="265" on="1"/>
        <pt x="453" y="302" on="0"/>
        <pt x="426" y="372" on="0"/>
        <pt x="371" y="417" on="0"/>
      </contour>
    </TTGlyph>
    <TTGlyph name="abreve.ss01" xMin="48" yMin="-10" xMax="533" yMax="770">
      <contour>
        <pt x="301" y="597" on="1"/>
        <pt x="245" y="597" on="0"/>
        <pt x="176" y="632" on="0"/>
        <pt x="138" y="683" on="0"/>
        <pt x="123" y="735" on="0"/>
        <pt x="120" y="770" on="0"/>
        <pt x="120" y="770" on="1"/>
        <pt x="220" y="770" on="1"/>
        <pt x="220" y="770" on="0"/>
        <pt x="223" y="744" on="0"/>
        <pt x="238" y="711" on="0"/>
        <pt x="271" y="686" on="0"/>
        <pt x="301" y="686" on="1"/>
        <pt x="330" y="686" on="0"/>
        <pt x="364" y="711" on="0"/>
        <pt x="378" y="744" on="0"/>
        <pt x="381" y="770" on="0"/>
        <pt x="381" y="770" on="1"/>
        <pt x="481" y="770" on="1"/>
        <pt x="481" y="770" on="0"/>
        <pt x="478" y="735" on="0"/>
        <pt x="463" y="683" on="0"/>
        <pt x="425" y="632" on="0"/>
        <pt x="356" y="597" on="0"/>
      </contour>
      <contour>
        <pt x="376" y="64" on="1"/>
        <pt x="369" y="55" on="0"/>
        <pt x="335" y="19" on="0"/>
        <pt x="273" y="-10" on="0"/>
        <pt x="223" y="-10" on="1"/>
        <pt x="144" y="-10" on="0"/>
        <pt x="48" y="71" on="0"/>
        <pt x="48" y="142" on="1"/>
        <pt x="48" y="194" on="0"/>
        <pt x="101" y="263" on="0"/>
        <pt x="195" y="302" on="0"/>
        <pt x="255" y="309" on="1"/>
        <pt x="383" y="326" on="1"/>
        <pt x="383" y="344" on="1"/>
        <pt x="383" y="376" on="0"/>
        <pt x="343" y="426" on="0"/>
        <pt x="297" y="426" on="1"/>
        <pt x="265" y="426" on="0"/>
        <pt x="229" y="406" on="0"/>
        <pt x="212" y="379" on="0"/>
        <pt x="207" y="358" on="0"/>
        <pt x="207" y="358" on="1"/>
        <pt x="64" y="358" on="1"/>
        <pt x="64" y="358" on="0"/>
        <pt x="71" y="395" on="0"/>
        <pt x="94" y="449" on="0"/>
        <pt x="145" y="503" on="0"/>
        <pt x="232" y="540" on="0"/>
        <pt x="300" y="540" on="1"/>
        <pt x="383" y="540" on="0"/>
        <pt x="485" y="482" on="0"/>
        <pt x="533" y="393" on="0"/>
        <pt x="533" y="346" on="1"/>
        <pt x="533" y="0" on="1"/>
        <pt x="383" y="0" on="1"/>
        <pt x="383" y="64" on="1"/>
      </contour>
      <contour>
        <pt x="195" y="154" on="1"/>
        <pt x="195" y="124" on="0"/>
        <pt x="240" y="93" on="0"/>
        <pt x="273" y="93" on="1"/>
        <pt x="320" y="93" on="0"/>
        <pt x="383" y="159" on="0"/>
        <pt x="383" y="215" on="1"/>
        <pt x="383" y="232" on="1"/>
        <pt x="274" y="217" on="1"/>
        <pt x="239" y="212" on="0"/>
        <pt x="195" y="184" on="0"/>
      </contour>
    </TTGlyph>
    <TTGlyph name="acircumflex" xMin="53" yMin="-10" xMax="602" yMax="776">
      <contour>
        <pt x="143" y="596" on="1"/>
        <pt x="272" y="776" on="1"/>
        <pt x="393" y="776" on="1"/>
        <pt x="522" y="596" on="1"/>
        <pt x="403" y="596" on="1"/>
        <pt x="332" y="700" on="1"/>
        <pt x="262" y="596" on="1"/>
      </contour>
      <contour>
        <pt x="286" y="540" on="1"/>
        <pt x="337" y="540" on="0"/>
        <pt x="403" y="507" on="0"/>
        <pt x="438" y="469" on="0"/>
        <pt x="442" y="462" on="1"/>
        <pt x="450" y="462" on="1"/>
        <pt x="450" y="530" on="1"/>
        <pt x="602" y="530" on="1"/>
        <pt x="602" y="0" on="1"/>
        <pt x="450" y="0" on="1"/>
        <pt x="450" y="68" on="1"/>
        <pt x="442" y="68" on="1"/>
        <pt x="438" y="61" on="0"/>
        <pt x="403" y="23" on="0"/>
        <pt x="337" y="-10" on="0"/>
        <pt x="286" y="-10" on="1"/>
        <pt x="227" y="-10" on="0"/>
        <pt x="140" y="37" on="0"/>
        <pt x="82" y="116" on="0"/>
        <pt x="53" y="214" on="0"/>
        <pt x="53" y="265" on="1"/>
        <pt x="53" y="316" on="0"/>
        <pt x="82" y="414" on="0"/>
        <pt x="140" y="493" on="0"/>
        <pt x="227" y="540" on="0"/>
      </contour>
      <contour>
        <pt x="330" y="417" on="1"/>
        <pt x="289" y="417" on="0"/>
        <pt x="234" y="372" on="0"/>
        <pt x="207" y="302" on="0"/>
        <pt x="207" y="265" on="1"/>
        <pt x="207" y="228" on="0"/>
        <pt x="234" y="158" on="0"/>
        <pt x="289" y="113" on="0"/>
        <pt x="330" y="113" on="1"/>
        <pt x="371" y="113" on="0"/>
        <pt x="426" y="158" on="0"/>
        <pt x="453" y="228" on="0"/>
        <pt x="453" y="265" on="1"/>
        <pt x="453" y="302" on="0"/>
        <pt x="426" y="372" on="0"/>
        <pt x="371" y="417" on="0"/>
      </contour>
    </TTGlyph>
    <TTGlyph name="acircumflex.ss01" xMin="48" yMin="-10" xMax="533" yMax="776">
      <contour>
        <pt x="111" y="596" on="1"/>
        <pt x="241" y="776" on="1"/>
        <pt x="361" y="776" on="1"/>
        <pt x="491" y="596" on="1"/>
        <pt x="372" y="596" on="1"/>
        <pt x="301" y="700" on="1"/>
        <pt x="230" y="596" on="1"/>
      </contour>
      <contour>
        <pt x="376" y="64" on="1"/>
        <pt x="369" y="55" on="0"/>
        <pt x="335" y="19" on="0"/>
        <pt x="273" y="-10" on="0"/>
        <pt x="223" y="-10" on="1"/>
        <pt x="144" y="-10" on="0"/>
        <pt x="48" y="71" on="0"/>
        <pt x="48" y="142" on="1"/>
        <pt x="48" y="194" on="0"/>
        <pt x="101" y="263" on="0"/>
        <pt x="195" y="302" on="0"/>
        <pt x="255" y="309" on="1"/>
        <pt x="383" y="326" on="1"/>
        <pt x="383" y="344" on="1"/>
        <pt x="383" y="376" on="0"/>
        <pt x="343" y="426" on="0"/>
        <pt x="297" y="426" on="1"/>
        <pt x="265" y="426" on="0"/>
        <pt x="229" y="406" on="0"/>
        <pt x="212" y="379" on="0"/>
        <pt x="207" y="358" on="0"/>
        <pt x="207" y="358" on="1"/>
        <pt x="64" y="358" on="1"/>
        <pt x="64" y="358" on="0"/>
        <pt x="71" y="395" on="0"/>
        <pt x="94" y="449" on="0"/>
        <pt x="145" y="503" on="0"/>
        <pt x="232" y="540" on="0"/>
        <pt x="300" y="540" on="1"/>
        <pt x="383" y="540" on="0"/>
        <pt x="485" y="482" on="0"/>
        <pt x="533" y="393" on="0"/>
        <pt x="533" y="346" on="1"/>
        <pt x="533" y="0" on="1"/>
        <pt x="383" y="0" on="1"/>
        <pt x="383" y="64" on="1"/>
      </contour>
      <contour>
        <pt x="195" y="154" on="1"/>
        <pt x="195" y="124" on="0"/>
        <pt x="240" y="93" on="0"/>
        <pt x="273" y="93" on="1"/>
        <pt x="320" y="93" on="0"/>
        <pt x="383" y="159" on="0"/>
        <pt x="383" y="215" on="1"/>
        <pt x="383" y="232" on="1"/>
        <pt x="274" y="217" on="1"/>
        <pt x="239" y="212" on="0"/>
        <pt x="195" y="184" on="0"/>
      </contour>
    </TTGlyph>
    <TTGlyph name="acute" xMin="28" yMin="603" xMax="249" yMax="784">
      <contour>
        <pt x="140" y="603" on="1"/>
        <pt x="28" y="604" on="1"/>
        <pt x="108" y="784" on="1"/>
        <pt x="249" y="784" on="1"/>
      </contour>
    </TTGlyph>
    <TTGlyph name="acutecomb" xMin="16" yMin="603" xMax="237" yMax="784">
      <contour>
        <pt x="128" y="603" on="1"/>
        <pt x="16" y="604" on="1"/>
        <pt x="96" y="784" on="1"/>
        <pt x="237" y="784" on="1"/>
      </contour>
    </TTGlyph>
    <TTGlyph name="adieresis" xMin="53" yMin="-10" xMax="602" yMax="757">
      <contour>
        <pt x="445" y="591" on="1"/>
        <pt x="407" y="591" on="0"/>
        <pt x="359" y="640" on="0"/>
        <pt x="359" y="674" on="1"/>
        <pt x="359" y="709" on="0"/>
        <pt x="407" y="757" on="0"/>
        <pt x="445" y="757" on="1"/>
        <pt x="482" y="757" on="0"/>
        <pt x="531" y="709" on="0"/>
        <pt x="531" y="674" on="1"/>
        <pt x="531" y="640" on="0"/>
        <pt x="482" y="591" on="0"/>
      </contour>
      <contour>
        <pt x="218" y="591" on="1"/>
        <pt x="180" y="591" on="0"/>
        <pt x="132" y="640" on="0"/>
        <pt x="132" y="674" on="1"/>
        <pt x="132" y="709" on="0"/>
        <pt x="180" y="757" on="0"/>
        <pt x="218" y="757" on="1"/>
        <pt x="255" y="757" on="0"/>
        <pt x="304" y="709" on="0"/>
        <pt x="304" y="674" on="1"/>
        <pt x="304" y="640" on="0"/>
        <pt x="255" y="591" on="0"/>
      </contour>
      <contour>
        <pt x="286" y="540" on="1"/>
        <pt x="337" y="540" on="0"/>
        <pt x="403" y="507" on="0"/>
        <pt x="438" y="469" on="0"/>
        <pt x="442" y="462" on="1"/>
        <pt x="450" y="462" on="1"/>
        <pt x="450" y="530" on="1"/>
        <pt x="602" y="530" on="1"/>
        <pt x="602" y="0" on="1"/>
        <pt x="450" y="0" on="1"/>
        <pt x="450" y="68" on="1"/>
        <pt x="442" y="68" on="1"/>
        <pt x="438" y="61" on="0"/>
        <pt x="403" y="23" on="0"/>
        <pt x="337" y="-10" on="0"/>
        <pt x="286" y="-10" on="1"/>
        <pt x="227" y="-10" on="0"/>
        <pt x="140" y="37" on="0"/>
        <pt x="82" y="116" on="0"/>
        <pt x="53" y="214" on="0"/>
        <pt x="53" y="265" on="1"/>
        <pt x="53" y="316" on="0"/>
        <pt x="82" y="414" on="0"/>
        <pt x="140" y="493" on="0"/>
        <pt x="227" y="540" on="0"/>
      </contour>
      <contour>
        <pt x="330" y="417" on="1"/>
        <pt x="289" y="417" on="0"/>
        <pt x="234" y="372" on="0"/>
        <pt x="207" y="302" on="0"/>
        <pt x="207" y="265" on="1"/>
        <pt x="207" y="228" on="0"/>
        <pt x="234" y="158" on="0"/>
        <pt x="289" y="113" on="0"/>
        <pt x="330" y="113" on="1"/>
        <pt x="371" y="113" on="0"/>
        <pt x="426" y="158" on="0"/>
        <pt x="453" y="228" on="0"/>
        <pt x="453" y="265" on="1"/>
        <pt x="453" y="302" on="0"/>
        <pt x="426" y="372" on="0"/>
        <pt x="371" y="417" on="0"/>
      </contour>
    </TTGlyph>
    <TTGlyph name="adieresis.ss01" xMin="48" yMin="-10" xMax="533" yMax="757">
      <contour>
        <pt x="414" y="591" on="1"/>
        <pt x="376" y="591" on="0"/>
        <pt x="327" y="640" on="0"/>
        <pt x="327" y="674" on="1"/>
        <pt x="327" y="709" on="0"/>
        <pt x="376" y="757" on="0"/>
        <pt x="414" y="757" on="1"/>
        <pt x="451" y="757" on="0"/>
        <pt x="500" y="709" on="0"/>
        <pt x="500" y="674" on="1"/>
        <pt x="500" y="640" on="0"/>
        <pt x="451" y="591" on="0"/>
      </contour>
      <contour>
        <pt x="187" y="591" on="1"/>
        <pt x="149" y="591" on="0"/>
        <pt x="101" y="640" on="0"/>
        <pt x="101" y="674" on="1"/>
        <pt x="101" y="709" on="0"/>
        <pt x="149" y="757" on="0"/>
        <pt x="187" y="757" on="1"/>
        <pt x="224" y="757" on="0"/>
        <pt x="273" y="709" on="0"/>
        <pt x="273" y="674" on="1"/>
        <pt x="273" y="640" on="0"/>
        <pt x="224" y="591" on="0"/>
      </contour>
      <contour>
        <pt x="376" y="64" on="1"/>
        <pt x="369" y="55" on="0"/>
        <pt x="335" y="19" on="0"/>
        <pt x="273" y="-10" on="0"/>
        <pt x="223" y="-10" on="1"/>
        <pt x="144" y="-10" on="0"/>
        <pt x="48" y="71" on="0"/>
        <pt x="48" y="142" on="1"/>
        <pt x="48" y="194" on="0"/>
        <pt x="101" y="263" on="0"/>
        <pt x="195" y="302" on="0"/>
        <pt x="255" y="309" on="1"/>
        <pt x="383" y="326" on="1"/>
        <pt x="383" y="344" on="1"/>
        <pt x="383" y="376" on="0"/>
        <pt x="343" y="426" on="0"/>
        <pt x="297" y="426" on="1"/>
        <pt x="265" y="426" on="0"/>
        <pt x="229" y="406" on="0"/>
        <pt x="212" y="379" on="0"/>
        <pt x="207" y="358" on="0"/>
        <pt x="207" y="358" on="1"/>
        <pt x="64" y="358" on="1"/>
        <pt x="64" y="358" on="0"/>
        <pt x="71" y="395" on="0"/>
        <pt x="94" y="449" on="0"/>
        <pt x="145" y="503" on="0"/>
        <pt x="232" y="540" on="0"/>
        <pt x="300" y="540" on="1"/>
        <pt x="383" y="540" on="0"/>
        <pt x="485" y="482" on="0"/>
        <pt x="533" y="393" on="0"/>
        <pt x="533" y="346" on="1"/>
        <pt x="533" y="0" on="1"/>
        <pt x="383" y="0" on="1"/>
        <pt x="383" y="64" on="1"/>
      </contour>
      <contour>
        <pt x="195" y="154" on="1"/>
        <pt x="195" y="124" on="0"/>
        <pt x="240" y="93" on="0"/>
        <pt x="273" y="93" on="1"/>
        <pt x="320" y="93" on="0"/>
        <pt x="383" y="159" on="0"/>
        <pt x="383" y="215" on="1"/>
        <pt x="383" y="232" on="1"/>
        <pt x="274" y="217" on="1"/>
        <pt x="239" y="212" on="0"/>
        <pt x="195" y="184" on="0"/>
      </contour>
    </TTGlyph>
    <TTGlyph name="ae" xMin="45" yMin="-10" xMax="905" yMax="540">
      <contour>
        <pt x="237" y="-10" on="1"/>
        <pt x="153" y="-10" on="0"/>
        <pt x="45" y="74" on="0"/>
        <pt x="45" y="152" on="1"/>
        <pt x="45" y="225" on="0"/>
        <pt x="155" y="312" on="0"/>
        <pt x="260" y="314" on="1"/>
        <pt x="386" y="316" on="1"/>
        <pt x="386" y="338" on="1"/>
        <pt x="386" y="372" on="0"/>
        <pt x="344" y="426" on="0"/>
        <pt x="295" y="426" on="1"/>
        <pt x="264" y="426" on="0"/>
        <pt x="226" y="405" on="0"/>
        <pt x="208" y="379" on="0"/>
        <pt x="202" y="358" on="0"/>
        <pt x="202" y="358" on="1"/>
        <pt x="58" y="358" on="1"/>
        <pt x="58" y="358" on="0"/>
        <pt x="66" y="395" on="0"/>
        <pt x="91" y="449" on="0"/>
        <pt x="142" y="503" on="0"/>
        <pt x="225" y="540" on="0"/>
        <pt x="289" y="540" on="1"/>
        <pt x="350" y="540" on="0"/>
        <pt x="427" y="507" on="0"/>
        <pt x="466" y="466" on="0"/>
        <pt x="469" y="455" on="1"/>
        <pt x="473" y="455" on="1"/>
        <pt x="478" y="465" on="0"/>
        <pt x="519" y="506" on="0"/>
        <pt x="597" y="540" on="0"/>
        <pt x="656" y="540" on="1"/>
        <pt x="727" y="540" on="0"/>
        <pt x="840" y="478" on="0"/>
        <pt x="905" y="354" on="0"/>
        <pt x="905" y="261" on="1"/>
        <pt x="905" y="224" on="1"/>
        <pt x="536" y="224" on="1"/>
        <pt x="539" y="177" on="0"/>
        <pt x="603" y="105" on="0"/>
        <pt x="659" y="105" on="1"/>
        <pt x="691" y="105" on="0"/>
        <pt x="732" y="125" on="0"/>
        <pt x="754" y="151" on="0"/>
        <pt x="763" y="171" on="0"/>
        <pt x="763" y="171" on="1"/>
        <pt x="901" y="171" on="1"/>
        <pt x="901" y="171" on="0"/>
        <pt x="891" y="134" on="0"/>
        <pt x="863" y="80" on="0"/>
        <pt x="809" y="26" on="0"/>
        <pt x="722" y="-10" on="0"/>
        <pt x="659" y="-10" on="1"/>
        <pt x="603" y="-10" on="0"/>
        <pt x="523" y="18" on="0"/>
        <pt x="471" y="58" on="0"/>
        <pt x="445" y="93" on="0"/>
        <pt x="442" y="99" on="1"/>
        <pt x="437" y="99" on="1"/>
        <pt x="437" y="99" on="0"/>
        <pt x="419" y="66" on="0"/>
        <pt x="374" y="23" on="0"/>
        <pt x="296" y="-10" on="0"/>
      </contour>
      <contour>
        <pt x="536" y="316" on="1"/>
        <pt x="762" y="316" on="1"/>
        <pt x="759" y="375" on="0"/>
        <pt x="697" y="428" on="0"/>
        <pt x="651" y="428" on="1"/>
        <pt x="604" y="428" on="0"/>
        <pt x="540" y="371" on="0"/>
      </contour>
      <contour>
        <pt x="275" y="93" on="1"/>
        <pt x="325" y="93" on="0"/>
        <pt x="386" y="157" on="0"/>
        <pt x="386" y="206" on="1"/>
        <pt x="386" y="222" on="1"/>
        <pt x="274" y="220" on="1"/>
        <pt x="231" y="219" on="0"/>
        <pt x="191" y="183" on="0"/>
        <pt x="191" y="157" on="1"/>
        <pt x="191" y="126" on="0"/>
        <pt x="240" y="93" on="0"/>
      </contour>
    </TTGlyph>
    <TTGlyph name="agrave" xMin="53" yMin="-10" xMax="602" yMax="784">
      <contour>
        <pt x="278" y="603" on="1"/>
        <pt x="169" y="784" on="1"/>
        <pt x="310" y="784" on="1"/>
        <pt x="391" y="604" on="1"/>
      </contour>
      <contour>
        <pt x="286" y="540" on="1"/>
        <pt x="337" y="540" on="0"/>
        <pt x="403" y="507" on="0"/>
        <pt x="438" y="469" on="0"/>
        <pt x="442" y="462" on="1"/>
        <pt x="450" y="462" on="1"/>
        <pt x="450" y="530" on="1"/>
        <pt x="602" y="530" on="1"/>
        <pt x="602" y="0" on="1"/>
        <pt x="450" y="0" on="1"/>
        <pt x="450" y="68" on="1"/>
        <pt x="442" y="68" on="1"/>
        <pt x="438" y="61" on="0"/>
        <pt x="403" y="23" on="0"/>
        <pt x="337" y="-10" on="0"/>
        <pt x="286" y="-10" on="1"/>
        <pt x="227" y="-10" on="0"/>
        <pt x="140" y="37" on="0"/>
        <pt x="82" y="116" on="0"/>
        <pt x="53" y="214" on="0"/>
        <pt x="53" y="265" on="1"/>
        <pt x="53" y="316" on="0"/>
        <pt x="82" y="414" on="0"/>
        <pt x="140" y="493" on="0"/>
        <pt x="227" y="540" on="0"/>
      </contour>
      <contour>
        <pt x="330" y="417" on="1"/>
        <pt x="289" y="417" on="0"/>
        <pt x="234" y="372" on="0"/>
        <pt x="207" y="302" on="0"/>
        <pt x="207" y="265" on="1"/>
        <pt x="207" y="228" on="0"/>
        <pt x="234" y="158" on="0"/>
        <pt x="289" y="113" on="0"/>
        <pt x="330" y="113" on="1"/>
        <pt x="371" y="113" on="0"/>
        <pt x="426" y="158" on="0"/>
        <pt x="453" y="228" on="0"/>
        <pt x="453" y="265" on="1"/>
        <pt x="453" y="302" on="0"/>
        <pt x="426" y="372" on="0"/>
        <pt x="371" y="417" on="0"/>
      </contour>
    </TTGlyph>
    <TTGlyph name="agrave.ss01" xMin="48" yMin="-10" xMax="533" yMax="784">
      <contour>
        <pt x="247" y="603" on="1"/>
        <pt x="138" y="784" on="1"/>
        <pt x="279" y="784" on="1"/>
        <pt x="359" y="604" on="1"/>
      </contour>
      <contour>
        <pt x="376" y="64" on="1"/>
        <pt x="369" y="55" on="0"/>
        <pt x="335" y="19" on="0"/>
        <pt x="273" y="-10" on="0"/>
        <pt x="223" y="-10" on="1"/>
        <pt x="144" y="-10" on="0"/>
        <pt x="48" y="71" on="0"/>
        <pt x="48" y="142" on="1"/>
        <pt x="48" y="194" on="0"/>
        <pt x="101" y="263" on="0"/>
        <pt x="195" y="302" on="0"/>
        <pt x="255" y="309" on="1"/>
        <pt x="383" y="326" on="1"/>
        <pt x="383" y="344" on="1"/>
        <pt x="383" y="376" on="0"/>
        <pt x="343" y="426" on="0"/>
        <pt x="297" y="426" on="1"/>
        <pt x="265" y="426" on="0"/>
        <pt x="229" y="406" on="0"/>
        <pt x="212" y="379" on="0"/>
        <pt x="207" y="358" on="0"/>
        <pt x="207" y="358" on="1"/>
        <pt x="64" y="358" on="1"/>
        <pt x="64" y="358" on="0"/>
        <pt x="71" y="395" on="0"/>
        <pt x="94" y="449" on="0"/>
        <pt x="145" y="503" on="0"/>
        <pt x="232" y="540" on="0"/>
        <pt x="300" y="540" on="1"/>
        <pt x="383" y="540" on="0"/>
        <pt x="485" y="482" on="0"/>
        <pt x="533" y="393" on="0"/>
        <pt x="533" y="346" on="1"/>
        <pt x="533" y="0" on="1"/>
        <pt x="383" y="0" on="1"/>
        <pt x="383" y="64" on="1"/>
      </contour>
      <contour>
        <pt x="195" y="154" on="1"/>
        <pt x="195" y="124" on="0"/>
        <pt x="240" y="93" on="0"/>
        <pt x="273" y="93" on="1"/>
        <pt x="320" y="93" on="0"/>
        <pt x="383" y="159" on="0"/>
        <pt x="383" y="215" on="1"/>
        <pt x="383" y="232" on="1"/>
        <pt x="274" y="217" on="1"/>
        <pt x="239" y="212" on="0"/>
        <pt x="195" y="184" on="0"/>
      </contour>
    </TTGlyph>
    <TTGlyph name="amacron" xMin="53" yMin="-10" xMax="602" yMax="705">
      <contour>
        <pt x="169" y="615" on="1"/>
        <pt x="169" y="705" on="1"/>
        <pt x="495" y="705" on="1"/>
        <pt x="495" y="615" on="1"/>
      </contour>
      <contour>
        <pt x="286" y="540" on="1"/>
        <pt x="337" y="540" on="0"/>
        <pt x="403" y="507" on="0"/>
        <pt x="438" y="469" on="0"/>
        <pt x="442" y="462" on="1"/>
        <pt x="450" y="462" on="1"/>
        <pt x="450" y="530" on="1"/>
        <pt x="602" y="530" on="1"/>
        <pt x="602" y="0" on="1"/>
        <pt x="450" y="0" on="1"/>
        <pt x="450" y="68" on="1"/>
        <pt x="442" y="68" on="1"/>
        <pt x="438" y="61" on="0"/>
        <pt x="403" y="23" on="0"/>
        <pt x="337" y="-10" on="0"/>
        <pt x="286" y="-10" on="1"/>
        <pt x="227" y="-10" on="0"/>
        <pt x="140" y="37" on="0"/>
        <pt x="82" y="116" on="0"/>
        <pt x="53" y="214" on="0"/>
        <pt x="53" y="265" on="1"/>
        <pt x="53" y="316" on="0"/>
        <pt x="82" y="414" on="0"/>
        <pt x="140" y="493" on="0"/>
        <pt x="227" y="540" on="0"/>
      </contour>
      <contour>
        <pt x="330" y="417" on="1"/>
        <pt x="289" y="417" on="0"/>
        <pt x="234" y="372" on="0"/>
        <pt x="207" y="302" on="0"/>
        <pt x="207" y="265" on="1"/>
        <pt x="207" y="228" on="0"/>
        <pt x="234" y="158" on="0"/>
        <pt x="289" y="113" on="0"/>
        <pt x="330" y="113" on="1"/>
        <pt x="371" y="113" on="0"/>
        <pt x="426" y="158" on="0"/>
        <pt x="453" y="228" on="0"/>
        <pt x="453" y="265" on="1"/>
        <pt x="453" y="302" on="0"/>
        <pt x="426" y="372" on="0"/>
        <pt x="371" y="417" on="0"/>
      </contour>
    </TTGlyph>
    <TTGlyph name="amacron.ss01" xMin="48" yMin="-10" xMax="533" yMax="705">
      <contour>
        <pt x="138" y="615" on="1"/>
        <pt x="138" y="705" on="1"/>
        <pt x="463" y="705" on="1"/>
        <pt x="463" y="615" on="1"/>
      </contour>
      <contour>
        <pt x="376" y="64" on="1"/>
        <pt x="369" y="55" on="0"/>
        <pt x="335" y="19" on="0"/>
        <pt x="273" y="-10" on="0"/>
        <pt x="223" y="-10" on="1"/>
        <pt x="144" y="-10" on="0"/>
        <pt x="48" y="71" on="0"/>
        <pt x="48" y="142" on="1"/>
        <pt x="48" y="194" on="0"/>
        <pt x="101" y="263" on="0"/>
        <pt x="195" y="302" on="0"/>
        <pt x="255" y="309" on="1"/>
        <pt x="383" y="326" on="1"/>
        <pt x="383" y="344" on="1"/>
        <pt x="383" y="376" on="0"/>
        <pt x="343" y="426" on="0"/>
        <pt x="297" y="426" on="1"/>
        <pt x="265" y="426" on="0"/>
        <pt x="229" y="406" on="0"/>
        <pt x="212" y="379" on="0"/>
        <pt x="207" y="358" on="0"/>
        <pt x="207" y="358" on="1"/>
        <pt x="64" y="358" on="1"/>
        <pt x="64" y="358" on="0"/>
        <pt x="71" y="395" on="0"/>
        <pt x="94" y="449" on="0"/>
        <pt x="145" y="503" on="0"/>
        <pt x="232" y="540" on="0"/>
        <pt x="300" y="540" on="1"/>
        <pt x="383" y="540" on="0"/>
        <pt x="485" y="482" on="0"/>
        <pt x="533" y="393" on="0"/>
        <pt x="533" y="346" on="1"/>
        <pt x="533" y="0" on="1"/>
        <pt x="383" y="0" on="1"/>
        <pt x="383" y="64" on="1"/>
      </contour>
      <contour>
        <pt x="195" y="154" on="1"/>
        <pt x="195" y="124" on="0"/>
        <pt x="240" y="93" on="0"/>
        <pt x="273" y="93" on="1"/>
        <pt x="320" y="93" on="0"/>
        <pt x="383" y="159" on="0"/>
        <pt x="383" y="215" on="1"/>
        <pt x="383" y="232" on="1"/>
        <pt x="274" y="217" on="1"/>
        <pt x="239" y="212" on="0"/>
        <pt x="195" y="184" on="0"/>
      </contour>
    </TTGlyph>
    <TTGlyph name="ampersand" xMin="46" yMin="-10" xMax="734" yMax="750">
      <contour>
        <pt x="312" y="-10" on="1"/>
        <pt x="238" y="-10" on="0"/>
        <pt x="118" y="43" on="0"/>
        <pt x="46" y="142" on="0"/>
        <pt x="46" y="212" on="1"/>
        <pt x="46" y="279" on="0"/>
        <pt x="116" y="376" on="0"/>
        <pt x="182" y="414" on="1"/>
        <pt x="159" y="441" on="0"/>
        <pt x="118" y="515" on="0"/>
        <pt x="118" y="568" on="1"/>
        <pt x="118" y="628" on="0"/>
        <pt x="176" y="709" on="0"/>
        <pt x="267" y="750" on="0"/>
        <pt x="317" y="750" on="1"/>
        <pt x="367" y="750" on="0"/>
        <pt x="455" y="711" on="0"/>
        <pt x="511" y="637" on="0"/>
        <pt x="511" y="582" on="1"/>
        <pt x="511" y="516" on="0"/>
        <pt x="432" y="426" on="0"/>
        <pt x="373" y="394" on="1"/>
        <pt x="506" y="250" on="1"/>
        <pt x="518" y="283" on="0"/>
        <pt x="532" y="368" on="0"/>
        <pt x="532" y="421" on="1"/>
        <pt x="653" y="421" on="1"/>
        <pt x="653" y="336" on="0"/>
        <pt x="622" y="203" on="0"/>
        <pt x="595" y="153" on="1"/>
        <pt x="734" y="2" on="1"/>
        <pt x="548" y="2" on="1"/>
        <pt x="505" y="50" on="1"/>
        <pt x="464" y="19" on="0"/>
        <pt x="365" y="-10" on="0"/>
      </contour>
      <contour>
        <pt x="244" y="574" on="1"/>
        <pt x="244" y="546" on="0"/>
        <pt x="280" y="495" on="0"/>
        <pt x="301" y="472" on="1"/>
        <pt x="336" y="489" on="0"/>
        <pt x="386" y="540" on="0"/>
        <pt x="386" y="577" on="1"/>
        <pt x="386" y="611" on="0"/>
        <pt x="343" y="646" on="0"/>
        <pt x="317" y="646" on="1"/>
        <pt x="289" y="646" on="0"/>
        <pt x="244" y="609" on="0"/>
      </contour>
      <contour>
        <pt x="184" y="223" on="1"/>
        <pt x="184" y="174" on="0"/>
        <pt x="258" y="108" on="0"/>
        <pt x="320" y="108" on="1"/>
        <pt x="348" y="108" on="0"/>
        <pt x="402" y="123" on="0"/>
        <pt x="425" y="140" on="1"/>
        <pt x="254" y="332" on="1"/>
        <pt x="221" y="310" on="0"/>
        <pt x="184" y="257" on="0"/>
      </contour>
    </TTGlyph>
    <TTGlyph name="aogonek" xMin="53" yMin="-184" xMax="639" yMax="540">
      <contour>
        <pt x="581" y="-184" on="1"/>
        <pt x="508" y="-184" on="0"/>
        <pt x="441" y="-125" on="0"/>
        <pt x="441" y="-84" on="1"/>
        <pt x="441" y="-54" on="0"/>
        <pt x="470" y="-13" on="0"/>
        <pt x="489" y="0" on="1"/>
        <pt x="450" y="0" on="1"/>
        <pt x="450" y="68" on="1"/>
        <pt x="442" y="68" on="1"/>
        <pt x="438" y="61" on="0"/>
        <pt x="403" y="23" on="0"/>
        <pt x="337" y="-10" on="0"/>
        <pt x="286" y="-10" on="1"/>
        <pt x="227" y="-10" on="0"/>
        <pt x="140" y="37" on="0"/>
        <pt x="82" y="116" on="0"/>
        <pt x="53" y="214" on="0"/>
        <pt x="53" y="265" on="1"/>
        <pt x="53" y="316" on="0"/>
        <pt x="82" y="414" on="0"/>
        <pt x="140" y="493" on="0"/>
        <pt x="227" y="540" on="0"/>
        <pt x="286" y="540" on="1"/>
        <pt x="337" y="540" on="0"/>
        <pt x="403" y="507" on="0"/>
        <pt x="438" y="469" on="0"/>
        <pt x="442" y="462" on="1"/>
        <pt x="450" y="462" on="1"/>
        <pt x="450" y="530" on="1"/>
        <pt x="602" y="530" on="1"/>
        <pt x="602" y="0" on="1"/>
        <pt x="602" y="0" on="0"/>
        <pt x="576" y="-13" on="0"/>
        <pt x="551" y="-39" on="0"/>
        <pt x="551" y="-58" on="1"/>
        <pt x="551" y="-73" on="0"/>
        <pt x="576" y="-96" on="0"/>
        <pt x="605" y="-96" on="1"/>
        <pt x="617" y="-96" on="0"/>
        <pt x="639" y="-93" on="0"/>
        <pt x="639" y="-93" on="1"/>
        <pt x="639" y="-179" on="1"/>
        <pt x="639" y="-179" on="0"/>
        <pt x="606" y="-184" on="0"/>
      </contour>
      <contour>
        <pt x="330" y="417" on="1"/>
        <pt x="289" y="417" on="0"/>
        <pt x="234" y="372" on="0"/>
        <pt x="207" y="302" on="0"/>
        <pt x="207" y="265" on="1"/>
        <pt x="207" y="228" on="0"/>
        <pt x="234" y="158" on="0"/>
        <pt x="289" y="113" on="0"/>
        <pt x="330" y="113" on="1"/>
        <pt x="371" y="113" on="0"/>
        <pt x="426" y="158" on="0"/>
        <pt x="453" y="228" on="0"/>
        <pt x="453" y="265" on="1"/>
        <pt x="453" y="302" on="0"/>
        <pt x="426" y="372" on="0"/>
        <pt x="371" y="417" on="0"/>
      </contour>
    </TTGlyph>
    <TTGlyph name="aogonek.ss01" xMin="48" yMin="-184" xMax="570" yMax="540">
      <contour>
        <pt x="512" y="-184" on="1"/>
        <pt x="439" y="-184" on="0"/>
        <pt x="372" y="-125" on="0"/>
        <pt x="372" y="-84" on="1"/>
        <pt x="372" y="-54" on="0"/>
        <pt x="401" y="-13" on="0"/>
        <pt x="420" y="0" on="1"/>
        <pt x="383" y="0" on="1"/>
        <pt x="383" y="64" on="1"/>
        <pt x="376" y="64" on="1"/>
        <pt x="369" y="55" on="0"/>
        <pt x="335" y="19" on="0"/>
        <pt x="273" y="-10" on="0"/>
        <pt x="223" y="-10" on="1"/>
        <pt x="144" y="-10" on="0"/>
        <pt x="48" y="71" on="0"/>
        <pt x="48" y="142" on="1"/>
        <pt x="48" y="194" on="0"/>
        <pt x="101" y="263" on="0"/>
        <pt x="195" y="302" on="0"/>
        <pt x="255" y="309" on="1"/>
        <pt x="383" y="326" on="1"/>
        <pt x="383" y="344" on="1"/>
        <pt x="383" y="376" on="0"/>
        <pt x="343" y="426" on="0"/>
        <pt x="297" y="426" on="1"/>
        <pt x="265" y="426" on="0"/>
        <pt x="229" y="406" on="0"/>
        <pt x="212" y="379" on="0"/>
        <pt x="207" y="358" on="0"/>
        <pt x="207" y="358" on="1"/>
        <pt x="64" y="358" on="1"/>
        <pt x="64" y="358" on="0"/>
        <pt x="71" y="395" on="0"/>
        <pt x="94" y="449" on="0"/>
        <pt x="145" y="503" on="0"/>
        <pt x="232" y="540" on="0"/>
        <pt x="300" y="540" on="1"/>
        <pt x="383" y="540" on="0"/>
        <pt x="485" y="482" on="0"/>
        <pt x="533" y="393" on="0"/>
        <pt x="533" y="346" on="1"/>
        <pt x="533" y="0" on="1"/>
        <pt x="533" y="0" on="0"/>
        <pt x="507" y="-13" on="0"/>
        <pt x="482" y="-39" on="0"/>
        <pt x="482" y="-58" on="1"/>
        <pt x="482" y="-73" on="0"/>
        <pt x="507" y="-96" on="0"/>
        <pt x="536" y="-96" on="1"/>
        <pt x="548" y="-96" on="0"/>
        <pt x="570" y="-93" on="0"/>
        <pt x="570" y="-93" on="1"/>
        <pt x="570" y="-179" on="1"/>
        <pt x="570" y="-179" on="0"/>
        <pt x="537" y="-184" on="0"/>
      </contour>
      <contour>
        <pt x="195" y="154" on="1"/>
        <pt x="195" y="124" on="0"/>
        <pt x="240" y="93" on="0"/>
        <pt x="273" y="93" on="1"/>
        <pt x="320" y="93" on="0"/>
        <pt x="383" y="159" on="0"/>
        <pt x="383" y="215" on="1"/>
        <pt x="383" y="232" on="1"/>
        <pt x="274" y="217" on="1"/>
        <pt x="239" y="212" on="0"/>
        <pt x="195" y="184" on="0"/>
      </contour>
    </TTGlyph>
    <TTGlyph name="approxequal" xMin="116" yMin="158" xMax="478" yMax="533">
      <contour>
        <pt x="372" y="382" on="1"/>
        <pt x="344" y="382" on="0"/>
        <pt x="303" y="400" on="0"/>
        <pt x="272" y="425" on="0"/>
        <pt x="245" y="443" on="0"/>
        <pt x="230" y="443" on="1"/>
        <pt x="212" y="443" on="0"/>
        <pt x="199" y="413" on="0"/>
        <pt x="199" y="387" on="1"/>
        <pt x="116" y="387" on="1"/>
        <pt x="116" y="420" on="0"/>
        <pt x="133" y="488" on="0"/>
        <pt x="179" y="533" on="0"/>
        <pt x="222" y="533" on="1"/>
        <pt x="251" y="533" on="0"/>
        <pt x="293" y="514" on="0"/>
        <pt x="325" y="490" on="0"/>
        <pt x="352" y="471" on="0"/>
        <pt x="366" y="471" on="1"/>
        <pt x="396" y="471" on="0"/>
        <pt x="396" y="527" on="1"/>
        <pt x="478" y="527" on="1"/>
        <pt x="478" y="494" on="0"/>
        <pt x="461" y="427" on="0"/>
        <pt x="416" y="382" on="0"/>
      </contour>
      <contour>
        <pt x="372" y="158" on="1"/>
        <pt x="344" y="158" on="0"/>
        <pt x="303" y="177" on="0"/>
        <pt x="272" y="202" on="0"/>
        <pt x="245" y="220" on="0"/>
        <pt x="230" y="220" on="1"/>
        <pt x="212" y="220" on="0"/>
        <pt x="199" y="190" on="0"/>
        <pt x="199" y="164" on="1"/>
        <pt x="116" y="164" on="1"/>
        <pt x="116" y="197" on="0"/>
        <pt x="133" y="264" on="0"/>
        <pt x="179" y="310" on="0"/>
        <pt x="222" y="310" on="1"/>
        <pt x="251" y="310" on="0"/>
        <pt x="293" y="291" on="0"/>
        <pt x="325" y="267" on="0"/>
        <pt x="352" y="248" on="0"/>
        <pt x="366" y="248" on="1"/>
        <pt x="396" y="248" on="0"/>
        <pt x="396" y="304" on="1"/>
        <pt x="478" y="304" on="1"/>
        <pt x="478" y="271" on="0"/>
        <pt x="461" y="204" on="0"/>
        <pt x="416" y="158" on="0"/>
      </contour>
    </TTGlyph>
    <TTGlyph name="aring" xMin="53" yMin="-10" xMax="602" yMax="859">
      <contour>
        <pt x="332" y="588" on="1"/>
        <pt x="294" y="588" on="0"/>
        <pt x="232" y="624" on="0"/>
        <pt x="196" y="686" on="0"/>
        <pt x="196" y="723" on="1"/>
        <pt x="196" y="761" on="0"/>
        <pt x="232" y="822" on="0"/>
        <pt x="294" y="859" on="0"/>
        <pt x="332" y="859" on="1"/>
        <pt x="369" y="859" on="0"/>
        <pt x="431" y="822" on="0"/>
        <pt x="468" y="761" on="0"/>
        <pt x="468" y="723" on="1"/>
        <pt x="468" y="686" on="0"/>
        <pt x="431" y="624" on="0"/>
        <pt x="369" y="588" on="0"/>
      </contour>
      <contour>
        <pt x="332" y="669" on="1"/>
        <pt x="354" y="669" on="0"/>
        <pt x="386" y="700" on="0"/>
        <pt x="386" y="723" on="1"/>
        <pt x="386" y="746" on="0"/>
        <pt x="354" y="777" on="0"/>
        <pt x="332" y="777" on="1"/>
        <pt x="309" y="777" on="0"/>
        <pt x="277" y="746" on="0"/>
        <pt x="277" y="723" on="1"/>
        <pt x="277" y="700" on="0"/>
        <pt x="309" y="669" on="0"/>
      </contour>
      <contour>
        <pt x="286" y="540" on="1"/>
        <pt x="337" y="540" on="0"/>
        <pt x="403" y="507" on="0"/>
        <pt x="438" y="469" on="0"/>
        <pt x="442" y="462" on="1"/>
        <pt x="450" y="462" on="1"/>
        <pt x="450" y="530" on="1"/>
        <pt x="602" y="530" on="1"/>
        <pt x="602" y="0" on="1"/>
        <pt x="450" y="0" on="1"/>
        <pt x="450" y="68" on="1"/>
        <pt x="442" y="68" on="1"/>
        <pt x="438" y="61" on="0"/>
        <pt x="403" y="23" on="0"/>
        <pt x="337" y="-10" on="0"/>
        <pt x="286" y="-10" on="1"/>
        <pt x="227" y="-10" on="0"/>
        <pt x="140" y="37" on="0"/>
        <pt x="82" y="116" on="0"/>
        <pt x="53" y="214" on="0"/>
        <pt x="53" y="265" on="1"/>
        <pt x="53" y="316" on="0"/>
        <pt x="82" y="414" on="0"/>
        <pt x="140" y="493" on="0"/>
        <pt x="227" y="540" on="0"/>
      </contour>
      <contour>
        <pt x="330" y="417" on="1"/>
        <pt x="289" y="417" on="0"/>
        <pt x="234" y="372" on="0"/>
        <pt x="207" y="302" on="0"/>
        <pt x="207" y="265" on="1"/>
        <pt x="207" y="228" on="0"/>
        <pt x="234" y="158" on="0"/>
        <pt x="289" y="113" on="0"/>
        <pt x="330" y="113" on="1"/>
        <pt x="371" y="113" on="0"/>
        <pt x="426" y="158" on="0"/>
        <pt x="453" y="228" on="0"/>
        <pt x="453" y="265" on="1"/>
        <pt x="453" y="302" on="0"/>
        <pt x="426" y="372" on="0"/>
        <pt x="371" y="417" on="0"/>
      </contour>
    </TTGlyph>
    <TTGlyph name="aring.ss01" xMin="48" yMin="-10" xMax="533" yMax="859">
      <contour>
        <pt x="301" y="588" on="1"/>
        <pt x="263" y="588" on="0"/>
        <pt x="201" y="624" on="0"/>
        <pt x="164" y="686" on="0"/>
        <pt x="164" y="723" on="1"/>
        <pt x="164" y="761" on="0"/>
        <pt x="201" y="822" on="0"/>
        <pt x="263" y="859" on="0"/>
        <pt x="301" y="859" on="1"/>
        <pt x="338" y="859" on="0"/>
        <pt x="400" y="822" on="0"/>
        <pt x="436" y="761" on="0"/>
        <pt x="436" y="723" on="1"/>
        <pt x="436" y="686" on="0"/>
        <pt x="400" y="624" on="0"/>
        <pt x="338" y="588" on="0"/>
      </contour>
      <contour>
        <pt x="301" y="669" on="1"/>
        <pt x="323" y="669" on="0"/>
        <pt x="355" y="700" on="0"/>
        <pt x="355" y="723" on="1"/>
        <pt x="355" y="746" on="0"/>
        <pt x="323" y="777" on="0"/>
        <pt x="301" y="777" on="1"/>
        <pt x="278" y="777" on="0"/>
        <pt x="246" y="746" on="0"/>
        <pt x="246" y="723" on="1"/>
        <pt x="246" y="700" on="0"/>
        <pt x="278" y="669" on="0"/>
      </contour>
      <contour>
        <pt x="376" y="64" on="1"/>
        <pt x="369" y="55" on="0"/>
        <pt x="335" y="19" on="0"/>
        <pt x="273" y="-10" on="0"/>
        <pt x="223" y="-10" on="1"/>
        <pt x="144" y="-10" on="0"/>
        <pt x="48" y="71" on="0"/>
        <pt x="48" y="142" on="1"/>
        <pt x="48" y="194" on="0"/>
        <pt x="101" y="263" on="0"/>
        <pt x="195" y="302" on="0"/>
        <pt x="255" y="309" on="1"/>
        <pt x="383" y="326" on="1"/>
        <pt x="383" y="344" on="1"/>
        <pt x="383" y="376" on="0"/>
        <pt x="343" y="426" on="0"/>
        <pt x="297" y="426" on="1"/>
        <pt x="265" y="426" on="0"/>
        <pt x="229" y="406" on="0"/>
        <pt x="212" y="379" on="0"/>
        <pt x="207" y="358" on="0"/>
        <pt x="207" y="358" on="1"/>
        <pt x="64" y="358" on="1"/>
        <pt x="64" y="358" on="0"/>
        <pt x="71" y="395" on="0"/>
        <pt x="94" y="449" on="0"/>
        <pt x="145" y="503" on="0"/>
        <pt x="232" y="540" on="0"/>
        <pt x="300" y="540" on="1"/>
        <pt x="383" y="540" on="0"/>
        <pt x="485" y="482" on="0"/>
        <pt x="533" y="393" on="0"/>
        <pt x="533" y="346" on="1"/>
        <pt x="533" y="0" on="1"/>
        <pt x="383" y="0" on="1"/>
        <pt x="383" y="64" on="1"/>
      </contour>
      <contour>
        <pt x="195" y="154" on="1"/>
        <pt x="195" y="124" on="0"/>
        <pt x="240" y="93" on="0"/>
        <pt x="273" y="93" on="1"/>
        <pt x="320" y="93" on="0"/>
        <pt x="383" y="159" on="0"/>
        <pt x="383" y="215" on="1"/>
        <pt x="383" y="232" on="1"/>
        <pt x="274" y="217" on="1"/>
        <pt x="239" y="212" on="0"/>
        <pt x="195" y="184" on="0"/>
      </contour>
    </TTGlyph>
    <TTGlyph name="asciicircum" xMin="116" yMin="560" xMax="496" yMax="740">
      <contour>
        <pt x="116" y="560" on="1"/>
        <pt x="246" y="740" on="1"/>
        <pt x="366" y="740" on="1"/>
        <pt x="496" y="560" on="1"/>
        <pt x="377" y="560" on="1"/>
        <pt x="306" y="664" on="1"/>
        <pt x="235" y="560" on="1"/>
      </contour>
    </TTGlyph>
    <TTGlyph name="asciitilde" xMin="64" yMin="314" xMax="426" yMax="466">
      <contour>
        <pt x="320" y="314" on="1"/>
        <pt x="292" y="314" on="0"/>
        <pt x="251" y="333" on="0"/>
        <pt x="220" y="358" on="0"/>
        <pt x="192" y="376" on="0"/>
        <pt x="178" y="376" on="1"/>
        <pt x="160" y="376" on="0"/>
        <pt x="147" y="346" on="0"/>
        <pt x="147" y="320" on="1"/>
        <pt x="64" y="320" on="1"/>
        <pt x="64" y="353" on="0"/>
        <pt x="81" y="420" on="0"/>
        <pt x="127" y="466" on="0"/>
        <pt x="170" y="466" on="1"/>
        <pt x="199" y="466" on="0"/>
        <pt x="240" y="447" on="0"/>
        <pt x="272" y="423" on="0"/>
        <pt x="300" y="404" on="0"/>
        <pt x="314" y="404" on="1"/>
        <pt x="343" y="404" on="0"/>
        <pt x="343" y="460" on="1"/>
        <pt x="426" y="460" on="1"/>
        <pt x="426" y="427" on="0"/>
        <pt x="409" y="360" on="0"/>
        <pt x="364" y="314" on="0"/>
      </contour>
    </TTGlyph>
    <TTGlyph name="asterisk" xMin="40" yMin="328" xMax="473" yMax="740">
      <contour>
        <pt x="177" y="328" on="1"/>
        <pt x="89" y="391" on="1"/>
        <pt x="174" y="503" on="1"/>
        <pt x="40" y="544" on="1"/>
        <pt x="73" y="647" on="1"/>
        <pt x="205" y="600" on="1"/>
        <pt x="202" y="740" on="1"/>
        <pt x="310" y="740" on="1"/>
        <pt x="307" y="600" on="1"/>
        <pt x="440" y="647" on="1"/>
        <pt x="473" y="544" on="1"/>
        <pt x="339" y="503" on="1"/>
        <pt x="424" y="391" on="1"/>
        <pt x="336" y="328" on="1"/>
        <pt x="256" y="442" on="1"/>
      </contour>
    </TTGlyph>
    <TTGlyph name="at" xMin="40" yMin="-169" xMax="978" yMax="756">
      <contour>
        <pt x="523" y="-169" on="1"/>
        <pt x="401" y="-169" on="0"/>
        <pt x="219" y="-92" on="0"/>
        <pt x="99" y="39" on="0"/>
        <pt x="40" y="203" on="0"/>
        <pt x="40" y="289" on="1"/>
        <pt x="40" y="376" on="0"/>
        <pt x="101" y="543" on="0"/>
        <pt x="221" y="677" on="0"/>
        <pt x="399" y="756" on="0"/>
        <pt x="516" y="756" on="1"/>
        <pt x="609" y="756" on="0"/>
        <pt x="775" y="698" on="0"/>
        <pt x="904" y="586" on="0"/>
        <pt x="978" y="425" on="0"/>
        <pt x="978" y="322" on="1"/>
        <pt x="978" y="250" on="0"/>
        <pt x="935" y="132" on="0"/>
        <pt x="847" y="64" on="0"/>
        <pt x="780" y="64" on="1"/>
        <pt x="730" y="64" on="0"/>
        <pt x="665" y="95" on="0"/>
        <pt x="630" y="135" on="0"/>
        <pt x="626" y="146" on="1"/>
        <pt x="617" y="146" on="1"/>
        <pt x="615" y="142" on="0"/>
        <pt x="598" y="116" on="0"/>
        <pt x="563" y="85" on="0"/>
        <pt x="509" y="64" on="0"/>
        <pt x="470" y="64" on="1"/>
        <pt x="406" y="64" on="0"/>
        <pt x="321" y="129" on="0"/>
        <pt x="279" y="230" on="0"/>
        <pt x="279" y="286" on="1"/>
        <pt x="279" y="340" on="0"/>
        <pt x="320" y="440" on="0"/>
        <pt x="403" y="504" on="0"/>
        <pt x="466" y="504" on="1"/>
        <pt x="506" y="504" on="0"/>
        <pt x="558" y="481" on="0"/>
        <pt x="587" y="453" on="0"/>
        <pt x="592" y="445" on="1"/>
        <pt x="597" y="445" on="1"/>
        <pt x="597" y="496" on="1"/>
        <pt x="724" y="496" on="1"/>
        <pt x="724" y="320" on="1"/>
        <pt x="724" y="282" on="0"/>
        <pt x="735" y="212" on="0"/>
        <pt x="764" y="168" on="0"/>
        <pt x="792" y="168" on="1"/>
        <pt x="827" y="168" on="0"/>
        <pt x="861" y="242" on="0"/>
        <pt x="861" y="309" on="1"/>
        <pt x="861" y="397" on="0"/>
        <pt x="804" y="524" on="0"/>
        <pt x="706" y="607" on="0"/>
        <pt x="582" y="647" on="0"/>
        <pt x="516" y="647" on="1"/>
        <pt x="429" y="647" on="0"/>
        <pt x="296" y="586" on="0"/>
        <pt x="207" y="484" on="0"/>
        <pt x="163" y="357" on="0"/>
        <pt x="163" y="291" on="1"/>
        <pt x="163" y="225" on="0"/>
        <pt x="207" y="101" on="0"/>
        <pt x="296" y="1" on="0"/>
        <pt x="430" y="-58" on="0"/>
        <pt x="521" y="-58" on="1"/>
        <pt x="588" y="-58" on="0"/>
        <pt x="693" y="-31" on="0"/>
        <pt x="754" y="-5" on="0"/>
        <pt x="754" y="-5" on="1"/>
        <pt x="795" y="-107" on="1"/>
        <pt x="795" y="-107" on="0"/>
        <pt x="731" y="-138" on="0"/>
        <pt x="609" y="-169" on="0"/>
      </contour>
      <contour>
        <pt x="503" y="168" on="1"/>
        <pt x="535" y="168" on="0"/>
        <pt x="577" y="202" on="0"/>
        <pt x="598" y="255" on="0"/>
        <pt x="598" y="284" on="1"/>
        <pt x="598" y="312" on="0"/>
        <pt x="577" y="365" on="0"/>
        <pt x="535" y="399" on="0"/>
        <pt x="503" y="399" on="1"/>
        <pt x="472" y="399" on="0"/>
        <pt x="430" y="365" on="0"/>
        <pt x="408" y="313" on="0"/>
        <pt x="408" y="284" on="1"/>
        <pt x="408" y="255" on="0"/>
        <pt x="430" y="202" on="0"/>
        <pt x="472" y="168" on="0"/>
      </contour>
    </TTGlyph>
    <TTGlyph name="atilde" xMin="53" yMin="-10" xMax="602" yMax="767">
      <contour>
        <pt x="406" y="614" on="1"/>
        <pt x="379" y="614" on="0"/>
        <pt x="340" y="633" on="0"/>
        <pt x="310" y="657" on="0"/>
        <pt x="285" y="676" on="0"/>
        <pt x="271" y="676" on="1"/>
        <pt x="255" y="676" on="0"/>
        <pt x="243" y="646" on="0"/>
        <pt x="243" y="620" on="1"/>
        <pt x="162" y="620" on="1"/>
        <pt x="162" y="653" on="0"/>
        <pt x="177" y="721" on="0"/>
        <pt x="221" y="767" on="0"/>
        <pt x="262" y="767" on="1"/>
        <pt x="290" y="767" on="0"/>
        <pt x="329" y="748" on="0"/>
        <pt x="359" y="724" on="0"/>
        <pt x="384" y="706" on="0"/>
        <pt x="397" y="706" on="1"/>
        <pt x="425" y="706" on="0"/>
        <pt x="425" y="761" on="1"/>
        <pt x="506" y="761" on="1"/>
        <pt x="506" y="728" on="0"/>
        <pt x="490" y="660" on="0"/>
        <pt x="447" y="614" on="0"/>
      </contour>
      <contour>
        <pt x="286" y="540" on="1"/>
        <pt x="337" y="540" on="0"/>
        <pt x="403" y="507" on="0"/>
        <pt x="438" y="469" on="0"/>
        <pt x="442" y="462" on="1"/>
        <pt x="450" y="462" on="1"/>
        <pt x="450" y="530" on="1"/>
        <pt x="602" y="530" on="1"/>
        <pt x="602" y="0" on="1"/>
        <pt x="450" y="0" on="1"/>
        <pt x="450" y="68" on="1"/>
        <pt x="442" y="68" on="1"/>
        <pt x="438" y="61" on="0"/>
        <pt x="403" y="23" on="0"/>
        <pt x="337" y="-10" on="0"/>
        <pt x="286" y="-10" on="1"/>
        <pt x="227" y="-10" on="0"/>
        <pt x="140" y="37" on="0"/>
        <pt x="82" y="116" on="0"/>
        <pt x="53" y="214" on="0"/>
        <pt x="53" y="265" on="1"/>
        <pt x="53" y="316" on="0"/>
        <pt x="82" y="414" on="0"/>
        <pt x="140" y="493" on="0"/>
        <pt x="227" y="540" on="0"/>
      </contour>
      <contour>
        <pt x="330" y="417" on="1"/>
        <pt x="289" y="417" on="0"/>
        <pt x="234" y="372" on="0"/>
        <pt x="207" y="302" on="0"/>
        <pt x="207" y="265" on="1"/>
        <pt x="207" y="228" on="0"/>
        <pt x="234" y="158" on="0"/>
        <pt x="289" y="113" on="0"/>
        <pt x="330" y="113" on="1"/>
        <pt x="371" y="113" on="0"/>
        <pt x="426" y="158" on="0"/>
        <pt x="453" y="228" on="0"/>
        <pt x="453" y="265" on="1"/>
        <pt x="453" y="302" on="0"/>
        <pt x="426" y="372" on="0"/>
        <pt x="371" y="417" on="0"/>
      </contour>
    </TTGlyph>
    <TTGlyph name="atilde.ss01" xMin="48" yMin="-10" xMax="533" yMax="767">
      <contour>
        <pt x="375" y="614" on="1"/>
        <pt x="347" y="614" on="0"/>
        <pt x="309" y="633" on="0"/>
        <pt x="279" y="657" on="0"/>
        <pt x="254" y="676" on="0"/>
        <pt x="240" y="676" on="1"/>
        <pt x="224" y="676" on="0"/>
        <pt x="212" y="646" on="0"/>
        <pt x="212" y="620" on="1"/>
        <pt x="130" y="620" on="1"/>
        <pt x="130" y="653" on="0"/>
        <pt x="146" y="721" on="0"/>
        <pt x="190" y="767" on="0"/>
        <pt x="231" y="767" on="1"/>
        <pt x="259" y="767" on="0"/>
        <pt x="298" y="748" on="0"/>
        <pt x="328" y="724" on="0"/>
        <pt x="353" y="706" on="0"/>
        <pt x="366" y="706" on="1"/>
        <pt x="394" y="706" on="0"/>
        <pt x="394" y="761" on="1"/>
        <pt x="475" y="761" on="1"/>
        <pt x="475" y="728" on="0"/>
        <pt x="459" y="660" on="0"/>
        <pt x="416" y="614" on="0"/>
      </contour>
      <contour>
        <pt x="376" y="64" on="1"/>
        <pt x="369" y="55" on="0"/>
        <pt x="335" y="19" on="0"/>
        <pt x="273" y="-10" on="0"/>
        <pt x="223" y="-10" on="1"/>
        <pt x="144" y="-10" on="0"/>
        <pt x="48" y="71" on="0"/>
        <pt x="48" y="142" on="1"/>
        <pt x="48" y="194" on="0"/>
        <pt x="101" y="263" on="0"/>
        <pt x="195" y="302" on="0"/>
        <pt x="255" y="309" on="1"/>
        <pt x="383" y="326" on="1"/>
        <pt x="383" y="344" on="1"/>
        <pt x="383" y="376" on="0"/>
        <pt x="343" y="426" on="0"/>
        <pt x="297" y="426" on="1"/>
        <pt x="265" y="426" on="0"/>
        <pt x="229" y="406" on="0"/>
        <pt x="212" y="379" on="0"/>
        <pt x="207" y="358" on="0"/>
        <pt x="207" y="358" on="1"/>
        <pt x="64" y="358" on="1"/>
        <pt x="64" y="358" on="0"/>
        <pt x="71" y="395" on="0"/>
        <pt x="94" y="449" on="0"/>
        <pt x="145" y="503" on="0"/>
        <pt x="232" y="540" on="0"/>
        <pt x="300" y="540" on="1"/>
        <pt x="383" y="540" on="0"/>
        <pt x="485" y="482" on="0"/>
        <pt x="533" y="393" on="0"/>
        <pt x="533" y="346" on="1"/>
        <pt x="533" y="0" on="1"/>
        <pt x="383" y="0" on="1"/>
        <pt x="383" y="64" on="1"/>
      </contour>
      <contour>
        <pt x="195" y="154" on="1"/>
        <pt x="195" y="124" on="0"/>
        <pt x="240" y="93" on="0"/>
        <pt x="273" y="93" on="1"/>
        <pt x="320" y="93" on="0"/>
        <pt x="383" y="159" on="0"/>
        <pt x="383" y="215" on="1"/>
        <pt x="383" y="232" on="1"/>
        <pt x="274" y="217" on="1"/>
        <pt x="239" y="212" on="0"/>
        <pt x="195" y="184" on="0"/>
      </contour>
    </TTGlyph>
    <TTGlyph name="b" xMin="68" yMin="-10" xMax="617" yMax="760">
      <contour>
        <pt x="384" y="-10" on="1"/>
        <pt x="333" y="-10" on="0"/>
        <pt x="267" y="23" on="0"/>
        <pt x="232" y="61" on="0"/>
        <pt x="227" y="68" on="1"/>
        <pt x="220" y="68" on="1"/>
        <pt x="220" y="0" on="1"/>
        <pt x="68" y="0" on="1"/>
        <pt x="68" y="760" on="1"/>
        <pt x="220" y="760" on="1"/>
        <pt x="220" y="462" on="1"/>
        <pt x="227" y="462" on="1"/>
        <pt x="232" y="469" on="0"/>
        <pt x="267" y="507" on="0"/>
        <pt x="333" y="540" on="0"/>
        <pt x="384" y="540" on="1"/>
        <pt x="443" y="540" on="0"/>
        <pt x="530" y="493" on="0"/>
        <pt x="588" y="414" on="0"/>
        <pt x="617" y="316" on="0"/>
        <pt x="617" y="265" on="1"/>
        <pt x="617" y="214" on="0"/>
        <pt x="588" y="116" on="0"/>
        <pt x="530" y="37" on="0"/>
        <pt x="443" y="-10" on="0"/>
      </contour>
      <contour>
        <pt x="340" y="113" on="1"/>
        <pt x="381" y="113" on="0"/>
        <pt x="436" y="158" on="0"/>
        <pt x="463" y="228" on="0"/>
        <pt x="463" y="265" on="1"/>
        <pt x="463" y="302" on="0"/>
        <pt x="436" y="372" on="0"/>
        <pt x="381" y="417" on="0"/>
        <pt x="340" y="417" on="1"/>
        <pt x="299" y="417" on="0"/>
        <pt x="244" y="372" on="0"/>
        <pt x="217" y="302" on="0"/>
        <pt x="217" y="265" on="1"/>
        <pt x="217" y="228" on="0"/>
        <pt x="244" y="158" on="0"/>
        <pt x="299" y="113" on="0"/>
      </contour>
    </TTGlyph>
    <TTGlyph name="backslash" xMin="12" yMin="-181" xMax="497" yMax="829">
      <contour>
        <pt x="497" y="-181" on="1"/>
        <pt x="360" y="-181" on="1"/>
        <pt x="12" y="829" on="1"/>
        <pt x="148" y="829" on="1"/>
      </contour>
    </TTGlyph>
    <TTGlyph name="bar" xMin="154" yMin="-244" xMax="280" yMax="956">
      <contour>
        <pt x="154" y="-244" on="1"/>
        <pt x="154" y="956" on="1"/>
        <pt x="280" y="956" on="1"/>
        <pt x="280" y="-244" on="1"/>
      </contour>
    </TTGlyph>
    <TTGlyph name="braceleft" xMin="26" yMin="-213" xMax="440" yMax="852">
      <contour>
        <pt x="332" y="-213" on="1"/>
        <pt x="235" y="-213" on="0"/>
        <pt x="132" y="-110" on="0"/>
        <pt x="132" y="-13" on="1"/>
        <pt x="132" y="193" on="1"/>
        <pt x="132" y="255" on="0"/>
        <pt x="70" y="255" on="1"/>
        <pt x="26" y="255" on="1"/>
        <pt x="26" y="384" on="1"/>
        <pt x="70" y="384" on="1"/>
        <pt x="132" y="384" on="0"/>
        <pt x="132" y="447" on="1"/>
        <pt x="132" y="653" on="1"/>
        <pt x="132" y="749" on="0"/>
        <pt x="235" y="852" on="0"/>
        <pt x="332" y="852" on="1"/>
        <pt x="440" y="852" on="1"/>
        <pt x="440" y="722" on="1"/>
        <pt x="350" y="722" on="1"/>
        <pt x="287" y="722" on="0"/>
        <pt x="287" y="660" on="1"/>
        <pt x="287" y="447" on="1"/>
        <pt x="287" y="395" on="0"/>
        <pt x="255" y="338" on="0"/>
        <pt x="207" y="323" on="1"/>
        <pt x="207" y="317" on="1"/>
        <pt x="255" y="301" on="0"/>
        <pt x="287" y="243" on="0"/>
        <pt x="287" y="192" on="1"/>
        <pt x="287" y="-20" on="1"/>
        <pt x="287" y="-82" on="0"/>
        <pt x="350" y="-82" on="1"/>
        <pt x="440" y="-82" on="1"/>
        <pt x="440" y="-213" on="1"/>
      </contour>
    </TTGlyph>
    <TTGlyph name="braceleft.case" xMin="26" yMin="-187" xMax="440" yMax="878">
      <contour>
        <pt x="332" y="-187" on="1"/>
        <pt x="235" y="-187" on="0"/>
        <pt x="132" y="-84" on="0"/>
        <pt x="132" y="13" on="1"/>
        <pt x="132" y="219" on="1"/>
        <pt x="132" y="281" on="0"/>
        <pt x="70" y="281" on="1"/>
        <pt x="26" y="281" on="1"/>
        <pt x="26" y="410" on="1"/>
        <pt x="70" y="410" on="1"/>
        <pt x="132" y="410" on="0"/>
        <pt x="132" y="473" on="1"/>
        <pt x="132" y="679" on="1"/>
        <pt x="132" y="775" on="0"/>
        <pt x="235" y="878" on="0"/>
        <pt x="332" y="878" on="1"/>
        <pt x="440" y="878" on="1"/>
        <pt x="440" y="748" on="1"/>
        <pt x="350" y="748" on="1"/>
        <pt x="287" y="748" on="0"/>
        <pt x="287" y="686" on="1"/>
        <pt x="287" y="473" on="1"/>
        <pt x="287" y="421" on="0"/>
        <pt x="255" y="364" on="0"/>
        <pt x="207" y="349" on="1"/>
        <pt x="207" y="343" on="1"/>
        <pt x="255" y="327" on="0"/>
        <pt x="287" y="269" on="0"/>
        <pt x="287" y="218" on="1"/>
        <pt x="287" y="6" on="1"/>
        <pt x="287" y="-56" on="0"/>
        <pt x="350" y="-56" on="1"/>
        <pt x="440" y="-56" on="1"/>
        <pt x="440" y="-187" on="1"/>
      </contour>
    </TTGlyph>
    <TTGlyph name="braceright" xMin="40" yMin="-213" xMax="454" yMax="852">
      <contour>
        <pt x="148" y="852" on="1"/>
        <pt x="245" y="852" on="0"/>
        <pt x="348" y="749" on="0"/>
        <pt x="348" y="653" on="1"/>
        <pt x="348" y="447" on="1"/>
        <pt x="348" y="384" on="0"/>
        <pt x="410" y="384" on="1"/>
        <pt x="454" y="384" on="1"/>
        <pt x="454" y="255" on="1"/>
        <pt x="410" y="255" on="1"/>
        <pt x="348" y="255" on="0"/>
        <pt x="348" y="193" on="1"/>
        <pt x="348" y="-13" on="1"/>
        <pt x="348" y="-110" on="0"/>
        <pt x="245" y="-213" on="0"/>
        <pt x="148" y="-213" on="1"/>
        <pt x="40" y="-213" on="1"/>
        <pt x="40" y="-82" on="1"/>
        <pt x="130" y="-82" on="1"/>
        <pt x="193" y="-82" on="0"/>
        <pt x="193" y="-20" on="1"/>
        <pt x="193" y="192" on="1"/>
        <pt x="193" y="245" on="0"/>
        <pt x="225" y="301" on="0"/>
        <pt x="273" y="317" on="1"/>
        <pt x="273" y="323" on="1"/>
        <pt x="225" y="339" on="0"/>
        <pt x="193" y="397" on="0"/>
        <pt x="193" y="447" on="1"/>
        <pt x="193" y="660" on="1"/>
        <pt x="193" y="722" on="0"/>
        <pt x="130" y="722" on="1"/>
        <pt x="40" y="722" on="1"/>
        <pt x="40" y="852" on="1"/>
      </contour>
    </TTGlyph>
    <TTGlyph name="braceright.case" xMin="40" yMin="-187" xMax="454" yMax="878">
      <contour>
        <pt x="148" y="878" on="1"/>
        <pt x="245" y="878" on="0"/>
        <pt x="348" y="775" on="0"/>
        <pt x="348" y="679" on="1"/>
        <pt x="348" y="473" on="1"/>
        <pt x="348" y="410" on="0"/>
        <pt x="410" y="410" on="1"/>
        <pt x="454" y="410" on="1"/>
        <pt x="454" y="281" on="1"/>
        <pt x="410" y="281" on="1"/>
        <pt x="348" y="281" on="0"/>
        <pt x="348" y="219" on="1"/>
        <pt x="348" y="13" on="1"/>
        <pt x="348" y="-84" on="0"/>
        <pt x="245" y="-187" on="0"/>
        <pt x="148" y="-187" on="1"/>
        <pt x="40" y="-187" on="1"/>
        <pt x="40" y="-56" on="1"/>
        <pt x="130" y="-56" on="1"/>
        <pt x="193" y="-56" on="0"/>
        <pt x="193" y="6" on="1"/>
        <pt x="193" y="218" on="1"/>
        <pt x="193" y="271" on="0"/>
        <pt x="225" y="327" on="0"/>
        <pt x="273" y="343" on="1"/>
        <pt x="273" y="349" on="1"/>
        <pt x="225" y="365" on="0"/>
        <pt x="193" y="423" on="0"/>
        <pt x="193" y="473" on="1"/>
        <pt x="193" y="686" on="1"/>
        <pt x="193" y="748" on="0"/>
        <pt x="130" y="748" on="1"/>
        <pt x="40" y="748" on="1"/>
        <pt x="40" y="878" on="1"/>
      </contour>
    </TTGlyph>
    <TTGlyph name="bracketleft" xMin="68" yMin="-213" xMax="412" yMax="852">
      <contour>
        <pt x="68" y="-213" on="1"/>
        <pt x="68" y="852" on="1"/>
        <pt x="412" y="852" on="1"/>
        <pt x="412" y="722" on="1"/>
        <pt x="223" y="722" on="1"/>
        <pt x="223" y="-82" on="1"/>
        <pt x="412" y="-82" on="1"/>
        <pt x="412" y="-213" on="1"/>
      </contour>
    </TTGlyph>
    <TTGlyph name="bracketleft.case" xMin="92" yMin="-187" xMax="436" yMax="878">
      <contour>
        <pt x="92" y="-187" on="1"/>
        <pt x="92" y="878" on="1"/>
        <pt x="436" y="878" on="1"/>
        <pt x="436" y="748" on="1"/>
        <pt x="247" y="748" on="1"/>
        <pt x="247" y="-56" on="1"/>
        <pt x="436" y="-56" on="1"/>
        <pt x="436" y="-187" on="1"/>
      </contour>
    </TTGlyph>
</ttFont>
